{
copyright = "Copyright (c) 2021 by Vladimir Nikolic. All rights reserved.";
designer = "Vladimir Nikolic";
designerURL = "https://www.coroflot.com/vladimirnikolic";
familyName = Flosser;
customParameters = (
{
name = glyphOrder;
value = (
.notdef,
NULL,
CR,
space,
E,
F,
G,
H,
I,
J,
L,
M,
N,
O,
P,
Q,
R,
S,
T,
U,
V,
W,
X,
Y,
Z,
D,
exclam,
quotedbl,
quotesingle,
comma,
period,
zero,
one,
two,
three,
five,
six,
seven,
eight,
nine,
colon,
semicolon,
question,
B,
C,
A,
trademark,
uni0401,
uni0411,
uni041F,
uni0427,
uni0422,
uni042E,
asciicircum,
uni042F,
uni042D,
uni042C,
uni042B,
daggerdbl,
K,
uni0428,
uni041D,
uni0420,
uni0421,
uni041E,
dollar,
Euro,
parenright,
parenleft,
hyphen,
slash,
uni0423,
uni0409,
endash,
emdash,
uni2116,
uni040A,
uni040B,
uni0402,
uni0429,
uni0425,
uni0408,
copyright,
registered,
percent,
plus,
numbersign,
backslash,
equal,
perthousand,
degree,
uni0403,
uni0405,
uni0407,
uni0426,
plusminus,
quotedblleft,
quotedblright,
quoteright,
quoteleft,
bullet,
quotesinglbase,
uni0406,
uni042A,
uni0424,
dagger,
quotedblbase,
ellipsis,
brokenbar,
uni040C,
uni040E,
uni0490,
uni045F,
four,
ampersand,
at,
bracketright,
bracketleft,
bar,
uni0433,
uni0434,
uni0435,
uni0436,
uni0437,
uni0438,
uni0439,
uni043A,
uni043B,
uni043C,
uni045E,
uni0453,
uni0455,
uni0457,
uni045B,
uni0452,
uni040F,
uni0458,
uni045A,
uni0459,
uni045C,
uni0404,
uni0451,
uni0454,
a,
b,
c,
d,
e,
f,
g,
h,
i,
j,
k,
l,
m,
n,
o,
p,
q,
r,
s,
t,
u,
v,
w,
x,
y,
z,
uni0456,
uni0491,
uni0410,
uni0430,
uni0412,
uni0432,
uni0431,
uni0413,
uni0414,
uni0415,
uni0416,
uni0417,
uni0418,
uni0419,
uni041A,
uni041B,
uni041C,
uni043D,
uni043E,
uni043F,
uni0440,
uni0441,
uni0442,
uni0443,
uni0444,
uni0445,
uni0446,
uni0447,
uni0448,
uni0449,
uni044A,
uni044B,
uni044C,
uni044D,
uni044E,
uni044F
);
},
{
name = trademark;
value = "Flosser Normal is a trademark of Vladimir Nikolic.";
}
);
fontMaster = (
{
ascender = 750;
capHeight = 686;
customParameters = (
{
name = typoAscender;
value = 750;
},
{

glyphs = (
{
glyphname = E;
layers = (
{
layerId = "1456D5E5-B8FF-4D35-B4CF-CE3708A5ECC4";
paths = (
{
nodes = (
"674 650 OFFCURVE",
"657 650 OFFCURVE",
"649 651 QCURVE SMOOTH",
"579 656 OFFCURVE",
"440 659 OFFCURVE",
"369 656 QCURVE",
"361 656 OFFCURVE",
"342 655 OFFCURVE",
"334 655 QCURVE",
"272 652 OFFCURVE",
"150 641 OFFCURVE",
"89 631 QCURVE SMOOTH",
"84 630 OFFCURVE",
"76 629 OFFCURVE",
"71 629 QCURVE",
"69 620 LINE",
"67 614 LINE SMOOTH",
"45 548 OFFCURVE",
"21 415 OFFCURVE",
"20 346 QCURVE SMOOTH",
"19 286 OFFCURVE",
"36 168 OFFCURVE",
"53 111 QCURVE",
"57 101 OFFCURVE",
"58 96 QCURVE",
"62 96 OFFCURVE",
"69 94 OFFCURVE",
"73 93 QCURVE SMOOTH",
"111 88 OFFCURVE",
"187 79 OFFCURVE",
"226 77 QCURVE SMOOTH",
"252 75 OFFCURVE",
"305 72 OFFCURVE",
"331 70 QCURVE SMOOTH",
"367 68 OFFCURVE",
"439 68 OFFCURVE",
"476 68 QCURVE",
"494 67 OFFCURVE",
"531 68 OFFCURVE",
"549 68 QCURVE",
"601 70 OFFCURVE",
"704 75 OFFCURVE",
"757 79 QCURVE",
"774 81 OFFCURVE",
"806 85 OFFCURVE",
"822 89 QCURVE",
"829 113 OFFCURVE",
"841 161 OFFCURVE",
"846 187 QCURVE",
"715 177 OFFCURVE",
"454 174 OFFCURVE",
"323 176 QCURVE",
"321 208 OFFCURVE",
"320 275 OFFCURVE",
"320 307 QCURVE",
"358 307 LINE",
"556 307 LINE",
"783 307 LINE",
"856 309 LINE",
"858 332 OFFCURVE",
"857 376 OFFCURVE",
"855 399 QCURVE",
"855 409 LINE",
"854 416 LINE",
"745 419 LINE SMOOTH",
"697 421 OFFCURVE",
"603 421 OFFCURVE",
"555 422 QCURVE SMOOTH",
"457 423 OFFCURVE",
"359 422 QCURVE",
"348 422 OFFCURVE",
"330 421 OFFCURVE",
"320 421 QCURVE",
"321 454 OFFCURVE",
"324 518 OFFCURVE",
"326 550 QCURVE",
"335 550 OFFCURVE",
"353 552 OFFCURVE",
"362 551 QCURVE",
"410 553 OFFCURVE",
"503 552 OFFCURVE",
"551 550 QCURVE",
"623 549 OFFCURVE",
"764 541 OFFCURVE",
"836 536 QCURVE",
"834 544 OFFCURVE",
"831 560 OFFCURVE",
"829 568 QCURVE SMOOTH",
"825 584 OFFCURVE",
"816 616 OFFCURVE",
"811 632 QCURVE",
"794 635 OFFCURVE",
"764 639 OFFCURVE",
"747 641 QCURVE SMOOTH",
"731 643 OFFCURVE",
"699 647 OFFCURVE",
"682 648 QCURVE"
);
},
{
nodes = (
"694 657 OFFCURVE",
"715 656 OFFCURVE",
"724 654 QCURVE",
"723 654 LINE",
"748 651 LINE SMOOTH",
"765 649 OFFCURVE",
"800 644 OFFCURVE",
"818 641 QCURVE",
"826 618 OFFCURVE",
"836 583 OFFCURVE",
"839 570 QCURVE",
"839 569 LINE",
"874 563 LINE",
"882 540 OFFCURVE",
"892 505 OFFCURVE",
"895 492 QCURVE",
"898 476 LINE",
"905 447 LINE",
"833 452 OFFCURVE",
"679 461 OFFCURVE",
"607 462 QCURVE SMOOTH",
"578 463 OFFCURVE",
"519 464 OFFCURVE",
"490 464 QCURVE SMOOTH",
"472 464 OFFCURVE",
"435 464 OFFCURVE",
"417 463 QCURVE",
"392 463 LINE",
"391 455 OFFCURVE",
"390 440 OFFCURVE",
"390 432 QCURVE",
"407 432 OFFCURVE",
"440 433 OFFCURVE",
"457 433 QCURVE SMOOTH",
"481 433 OFFCURVE",
"530 432 OFFCURVE",
"555 432 QCURVE SMOOTH",
"571 432 OFFCURVE",
"602 431 OFFCURVE",
"618 431 QCURVE SMOOTH",
"650 431 OFFCURVE",
"713 430 OFFCURVE",
"745 429 QCURVE SMOOTH",
"864 426 LINE",
"865 409 LINE",
"865 400 LINE",
"866 389 OFFCURVE",
"867 361 OFFCURVE",
"867 349 QCURVE",
"920 348 LINE",
"921 331 LINE",
"921 322 LINE",
"922 309 OFFCURVE",
"923 278 OFFCURVE",
"923 265 QCURVE SMOOTH",
"923 257 OFFCURVE",
"923 238 OFFCURVE",
"921 221 QCURVE",
"839 219 LINE",
"386 219 LINE",
"386 185 LINE",
"475 185 LINE SMOOTH",
"569 185 OFFCURVE",
"765 191 OFFCURVE",
"858 198 QCURVE",
"853 174 OFFCURVE",
"844 133 OFFCURVE",
"839 115 QCURVE",
"859 116 OFFCURVE",
"895 118 OFFCURVE",
"914 120 QCURVE",
"908 85 OFFCURVE",
"894 29 OFFCURVE",
"886 3 QCURVE",
"867 -2 OFFCURVE",
"842 -5 OFFCURVE",
"830 -7 QCURVE SMOOTH",
"814 -9 LINE",
"763 -13 OFFCURVE",
"656 -18 OFFCURVE",
"605 -20 QCURVE",
"581 -20 LINE SMOOTH",
"569 -20 OFFCURVE",
"543 -21 OFFCURVE",
"531 -20 QCURVE",
"494 -20 OFFCURVE",
"421 -20 OFFCURVE",
"386 -18 QCURVE SMOOTH",
"360 -16 OFFCURVE",
"307 -13 OFFCURVE",
"281 -11 QCURVE SMOOTH",
"252 -9 OFFCURVE",
"189 -3 OFFCURVE",
"160 1 QCURVE SMOOTH",
"129 5 LINE",
"128 5 OFFCURVE",
"125 6 OFFCURVE",
"124 6 QCURVE",
"118 8 OFFCURVE",
"106 8 QCURVE",
"104 15 OFFCURVE",
"99 28 OFFCURVE",
"97 35 QCURVE SMOOTH",
"89 58 OFFCURVE",
"85 81 QCURVE",
"73 83 LINE",
"72 83 OFFCURVE",
"69 84 OFFCURVE",
"68 84 QCURVE",
"62 86 OFFCURVE",
"50 86 QCURVE",
"48 93 OFFCURVE",
"43 106 OFFCURVE",
"41 113 QCURVE SMOOTH",
"25 167 OFFCURVE",
"9 284 OFFCURVE",
"10 346 QCURVE SMOOTH",
"11 412 OFFCURVE",
"37 552 OFFCURVE",
"58 617 QCURVE",
"59 618 OFFCURVE",
"59 620 QCURVE",
"61 639 LINE",
"72 639 OFFCURVE",
"82 640 OFFCURVE",
"87 641 QCURVE SMOOTH",
"147 651 OFFCURVE",
"271 662 OFFCURVE",
"334 665 QCURVE",
"351 665 LINE SMOOTH",
"356 665 OFFCURVE",
"364 666 OFFCURVE",
"369 666 QCURVE",
"391 667 OFFCURVE",
"443 668 OFFCURVE",
"465 668 QCURVE SMOOTH",
"510 668 OFFCURVE",
"605 665 OFFCURVE",
"650 661 QCURVE",
"652 661 OFFCURVE",
"658 660 OFFCURVE",
"660 660 QCURVE",
"666 660 OFFCURVE",
"678 659 OFFCURVE",
"683 658 QCURVE SMOOTH"
);
}
);
width = 933;
}
);
unicode = 0045;
},
{
glyphname = F;
layers = (
{
layerId = "1456D5E5-B8FF-4D35-B4CF-CE3708A5ECC4";
paths = (
{
nodes = (
"626 659 OFFCURVE",
"255 658 OFFCURVE",
"70 629 QCURVE",
"25 501 OFFCURVE",
"15 227 OFFCURVE",
"57 97 QCURVE",
"57 98 LINE",
"58 96 LINE",
"126 85 OFFCURVE",
"261 73 OFFCURVE",
"330 70 QCURVE",
"325 130 OFFCURVE",
"319 247 OFFCURVE",
"319 307 QCURVE",
"453 307 OFFCURVE",
"720 307 OFFCURVE",
"855 309 QCURVE",
"857 336 OFFCURVE",
"855 389 OFFCURVE",
"853 416 QCURVE",
"719 420 OFFCURVE",
"453 423 OFFCURVE",
"319 421 QCURVE",
"320 454 OFFCURVE",
"323 518 OFFCURVE",
"325 550 QCURVE",
"454 554 OFFCURVE",
"707 547 OFFCURVE",
"835 536 QCURVE",
"830 560 OFFCURVE",
"817 608 OFFCURVE",
"810 632 QCURVE"
);
},
{
nodes = (
"876 557 LINE",
"883 533 OFFCURVE",
"899 471 OFFCURVE",
"904 447 QCURVE",
"808 455 OFFCURVE",
"607 464 OFFCURVE",
"511 464 QCURVE SMOOTH",
"479 464 OFFCURVE",
"423 463 OFFCURVE",
"391 462 QCURVE",
"390 454 OFFCURVE",
"389 439 OFFCURVE",
"389 432 QCURVE",
"466 432 LINE SMOOTH",
"563 432 OFFCURVE",
"765 429 OFFCURVE",
"862 426 QCURVE",
"864 404 OFFCURVE",
"866 366 OFFCURVE",
"866 349 QCURVE",
"879 349 OFFCURVE",
"905 348 OFFCURVE",
"918 348 QCURVE",
"920 325 OFFCURVE",
"922 286 OFFCURVE",
"922 269 QCURVE SMOOTH",
"922 259 OFFCURVE",
"921 231 OFFCURVE",
"920 221 QCURVE",
"785 219 OFFCURVE",
"519 219 OFFCURVE",
"385 219 QCURVE",
"386 162 OFFCURVE",
"392 39 OFFCURVE",
"397 -18 QCURVE",
"319 -15 OFFCURVE",
"174 -1 OFFCURVE",
"105 10 QCURVE",
"99 28 OFFCURVE",
"90 64 OFFCURVE",
"85 82 QCURVE",
"49 88 LINE",
"10 212 OFFCURVE",
"10 338 QCURVE SMOOTH",
"10 490 OFFCURVE",
"63 638 QCURVE",
"161 654 OFFCURVE",
"353 668 OFFCURVE",
"450 668 QCURVE SMOOTH",
"542 668 OFFCURVE",
"721 656 OFFCURVE",
"811 642 QCURVE",
"820 635 LINE",
"837 568 LINE",
"867 564 LINE"
);
}
);
width = 933;
}
);
unicode = 0046;
},
{
glyphname = G;
layers = (
{
layerId = "1456D5E5-B8FF-4D35-B4CF-CE3708A5ECC4";
paths = (
{
nodes = (
"649 651 LINE",
"544 659 OFFCURVE",
"337 658 OFFCURVE",
"233 649 QCURVE",
"228 648 OFFCURVE",
"221 648 OFFCURVE",
"216 648 QCURVE",
"199 646 LINE",
"197 646 OFFCURVE",
"195 645 OFFCURVE",
"193 645 QCURVE",
"166 642 LINE SMOOTH",
"158 641 OFFCURVE",
"142 639 OFFCURVE",
"134 638 QCURVE SMOOTH",
"106 633 OFFCURVE",
"63 594 OFFCURVE",
"53 568 QCURVE",
"51 559 OFFCURVE",
"47 542 OFFCURVE",
"45 534 QCURVE SMOOTH",
"36 500 OFFCURVE",
"26 433 OFFCURVE",
"22 400 QCURVE",
"22 394 OFFCURVE",
"22 385 OFFCURVE",
"21 380 QCURVE",
"21 372 OFFCURVE",
"19 354 OFFCURVE",
"20 345 QCURVE",
"19 307 OFFCURVE",
"28 230 OFFCURVE",
"34 192 QCURVE SMOOTH",
"36 183 OFFCURVE",
"38 168 OFFCURVE",
"40 160 QCURVE SMOOTH",
"48 131 OFFCURVE",
"95 94 OFFCURVE",
"122 87 QCURVE",
"123 87 LINE",
"131 85 OFFCURVE",
"148 85 OFFCURVE",
"157 83 QCURVE",
"165 83 OFFCURVE",
"182 78 OFFCURVE",
"191 79 QCURVE",
"199 78 OFFCURVE",
"217 78 OFFCURVE",
"226 77 QCURVE SMOOTH",
"360 67 OFFCURVE",
"623 68 OFFCURVE",
"757 79 QCURVE",
"785 86 OFFCURVE",
"831 125 OFFCURVE",
"839 153 QCURVE",
"844 179 OFFCURVE",
"851 229 OFFCURVE",
"853 255 QCURVE SMOOTH",
"855 282 OFFCURVE",
"857 337 OFFCURVE",
"857 363 QCURVE",
"751 363 OFFCURVE",
"543 366 OFFCURVE",
"437 365 QCURVE",
"437 336 OFFCURVE",
"436 278 OFFCURVE",
"437 249 QCURVE",
"556 249 LINE",
"556 235 OFFCURVE",
"554 208 OFFCURVE",
"554 194 QCURVE SMOOTH",
"554 189 OFFCURVE",
"553 180 OFFCURVE",
"553 175 QCURVE",
"495 175 OFFCURVE",
"381 174 OFFCURVE",
"323 176 QCURVE",
"318 279 OFFCURVE",
"320 383 QCURVE",
"320 466 OFFCURVE",
"326 550 QCURVE",
"383 552 OFFCURVE",
"494 552 OFFCURVE",
"551 550 QCURVE",
"552 546 OFFCURVE",
"551 538 OFFCURVE",
"551 534 QCURVE",
"553 520 OFFCURVE",
"553 492 OFFCURVE",
"554 479 QCURVE",
"568 480 OFFCURVE",
"597 478 OFFCURVE",
"612 478 QCURVE SMOOTH",
"631 478 LINE",
"668 476 LINE SMOOTH",
"713 474 OFFCURVE",
"803 471 OFFCURVE",
"849 469 QCURVE",
"847 477 OFFCURVE",
"844 493 OFFCURVE",
"842 502 QCURVE",
"840 519 OFFCURVE",
"834 552 OFFCURVE",
"829 568 QCURVE SMOOTH",
"821 596 OFFCURVE",
"777 638 OFFCURVE",
"747 641 QCURVE",
"739 641 OFFCURVE",
"723 644 OFFCURVE",
"715 644 QCURVE"
);
},
{
nodes = (
"716 654 LINE",
"724 654 OFFCURVE",
"734 652 QCURVE SMOOTH",
"739 651 OFFCURVE",
"748 651 QCURVE",
"782 647 OFFCURVE",
"830 601 OFFCURVE",
"839 571 QCURVE",
"841 561 LINE",
"861 550 OFFCURVE",
"888 514 OFFCURVE",
"895 493 QCURVE SMOOTH",
"899 479 OFFCURVE",
"906 444 OFFCURVE",
"908 426 QCURVE",
"911 410 LINE SMOOTH",
"912 402 OFFCURVE",
"919 380 QCURVE",
"876 382 OFFCURVE",
"777 386 OFFCURVE",
"735 388 QCURVE",
"724 388 LINE",
"687 390 LINE",
"668 390 LINE SMOOTH",
"662 390 OFFCURVE",
"650 391 OFFCURVE",
"644 391 QCURVE SMOOTH",
"639 391 OFFCURVE",
"624 390 OFFCURVE",
"617 390 QCURVE SMOOTH",
"600 390 LINE",
"600 395 OFFCURVE",
"599 414 OFFCURVE",
"599 419 QCURVE SMOOTH",
"599 427 OFFCURVE",
"598 446 OFFCURVE",
"597 455 QCURVE",
"597 461 LINE",
"597 462 LINE",
"597 463 LINE",
"574 464 OFFCURVE",
"528 464 OFFCURVE",
"505 464 QCURVE SMOOTH",
"474 464 OFFCURVE",
"422 463 OFFCURVE",
"391 462 QCURVE",
"389 424 OFFCURVE",
"386 343 OFFCURVE",
"386 305 QCURVE SMOOTH",
"386 253 LINE",
"386 185 LINE",
"410 184 OFFCURVE",
"458 185 OFFCURVE",
"482 185 QCURVE",
"482 199 OFFCURVE",
"483 226 OFFCURVE",
"483 239 QCURVE",
"427 239 LINE",
"426 258 OFFCURVE",
"427 307 OFFCURVE",
"427 327 QCURVE SMOOTH",
"427 375 LINE",
"507 375 LINE SMOOTH",
"550 375 OFFCURVE",
"634 375 OFFCURVE",
"677 374 QCURVE",
"698 374 OFFCURVE",
"747 373 OFFCURVE",
"798 373 OFFCURVE",
"847 373 OFFCURVE",
"867 373 QCURVE",
"867 353 OFFCURVE",
"866 314 OFFCURVE",
"865 295 QCURVE",
"923 295 LINE",
"923 264 OFFCURVE",
"921 203 OFFCURVE",
"919 176 QCURVE SMOOTH",
"917 149 OFFCURVE",
"910 97 OFFCURVE",
"905 72 QCURVE",
"897 42 OFFCURVE",
"846 -1 OFFCURVE",
"815 -9 QCURVE",
"745 -14 OFFCURVE",
"603 -20 OFFCURVE",
"533 -20 QCURVE SMOOTH",
"407 -20 OFFCURVE",
"281 -11 QCURVE",
"277 -11 OFFCURVE",
"268 -10 OFFCURVE",
"264 -10 QCURVE SMOOTH",
"259 -10 OFFCURVE",
"250 -10 OFFCURVE",
"246 -9 QCURVE",
"240 -10 OFFCURVE",
"231 -8 OFFCURVE",
"226 -7 QCURVE SMOOTH",
"216 -5 OFFCURVE",
"211 -5 QCURVE",
"206 -4 OFFCURVE",
"199 -3 OFFCURVE",
"196 -3 QCURVE",
"176 -1 LINE",
"147 7 OFFCURVE",
"94 47 OFFCURVE",
"86 80 QCURVE",
"84 91 LINE",
"65 102 OFFCURVE",
"35 135 OFFCURVE",
"30 158 QCURVE",
"28 171 LINE",
"28 170 LINE",
"24 190 LINE",
"18 226 OFFCURVE",
"9 305 OFFCURVE",
"10 344 QCURVE",
"10 367 LINE SMOOTH",
"10 371 OFFCURVE",
"11 378 OFFCURVE",
"11 381 QCURVE",
"12 386 OFFCURVE",
"12 395 OFFCURVE",
"12 401 QCURVE",
"16 436 OFFCURVE",
"27 505 OFFCURVE",
"35 537 QCURVE SMOOTH",
"37 546 OFFCURVE",
"42 564 OFFCURVE",
"43 569 QCURVE",
"54 598 OFFCURVE",
"102 642 OFFCURVE",
"132 648 QCURVE",
"138 648 OFFCURVE",
"148 650 QCURVE",
"166 652 LINE",
"165 652 LINE",
"195 655 LINE",
"196 655 OFFCURVE",
"198 656 OFFCURVE",
"199 656 QCURVE",
"216 658 LINE",
"219 658 OFFCURVE",
"225 658 OFFCURVE",
"230 659 QCURVE",
"338 668 OFFCURVE",
"450 668 QCURVE SMOOTH",
"500 668 OFFCURVE",
"600 665 OFFCURVE",
"650 661 QCURVE"
);
}
);
width = 933;
}
);
unicode = 0047;
},
{
glyphname = H;
layers = (
{
layerId = "1456D5E5-B8FF-4D35-B4CF-CE3708A5ECC4";
paths = (
{
nodes = (
"673 650 OFFCURVE",
"656 650 OFFCURVE",
"648 651 QCURVE",
"562 656 LINE",
"544 656 LINE",
"545 648 OFFCURVE",
"546 642 OFFCURVE",
"546 640 QCURVE",
"546 626 OFFCURVE",
"548 601 OFFCURVE",
"548 587 QCURVE",
"549 578 OFFCURVE",
"550 559 OFFCURVE",
"550 550 QCURVE",
"551 544 OFFCURVE",
"551 531 OFFCURVE",
"551 524 QCURVE",
"552 510 OFFCURVE",
"553 479 OFFCURVE",
"553 465 QCURVE SMOOTH",
"553 454 OFFCURVE",
"554 433 OFFCURVE",
"554 422 QCURVE",
"534 423 OFFCURVE",
"495 421 OFFCURVE",
"475 422 QCURVE",
"358 422 LINE SMOOTH",
"347 422 OFFCURVE",
"329 421 OFFCURVE",
"319 421 QCURVE",
"320 454 OFFCURVE",
"323 518 OFFCURVE",
"325 550 QCURVE SMOOTH",
"333 655 LINE",
"283 652 OFFCURVE",
"184 645 OFFCURVE",
"133 638 QCURVE",
"118 635 OFFCURVE",
"86 631 OFFCURVE",
"70 629 QCURVE",
"65 614 OFFCURVE",
"57 583 OFFCURVE",
"52 568 QCURVE SMOOTH",
"17 451 OFFCURVE",
"22 211 OFFCURVE",
"57 96 QCURVE",
"125 85 OFFCURVE",
"261 73 OFFCURVE",
"330 70 QCURVE",
"325 130 OFFCURVE",
"319 247 OFFCURVE",
"319 307 QCURVE",
"357 307 LINE",
"475 307 LINE",
"555 307 LINE",
"555 287 LINE",
"554 273 OFFCURVE",
"554 246 OFFCURVE",
"554 232 QCURVE",
"552 195 OFFCURVE",
"551 123 OFFCURVE",
"548 88 QCURVE",
"548 77 LINE",
"548 68 LINE",
"552 69 OFFCURVE",
"560 69 OFFCURVE",
"565 69 QCURVE",
"613 70 OFFCURVE",
"708 76 OFFCURVE",
"756 79 QCURVE SMOOTH",
"764 80 OFFCURVE",
"780 83 OFFCURVE",
"788 84 QCURVE SMOOTH",
"797 85 OFFCURVE",
"813 87 OFFCURVE",
"821 89 QCURVE",
"823 93 OFFCURVE",
"825 100 OFFCURVE",
"826 105 QCURVE SMOOTH",
"831 125 OFFCURVE",
"841 167 OFFCURVE",
"845 187 QCURVE",
"852 255 LINE",
"852 264 LINE",
"853 265 LINE",
"853 273 LINE",
"854 283 LINE",
"855 290 LINE",
"857 327 OFFCURVE",
"856 399 OFFCURVE",
"851 434 QCURVE",
"851 441 OFFCURVE",
"849 453 OFFCURVE",
"848 460 QCURVE",
"848 469 LINE",
"846 477 OFFCURVE",
"843 493 OFFCURVE",
"841 502 QCURVE",
"840 515 LINE",
"838 529 OFFCURVE",
"832 554 OFFCURVE",
"828 568 QCURVE",
"826 581 OFFCURVE",
"817 603 OFFCURVE",
"815 617 QCURVE",
"810 632 LINE",
"793 635 OFFCURVE",
"763 639 OFFCURVE",
"746 641 QCURVE SMOOTH",
"730 643 OFFCURVE",
"698 647 OFFCURVE",
"681 648 QCURVE"
);
},
{
nodes = (
"693 657 OFFCURVE",
"714 656 OFFCURVE",
"723 654 QCURVE",
"722 654 LINE",
"747 651 LINE SMOOTH",
"764 649 OFFCURVE",
"800 644 OFFCURVE",
"818 641 QCURVE",
"825 619 LINE",
"827 611 OFFCURVE",
"830 598 OFFCURVE",
"833 590 QCURVE SMOOTH",
"835 584 OFFCURVE",
"837 577 OFFCURVE",
"838 571 QCURVE",
"838 569 LINE",
"874 563 LINE",
"881 541 LINE",
"883 533 OFFCURVE",
"886 520 OFFCURVE",
"889 512 QCURVE SMOOTH",
"891 506 OFFCURVE",
"893 499 OFFCURVE",
"894 493 QCURVE",
"898 480 OFFCURVE",
"904 455 OFFCURVE",
"906 439 QCURVE",
"907 426 LINE",
"910 410 LINE SMOOTH",
"911 404 OFFCURVE",
"912 394 OFFCURVE",
"914 391 QCURVE",
"914 382 LINE",
"914 380 OFFCURVE",
"915 377 OFFCURVE",
"915 375 QCURVE",
"917 365 OFFCURVE",
"917 357 QCURVE",
"920 335 OFFCURVE",
"922 288 OFFCURVE",
"922 265 QCURVE SMOOTH",
"922 251 OFFCURVE",
"922 225 OFFCURVE",
"921 211 QCURVE",
"921 209 OFFCURVE",
"920 207 OFFCURVE",
"920 205 QCURVE",
"919 195 LINE",
"918 186 LINE",
"918 176 LINE",
"911 106 LINE",
"907 86 OFFCURVE",
"897 44 OFFCURVE",
"892 24 QCURVE SMOOTH",
"891 19 OFFCURVE",
"886 7 OFFCURVE",
"884 1 QCURVE",
"883 1 OFFCURVE",
"877 0 OFFCURVE",
"875 0 QCURVE",
"868 -2 OFFCURVE",
"854 -3 OFFCURVE",
"846 -4 QCURVE SMOOTH",
"830 -7 LINE SMOOTH",
"822 -9 OFFCURVE",
"813 -9 QCURVE",
"773 -12 LINE SMOOTH",
"735 -14 OFFCURVE",
"659 -18 OFFCURVE",
"621 -19 QCURVE",
"616 -19 OFFCURVE",
"605 -20 OFFCURVE",
"594 -22 QCURVE",
"594 11 LINE",
"597 59 LINE",
"565 59 LINE SMOOTH",
"560 59 OFFCURVE",
"549 58 OFFCURVE",
"538 56 QCURVE",
"538 89 LINE",
"540 113 OFFCURVE",
"541 160 OFFCURVE",
"542 184 QCURVE",
"542 191 OFFCURVE",
"542 210 OFFCURVE",
"543 219 QCURVE",
"385 219 LINE",
"386 162 OFFCURVE",
"392 39 OFFCURVE",
"397 -18 QCURVE",
"241 -12 OFFCURVE",
"105 9 QCURVE",
"99 27 OFFCURVE",
"90 63 OFFCURVE",
"86 81 QCURVE",
"49 87 LINE",
"10 214 OFFCURVE",
"10 342 QCURVE SMOOTH",
"10 401 OFFCURVE",
"25 515 OFFCURVE",
"42 571 QCURVE SMOOTH",
"51 601 LINE SMOOTH",
"52 604 OFFCURVE",
"52 608 OFFCURVE",
"53 614 OFFCURVE",
"58 626 OFFCURVE",
"63 638 QCURVE",
"90 642 LINE SMOOTH",
"95 643 OFFCURVE",
"107 645 OFFCURVE",
"114 646 QCURVE SMOOTH",
"130 648 LINE SMOOTH",
"181 655 OFFCURVE",
"294 663 OFFCURVE",
"344 666 QCURVE",
"337 584 LINE",
"400 588 LINE",
"391 471 LINE",
"391 461 OFFCURVE",
"389 441 OFFCURVE",
"389 432 QCURVE",
"475 432 LINE",
"486 431 OFFCURVE",
"505 432 OFFCURVE",
"515 432 QCURVE SMOOTH",
"544 432 LINE",
"544 437 OFFCURVE",
"543 440 OFFCURVE",
"543 444 QCURVE SMOOTH",
"543 465 LINE SMOOTH",
"543 479 OFFCURVE",
"542 509 OFFCURVE",
"541 523 QCURVE",
"541 530 OFFCURVE",
"541 543 OFFCURVE",
"540 549 QCURVE",
"540 558 OFFCURVE",
"539 577 OFFCURVE",
"538 586 QCURVE",
"538 593 OFFCURVE",
"537 605 OFFCURVE",
"537 612 QCURVE",
"536 617 OFFCURVE",
"536 631 OFFCURVE",
"536 640 QCURVE",
"535 640 OFFCURVE",
"533 658 OFFCURVE",
"532 666 QCURVE",
"562 666 LINE",
"648 661 LINE",
"651 661 OFFCURVE",
"656 660 OFFCURVE",
"659 660 QCURVE SMOOTH",
"665 660 OFFCURVE",
"677 659 OFFCURVE",
"682 658 QCURVE SMOOTH"
);
}
);
width = 933;
}
);
unicode = 0048;
},
{
glyphname = I;
layers = (
{
layerId = "1456D5E5-B8FF-4D35-B4CF-CE3708A5ECC4";
paths = (
{
nodes = (
"35 606 OFFCURVE",
"30 558 OFFCURVE",
"28 535 QCURVE SMOOTH",
"26 500 OFFCURVE",
"21 433 OFFCURVE",
"20 400 QCURVE",
"20 394 OFFCURVE",
"20 385 OFFCURVE",
"19 380 QCURVE",
"19 345 LINE",
"19 328 LINE",
"20 211 OFFCURVE",
"34 94 QCURVE",
"59 84 OFFCURVE",
"111 73 OFFCURVE",
"137 71 QCURVE SMOOTH",
"156 69 OFFCURVE",
"192 68 OFFCURVE",
"210 68 QCURVE SMOOTH",
"237 68 OFFCURVE",
"288 74 OFFCURVE",
"314 79 QCURVE",
"320 146 OFFCURVE",
"327 277 OFFCURVE",
"327 344 QCURVE SMOOTH",
"327 381 LINE",
"326 422 OFFCURVE",
"322 500 OFFCURVE",
"320 540 QCURVE SMOOTH",
"318 575 LINE",
"316 592 OFFCURVE",
"312 624 OFFCURVE",
"310 641 QCURVE",
"294 646 OFFCURVE",
"261 652 OFFCURVE",
"244 655 QCURVE",
"222 657 OFFCURVE",
"177 658 OFFCURVE",
"155 656 QCURVE SMOOTH",
"125 654 OFFCURVE",
"67 641 OFFCURVE",
"38 630 QCURVE"
);
},
{
nodes = (
"34 639 LINE",
"63 651 OFFCURVE",
"124 664 OFFCURVE",
"154 666 QCURVE SMOOTH",
"162 667 OFFCURVE",
"182 668 OFFCURVE",
"192 668 QCURVE SMOOTH",
"205 668 OFFCURVE",
"233 667 OFFCURVE",
"245 665 QCURVE",
"247 665 OFFCURVE",
"255 663 OFFCURVE",
"257 663 QCURVE",
"270 661 OFFCURVE",
"297 656 OFFCURVE",
"319 648 QCURVE",
"320 640 OFFCURVE",
"322 625 OFFCURVE",
"324 611 QCURVE SMOOTH",
"327 583 LINE",
"337 581 OFFCURVE",
"359 575 OFFCURVE",
"375 570 QCURVE",
"376 562 OFFCURVE",
"378 547 OFFCURVE",
"380 533 QCURVE SMOOTH",
"384 498 LINE",
"386 463 LINE SMOOTH",
"388 425 OFFCURVE",
"392 342 OFFCURVE",
"393 303 QCURVE",
"393 266 LINE SMOOTH",
"393 200 OFFCURVE",
"386 64 OFFCURVE",
"379 -8 QCURVE",
"350 -13 OFFCURVE",
"295 -20 OFFCURVE",
"266 -20 QCURVE SMOOTH",
"248 -20 OFFCURVE",
"210 -19 OFFCURVE",
"192 -17 QCURVE SMOOTH",
"166 -15 OFFCURVE",
"109 -2 OFFCURVE",
"81 9 QCURVE",
"79 25 OFFCURVE",
"76 55 OFFCURVE",
"74 71 QCURVE",
"62 74 OFFCURVE",
"37 82 OFFCURVE",
"25 87 QCURVE",
"17 150 OFFCURVE",
"10 270 OFFCURVE",
"9 328 QCURVE",
"9 381 LINE",
"10 386 OFFCURVE",
"10 395 OFFCURVE",
"10 400 QCURVE",
"11 424 OFFCURVE",
"13 474 OFFCURVE",
"15 499 QCURVE SMOOTH",
"18 536 LINE",
"18 538 OFFCURVE",
"19 542 OFFCURVE",
"19 544 QCURVE",
"21 565 OFFCURVE",
"25 609 OFFCURVE",
"28 631 QCURVE"
);
}
);
width = 403;
}
);
unicode = 0049;
},
{
glyphname = J;
layers = (
{
layerId = "1456D5E5-B8FF-4D35-B4CF-CE3708A5ECC4";
paths = (
{
nodes = (
"781 637 OFFCURVE",
"757 639 OFFCURVE",
"745 641 QCURVE SMOOTH",
"729 643 OFFCURVE",
"697 647 OFFCURVE",
"680 648 QCURVE",
"672 650 OFFCURVE",
"655 650 OFFCURVE",
"647 651 QCURVE SMOOTH",
"577 656 OFFCURVE",
"438 659 OFFCURVE",
"367 656 QCURVE",
"359 656 OFFCURVE",
"340 655 OFFCURVE",
"332 655 QCURVE",
"266 652 OFFCURVE",
"135 640 OFFCURVE",
"69 629 QCURVE",
"61 605 OFFCURVE",
"48 557 OFFCURVE",
"43 534 QCURVE",
"104 539 OFFCURVE",
"225 547 OFFCURVE",
"287 549 QCURVE",
"296 549 OFFCURVE",
"314 549 OFFCURVE",
"324 550 QCURVE",
"333 550 OFFCURVE",
"351 552 OFFCURVE",
"360 551 QCURVE",
"408 553 OFFCURVE",
"501 552 OFFCURVE",
"549 550 QCURVE",
"550 544 OFFCURVE",
"550 531 OFFCURVE",
"550 524 QCURVE SMOOTH",
"550 517 OFFCURVE",
"550 504 OFFCURVE",
"551 496 QCURVE",
"551 478 OFFCURVE",
"553 442 OFFCURVE",
"553 422 QCURVE SMOOTH",
"553 417 OFFCURVE",
"554 408 OFFCURVE",
"554 403 QCURVE SMOOTH",
"554 392 LINE",
"554 384 LINE",
"554 307 LINE",
"554 287 LINE",
"553 273 OFFCURVE",
"553 246 OFFCURVE",
"553 232 QCURVE",
"551 175 LINE",
"493 175 OFFCURVE",
"379 174 OFFCURVE",
"321 176 QCURVE",
"320 195 OFFCURVE",
"318 232 OFFCURVE",
"318 250 QCURVE",
"244 251 OFFCURVE",
"97 254 OFFCURVE",
"23 257 QCURVE",
"25 232 OFFCURVE",
"33 185 OFFCURVE",
"38 160 QCURVE",
"46 131 OFFCURVE",
"94 92 OFFCURVE",
"121 87 QCURVE",
"164 81 OFFCURVE",
"249 76 OFFCURVE",
"293 72 QCURVE",
"302 72 OFFCURVE",
"320 71 OFFCURVE",
"329 70 QCURVE SMOOTH",
"365 68 OFFCURVE",
"437 68 OFFCURVE",
"474 68 QCURVE",
"492 67 OFFCURVE",
"529 68 OFFCURVE",
"547 68 QCURVE",
"617 70 LINE",
"652 72 OFFCURVE",
"720 77 OFFCURVE",
"755 79 QCURVE",
"775 83 OFFCURVE",
"810 106 OFFCURVE",
"821 123 QCURVE",
"828 130 LINE",
"832 139 LINE",
"836 147 LINE",
"837 153 LINE SMOOTH",
"839 162 OFFCURVE",
"842 179 OFFCURVE",
"844 187 QCURVE",
"851 255 LINE",
"852 265 LINE",
"852 274 LINE",
"853 284 LINE",
"854 290 LINE",
"853 304 OFFCURVE",
"856 332 OFFCURVE",
"855 346 QCURVE",
"855 355 OFFCURVE",
"854 373 OFFCURVE",
"854 381 QCURVE",
"853 395 OFFCURVE",
"852 421 OFFCURVE",
"850 434 QCURVE",
"850 441 OFFCURVE",
"847 454 OFFCURVE",
"847 461 QCURVE SMOOTH",
"847 469 LINE",
"845 477 OFFCURVE",
"842 493 OFFCURVE",
"840 502 QCURVE",
"839 515 LINE",
"837 529 OFFCURVE",
"831 554 OFFCURVE",
"827 568 QCURVE SMOOTH",
"826 573 OFFCURVE",
"823 582 OFFCURVE",
"822 587 QCURVE SMOOTH",
"818 603 LINE",
"816 612 LINE",
"814 617 LINE",
"809 632 LINE",
"805 633 OFFCURVE",
"798 632 OFFCURVE",
"793 633 QCURVE SMOOTH"
);
},
{
nodes = (
"852 564 LINE",
"873 564 LINE",
"880 541 LINE",
"882 534 LINE",
"884 525 LINE",
"888 511 LINE",
"888 503 OFFCURVE",
"889 502 QCURVE",
"892 493 LINE",
"897 476 OFFCURVE",
"903 450 OFFCURVE",
"905 439 QCURVE",
"906 426 LINE",
"909 410 LINE SMOOTH",
"910 404 OFFCURVE",
"911 394 OFFCURVE",
"913 391 QCURVE",
"913 383 LINE SMOOTH",
"913 375 OFFCURVE",
"914 371 QCURVE SMOOTH",
"916 363 OFFCURVE",
"916 358 QCURVE SMOOTH",
"916 353 OFFCURVE",
"918 326 OFFCURVE",
"919 316 QCURVE",
"919 313 OFFCURVE",
"920 306 OFFCURVE",
"920 303 QCURVE SMOOTH",
"920 286 LINE SMOOTH",
"920 281 OFFCURVE",
"921 273 OFFCURVE",
"921 268 QCURVE SMOOTH",
"921 261 OFFCURVE",
"920 246 OFFCURVE",
"920 239 QCURVE",
"918 225 OFFCURVE",
"920 213 QCURVE",
"919 206 LINE",
"918 196 LINE",
"918 187 LINE",
"917 176 LINE",
"910 106 LINE",
"907 92 LINE",
"903 75 LINE",
"903 73 OFFCURVE",
"902 68 OFFCURVE",
"902 67 QCURVE",
"897 57 LINE",
"897 58 LINE",
"892 46 LINE",
"884 38 LINE",
"871 20 OFFCURVE",
"834 -5 OFFCURVE",
"814 -9 QCURVE",
"797 -10 OFFCURVE",
"760 -12 OFFCURVE",
"743 -14 QCURVE SMOOTH",
"726 -16 OFFCURVE",
"690 -17 OFFCURVE",
"673 -18 QCURVE",
"603 -20 LINE",
"579 -20 LINE SMOOTH",
"567 -20 OFFCURVE",
"541 -21 OFFCURVE",
"529 -20 QCURVE",
"492 -20 OFFCURVE",
"419 -20 OFFCURVE",
"384 -18 QCURVE SMOOTH",
"375 -17 OFFCURVE",
"357 -16 OFFCURVE",
"348 -16 QCURVE",
"334 -14 OFFCURVE",
"305 -13 OFFCURVE",
"291 -12 QCURVE SMOOTH",
"262 -10 OFFCURVE",
"204 -5 OFFCURVE",
"175 -1 QCURVE",
"145 5 OFFCURVE",
"92 47 OFFCURVE",
"84 79 QCURVE SMOOTH",
"81 91 LINE",
"62 102 OFFCURVE",
"33 135 OFFCURVE",
"28 157 QCURVE SMOOTH",
"18 203 OFFCURVE",
"12 267 QCURVE",
"86 264 OFFCURVE",
"254 261 OFFCURVE",
"328 260 QCURVE",
"328 248 OFFCURVE",
"329 213 OFFCURVE",
"330 201 QCURVE",
"330 195 OFFCURVE",
"331 192 OFFCURVE",
"331 186 QCURVE",
"373 185 OFFCURVE",
"451 185 OFFCURVE",
"493 185 QCURVE SMOOTH",
"541 185 LINE",
"542 196 OFFCURVE",
"543 221 OFFCURVE",
"543 232 QCURVE SMOOTH",
"543 246 OFFCURVE",
"543 274 OFFCURVE",
"544 288 QCURVE",
"544 403 LINE SMOOTH",
"544 406 OFFCURVE",
"543 411 OFFCURVE",
"543 413 QCURVE",
"543 422 LINE SMOOTH",
"543 431 OFFCURVE",
"543 450 OFFCURVE",
"542 459 QCURVE",
"542 463 LINE",
"528 464 OFFCURVE",
"502 464 OFFCURVE",
"488 464 QCURVE SMOOTH",
"470 464 OFFCURVE",
"433 464 OFFCURVE",
"415 463 QCURVE",
"394 463 LINE SMOOTH",
"390 463 OFFCURVE",
"385 462 OFFCURVE",
"381 462 QCURVE",
"373 461 OFFCURVE",
"351 461 OFFCURVE",
"343 461 QCURVE",
"281 459 OFFCURVE",
"147 450 OFFCURVE",
"86 445 QCURVE",
"95 488 OFFCURVE",
"107 529 QCURVE",
"30 523 LINE",
"37 554 OFFCURVE",
"53 611 OFFCURVE",
"61 638 QCURVE",
"130 649 OFFCURVE",
"264 662 OFFCURVE",
"332 665 QCURVE",
"349 665 LINE SMOOTH",
"354 665 OFFCURVE",
"362 666 OFFCURVE",
"367 666 QCURVE",
"389 667 OFFCURVE",
"441 668 OFFCURVE",
"463 668 QCURVE SMOOTH",
"508 668 OFFCURVE",
"603 665 OFFCURVE",
"648 661 QCURVE",
"650 661 OFFCURVE",
"656 660 OFFCURVE",
"658 660 QCURVE",
"663 660 OFFCURVE",
"676 659 OFFCURVE",
"681 658 QCURVE SMOOTH",
"692 657 OFFCURVE",
"714 656 OFFCURVE",
"722 654 QCURVE",
"721 654 LINE",
"746 651 LINE",
"748 651 OFFCURVE",
"753 650 OFFCURVE",
"755 650 QCURVE",
"780 648 OFFCURVE",
"796 643 QCURVE",
"796 642 LINE",
"817 642 LINE",
"824 619 LINE",
"826 612 LINE",
"828 603 LINE",
"832 589 LINE",
"832 581 OFFCURVE",
"833 580 QCURVE",
"836 571 LINE",
"836 569 LINE",
"852 565 LINE"
);
}
);
width = 933;
}
);
unicode = 004A;
},
{
glyphname = L;
layers = (
{
layerId = "1456D5E5-B8FF-4D35-B4CF-CE3708A5ECC4";
paths = (
{
nodes = (
"721 177 OFFCURVE",
"460 174 OFFCURVE",
"329 176 QCURVE",
"321 297 OFFCURVE",
"328 534 OFFCURVE",
"339 655 QCURVE",
"273 652 OFFCURVE",
"142 640 OFFCURVE",
"76 629 QCURVE",
"32 504 OFFCURVE",
"20 238 OFFCURVE",
"58 110 QCURVE",
"57 110 LINE",
"62 96 LINE",
"253 70 OFFCURVE",
"636 66 OFFCURVE",
"828 89 QCURVE",
"836 113 OFFCURVE",
"847 161 OFFCURVE",
"852 187 QCURVE"
);
},
{
nodes = (
"918 107 LINE",
"913 81 OFFCURVE",
"901 30 OFFCURVE",
"892 2 QCURVE",
"799 -9 OFFCURVE",
"617 -20 OFFCURVE",
"527 -20 QCURVE SMOOTH",
"423 -20 OFFCURVE",
"216 -6 OFFCURVE",
"110 9 QCURVE",
"104 30 LINE",
"104 29 LINE",
"99 42 OFFCURVE",
"93 68 OFFCURVE",
"90 82 QCURVE",
"81 83 OFFCURVE",
"63 85 OFFCURVE",
"54 87 QCURVE",
"48 108 LINE",
"48 107 LINE",
"31 162 OFFCURVE",
"15 277 OFFCURVE",
"15 336 QCURVE SMOOTH",
"15 411 OFFCURVE",
"43 563 OFFCURVE",
"69 638 QCURVE",
"203 659 OFFCURVE",
"350 665 QCURVE",
"348 644 OFFCURVE",
"345 603 OFFCURVE",
"343 583 QCURVE",
"359 585 OFFCURVE",
"390 586 OFFCURVE",
"406 587 QCURVE",
"398 502 OFFCURVE",
"390 340 OFFCURVE",
"390 262 QCURVE SMOOTH",
"390 185 LINE",
"413 184 OFFCURVE",
"458 185 OFFCURVE",
"481 185 QCURVE SMOOTH",
"575 185 OFFCURVE",
"758 190 OFFCURVE",
"851 197 QCURVE",
"862 185 LINE",
"858 167 OFFCURVE",
"851 132 OFFCURVE",
"846 115 QCURVE",
"861 116 OFFCURVE",
"892 117 OFFCURVE",
"907 119 QCURVE"
);
}
);
width = 934;
}
);
unicode = 004C;
},
{
glyphname = M;
layers = (
{
layerId = "1456D5E5-B8FF-4D35-B4CF-CE3708A5ECC4";
paths = (
{
nodes = (
"744 642 OFFCURVE",
"611 654 OFFCURVE",
"544 656 QCURVE",
"518 621 OFFCURVE",
"464 551 OFFCURVE",
"436 516 QCURVE",
"410 550 OFFCURVE",
"359 620 OFFCURVE",
"333 655 QCURVE",
"267 652 OFFCURVE",
"136 640 OFFCURVE",
"70 629 QCURVE",
"24 500 OFFCURVE",
"15 227 OFFCURVE",
"57 96 QCURVE",
"125 85 OFFCURVE",
"261 73 OFFCURVE",
"330 70 QCURVE",
"322 173 OFFCURVE",
"316 376 OFFCURVE",
"321 479 QCURVE",
"350 441 OFFCURVE",
"407 365 OFFCURVE",
"436 327 QCURVE",
"465 365 OFFCURVE",
"524 440 OFFCURVE",
"553 479 QCURVE",
"556 376 OFFCURVE",
"554 171 OFFCURVE",
"548 68 QCURVE",
"617 70 OFFCURVE",
"753 79 OFFCURVE",
"821 89 QCURVE",
"859 223 OFFCURVE",
"852 500 OFFCURVE",
"810 632 QCURVE"
);
},
{
nodes = (
"876 557 LINE",
"899 485 OFFCURVE",
"922 337 OFFCURVE",
"922 260 QCURVE SMOOTH",
"922 196 OFFCURVE",
"903 67 OFFCURVE",
"885 2 QCURVE",
"814 -8 OFFCURVE",
"669 -18 OFFCURVE",
"593 -20 QCURVE",
"597 59 LINE",
"582 58 OFFCURVE",
"552 58 OFFCURVE",
"537 58 QCURVE",
"540 116 OFFCURVE",
"544 240 OFFCURVE",
"545 300 QCURVE",
"544 299 LINE",
"533 285 OFFCURVE",
"503 247 OFFCURVE",
"492 233 QCURVE",
"475 255 OFFCURVE",
"435 309 OFFCURVE",
"418 331 QCURVE SMOOTH",
"385 373 LINE",
"384 347 OFFCURVE",
"384 298 OFFCURVE",
"384 272 QCURVE SMOOTH",
"384 203 OFFCURVE",
"390 58 OFFCURVE",
"397 -18 QCURVE",
"241 -12 OFFCURVE",
"105 9 QCURVE",
"99 27 OFFCURVE",
"90 63 OFFCURVE",
"85 81 QCURVE",
"49 87 LINE",
"10 211 OFFCURVE",
"10 340 QCURVE SMOOTH",
"10 490 OFFCURVE",
"63 638 QCURVE",
"200 659 OFFCURVE",
"338 665 QCURVE",
"346 654 OFFCURVE",
"365 628 OFFCURVE",
"373 617 QCURVE SMOOTH",
"395 586 LINE",
"395 585 OFFCURVE",
"396 584 QCURVE",
"401 578 LINE",
"403 574 OFFCURVE",
"405 572 QCURVE SMOOTH",
"412 562 OFFCURVE",
"427 543 OFFCURVE",
"436 532 QCURVE",
"462 565 OFFCURVE",
"514 632 OFFCURVE",
"539 666 QCURVE",
"610 664 OFFCURVE",
"745 652 OFFCURVE",
"811 642 QCURVE",
"820 635 LINE",
"831 601 OFFCURVE",
"838 568 QCURVE",
"867 564 LINE"
);
}
);
width = 933;
}
);
unicode = 004D;
},
{
glyphname = N;
layers = (
{
layerId = "1456D5E5-B8FF-4D35-B4CF-CE3708A5ECC4";
paths = (
{
nodes = (
"744 642 OFFCURVE",
"611 654 OFFCURVE",
"544 656 QCURVE",
"550 563 OFFCURVE",
"557 377 OFFCURVE",
"555 283 QCURVE",
"500 377 OFFCURVE",
"384 558 OFFCURVE",
"333 655 QCURVE",
"267 652 OFFCURVE",
"136 640 OFFCURVE",
"70 629 QCURVE",
"24 500 OFFCURVE",
"15 227 OFFCURVE",
"57 96 QCURVE",
"125 85 OFFCURVE",
"261 73 OFFCURVE",
"330 70 QCURVE",
"322 164 OFFCURVE",
"315 351 OFFCURVE",
"320 446 QCURVE",
"324 441 OFFCURVE",
"329 428 OFFCURVE",
"332 421 QCURVE",
"346 397 OFFCURVE",
"376 351 OFFCURVE",
"390 327 QCURVE SMOOTH",
"429 261 OFFCURVE",
"511 135 OFFCURVE",
"548 68 QCURVE",
"617 70 OFFCURVE",
"753 79 OFFCURVE",
"821 89 QCURVE",
"859 223 OFFCURVE",
"852 500 OFFCURVE",
"810 632 QCURVE"
);
},
{
nodes = (
"876 557 LINE",
"899 485 OFFCURVE",
"922 337 OFFCURVE",
"922 260 QCURVE SMOOTH",
"922 196 OFFCURVE",
"903 67 OFFCURVE",
"885 2 QCURVE",
"814 -9 OFFCURVE",
"672 -18 OFFCURVE",
"598 -20 QCURVE",
"553 58 LINE",
"542 58 LINE",
"519 99 OFFCURVE",
"469 183 OFFCURVE",
"444 222 QCURVE SMOOTH",
"429 245 OFFCURVE",
"398 293 OFFCURVE",
"384 317 QCURVE",
"383 303 OFFCURVE",
"384 278 OFFCURVE",
"384 264 QCURVE SMOOTH",
"384 195 OFFCURVE",
"392 51 OFFCURVE",
"397 -18 QCURVE",
"241 -12 OFFCURVE",
"105 9 QCURVE",
"99 27 OFFCURVE",
"90 63 OFFCURVE",
"85 81 QCURVE",
"49 87 LINE",
"10 211 OFFCURVE",
"10 340 QCURVE SMOOTH",
"10 490 OFFCURVE",
"63 638 QCURVE",
"198 659 OFFCURVE",
"339 665 QCURVE",
"350 645 OFFCURVE",
"371 606 OFFCURVE",
"382 586 QCURVE",
"385 586 OFFCURVE",
"392 587 OFFCURVE",
"395 587 QCURVE",
"427 528 OFFCURVE",
"497 410 OFFCURVE",
"532 353 QCURVE SMOOTH",
"545 332 LINE",
"545 339 LINE SMOOTH",
"545 419 OFFCURVE",
"538 587 OFFCURVE",
"533 666 QCURVE",
"608 664 OFFCURVE",
"745 652 OFFCURVE",
"811 642 QCURVE",
"820 635 LINE",
"825 618 OFFCURVE",
"834 585 OFFCURVE",
"838 568 QCURVE",
"846 566 OFFCURVE",
"859 565 OFFCURVE",
"867 564 QCURVE"
);
}
);
width = 933;
}
);
unicode = 004E;
},
{
glyphname = O;
layers = (
{
layerId = "1456D5E5-B8FF-4D35-B4CF-CE3708A5ECC4";
paths = (
{
nodes = (
"707 645 OFFCURVE",
"690 646 OFFCURVE",
"682 648 QCURVE",
"665 650 LINE",
"654 650 OFFCURVE",
"649 651 QCURVE",
"544 659 OFFCURVE",
"337 658 OFFCURVE",
"233 649 QCURVE",
"166 642 LINE SMOOTH",
"158 641 OFFCURVE",
"142 639 OFFCURVE",
"134 638 QCURVE",
"96 630 OFFCURVE",
"71 598 QCURVE SMOOTH",
"65 591 OFFCURVE",
"57 576 OFFCURVE",
"53 568 QCURVE",
"37 501 LINE SMOOTH",
"35 492 OFFCURVE",
"32 476 OFFCURVE",
"30 468 QCURVE",
"27 447 OFFCURVE",
"23 404 OFFCURVE",
"21 381 QCURVE",
"21 373 OFFCURVE",
"19 355 OFFCURVE",
"20 346 QCURVE",
"19 324 OFFCURVE",
"23 279 OFFCURVE",
"25 257 QCURVE SMOOTH",
"27 232 OFFCURVE",
"35 185 OFFCURVE",
"40 160 QCURVE",
"48 131 OFFCURVE",
"96 92 OFFCURVE",
"123 87 QCURVE",
"184 80 OFFCURVE",
"305 71 OFFCURVE",
"366 69 QCURVE SMOOTH",
"439 67 OFFCURVE",
"582 69 OFFCURVE",
"654 72 QCURVE",
"663 73 OFFCURVE",
"681 75 OFFCURVE",
"689 75 QCURVE",
"698 76 OFFCURVE",
"715 77 OFFCURVE",
"723 77 QCURVE SMOOTH",
"732 77 OFFCURVE",
"749 79 OFFCURVE",
"757 79 QCURVE",
"785 86 OFFCURVE",
"831 125 OFFCURVE",
"839 153 QCURVE",
"857 247 OFFCURVE",
"857 346 QCURVE SMOOTH",
"857 355 OFFCURVE",
"856 373 OFFCURVE",
"856 381 QCURVE",
"854 420 OFFCURVE",
"844 497 OFFCURVE",
"836 536 QCURVE SMOOTH",
"834 544 OFFCURVE",
"831 560 OFFCURVE",
"829 568 QCURVE SMOOTH",
"826 576 OFFCURVE",
"818 593 OFFCURVE",
"811 600 QCURVE",
"800 617 OFFCURVE",
"767 639 OFFCURVE",
"747 641 QCURVE",
"739 641 OFFCURVE",
"723 644 OFFCURVE",
"715 644 QCURVE"
);
},
{
nodes = (
"553 175 LINE",
"495 175 OFFCURVE",
"381 174 OFFCURVE",
"323 176 QCURVE",
"322 181 OFFCURVE",
"322 191 OFFCURVE",
"322 196 QCURVE",
"321 209 OFFCURVE",
"320 237 OFFCURVE",
"320 250 QCURVE",
"318 308 OFFCURVE",
"320 422 OFFCURVE",
"322 479 QCURVE SMOOTH",
"323 493 OFFCURVE",
"325 520 OFFCURVE",
"325 535 QCURVE SMOOTH",
"325 545 OFFCURVE",
"326 550 QCURVE",
"383 552 OFFCURVE",
"494 552 OFFCURVE",
"551 550 QCURVE",
"553 508 OFFCURVE",
"556 426 OFFCURVE",
"556 384 QCURVE",
"557 346 OFFCURVE",
"556 270 OFFCURVE",
"555 232 QCURVE SMOOTH"
);
},
{
nodes = (
"715 654 LINE",
"721 654 OFFCURVE",
"730 653 OFFCURVE",
"734 652 QCURVE SMOOTH",
"739 651 OFFCURVE",
"748 651 QCURVE",
"793 647 OFFCURVE",
"818 607 QCURVE",
"825 599 OFFCURVE",
"835 577 OFFCURVE",
"840 566 QCURVE",
"840 561 LINE",
"860 551 OFFCURVE",
"874 529 QCURVE",
"881 521 OFFCURVE",
"891 499 OFFCURVE",
"896 488 QCURVE",
"898 476 LINE",
"902 460 LINE",
"919 381 OFFCURVE",
"922 303 QCURVE",
"922 286 LINE SMOOTH",
"922 281 OFFCURVE",
"923 273 OFFCURVE",
"923 268 QCURVE SMOOTH",
"923 166 OFFCURVE",
"905 72 QCURVE",
"897 42 OFFCURVE",
"846 -1 OFFCURVE",
"815 -9 QCURVE",
"811 -9 OFFCURVE",
"803 -10 OFFCURVE",
"799 -10 QCURVE",
"794 -11 OFFCURVE",
"784 -11 OFFCURVE",
"779 -11 QCURVE SMOOTH",
"771 -11 OFFCURVE",
"756 -12 OFFCURVE",
"745 -13 QCURVE",
"740 -13 OFFCURVE",
"729 -14 OFFCURVE",
"723 -15 QCURVE",
"720 -15 OFFCURVE",
"713 -16 OFFCURVE",
"710 -16 QCURVE",
"663 -18 OFFCURVE",
"565 -20 OFFCURVE",
"518 -20 QCURVE SMOOTH",
"494 -20 OFFCURVE",
"446 -20 OFFCURVE",
"422 -19 QCURVE SMOOTH",
"360 -17 OFFCURVE",
"235 -8 OFFCURVE",
"176 -1 QCURVE",
"147 5 OFFCURVE",
"94 47 OFFCURVE",
"86 79 QCURVE SMOOTH",
"83 91 LINE",
"64 102 OFFCURVE",
"35 135 OFFCURVE",
"30 157 QCURVE SMOOTH",
"25 180 OFFCURVE",
"17 230 OFFCURVE",
"15 256 QCURVE SMOOTH",
"13 276 OFFCURVE",
"9 324 OFFCURVE",
"10 345 QCURVE",
"10 368 LINE SMOOTH",
"10 372 OFFCURVE",
"11 379 OFFCURVE",
"11 382 QCURVE",
"14 409 LINE SMOOTH",
"16 423 OFFCURVE",
"18 453 OFFCURVE",
"20 467 QCURVE",
"24 487 LINE",
"27 503 LINE",
"43 570 LINE",
"43 568 LINE",
"43 570 OFFCURVE",
"45 572 OFFCURVE",
"45 573 QCURVE",
"49 581 OFFCURVE",
"58 599 OFFCURVE",
"63 605 QCURVE",
"63 604 LINE",
"77 621 OFFCURVE",
"111 644 OFFCURVE",
"132 648 QCURVE",
"138 648 OFFCURVE",
"148 650 QCURVE",
"166 652 LINE",
"165 652 LINE",
"232 659 LINE",
"340 668 OFFCURVE",
"450 668 QCURVE SMOOTH",
"500 668 OFFCURVE",
"602 665 OFFCURVE",
"652 661 QCURVE",
"657 660 OFFCURVE",
"665 660 QCURVE",
"684 658 LINE",
"691 658 OFFCURVE",
"708 655 OFFCURVE",
"714 654 QCURVE"
);
},
{
nodes = (
"545 232 LINE SMOOTH",
"546 259 OFFCURVE",
"546 312 OFFCURVE",
"546 339 QCURVE SMOOTH",
"546 384 LINE SMOOTH",
"546 405 OFFCURVE",
"546 444 OFFCURVE",
"545 464 QCURVE",
"505 464 LINE SMOOTH",
"474 464 OFFCURVE",
"422 463 OFFCURVE",
"391 462 QCURVE",
"391 457 LINE SMOOTH",
"391 446 OFFCURVE",
"390 425 OFFCURVE",
"389 417 QCURVE",
"389 414 OFFCURVE",
"388 405 OFFCURVE",
"388 401 QCURVE SMOOTH",
"388 393 OFFCURVE",
"387 377 OFFCURVE",
"387 369 QCURVE",
"386 338 OFFCURVE",
"384 277 OFFCURVE",
"384 245 QCURVE SMOOTH",
"384 230 OFFCURVE",
"384 200 OFFCURVE",
"385 185 QCURVE",
"413 184 OFFCURVE",
"467 185 OFFCURVE",
"495 185 QCURVE SMOOTH",
"543 185 LINE"
);
}
);
width = 933;
}
);
unicode = 004F;
},
{
glyphname = P;
layers = (
{
layerId = "1456D5E5-B8FF-4D35-B4CF-CE3708A5ECC4";
paths = (
{
nodes = (
"794 622 OFFCURVE",
"823 589 OFFCURVE",
"829 568 QCURVE",
"851 477 OFFCURVE",
"856 380 QCURVE",
"855 371 OFFCURVE",
"852 352 OFFCURVE",
"847 344 QCURVE",
"839 326 OFFCURVE",
"803 308 OFFCURVE",
"783 307 QCURVE",
"667 306 OFFCURVE",
"436 306 OFFCURVE",
"320 306 QCURVE",
"320 246 OFFCURVE",
"326 130 OFFCURVE",
"331 70 QCURVE",
"262 73 OFFCURVE",
"126 85 OFFCURVE",
"58 96 QCURVE",
"16 227 OFFCURVE",
"25 500 OFFCURVE",
"71 629 QCURVE",
"409 680 OFFCURVE",
"747 641 QCURVE SMOOTH",
"762 639 OFFCURVE",
"774 632 QCURVE SMOOTH"
);
},
{
nodes = (
"494 552 OFFCURVE",
"383 552 OFFCURVE",
"326 550 QCURVE",
"324 518 OFFCURVE",
"321 454 OFFCURVE",
"320 421 QCURVE",
"380 422 OFFCURVE",
"495 424 OFFCURVE",
"555 422 QCURVE",
"554 455 OFFCURVE",
"553 518 OFFCURVE",
"551 550 QCURVE"
);
},
{
nodes = (
"779 640 LINE",
"763 650 OFFCURVE",
"748 651 QCURVE",
"676 659 OFFCURVE",
"528 668 OFFCURVE",
"454 668 QCURVE SMOOTH",
"262 668 OFFCURVE",
"64 638 QCURVE",
"11 490 OFFCURVE",
"11 340 QCURVE SMOOTH",
"11 211 OFFCURVE",
"50 87 QCURVE",
"86 81 LINE",
"91 63 OFFCURVE",
"100 27 OFFCURVE",
"106 9 QCURVE",
"242 -12 OFFCURVE",
"398 -18 QCURVE",
"393 39 OFFCURVE",
"387 161 OFFCURVE",
"386 218 QCURVE",
"502 218 OFFCURVE",
"723 218 OFFCURVE",
"839 219 QCURVE",
"861 220 OFFCURVE",
"902 241 OFFCURVE",
"912 262 QCURVE",
"911 261 LINE",
"918 272 OFFCURVE",
"921 292 OFFCURVE",
"922 301 QCURVE",
"917 402 OFFCURVE",
"895 492 QCURVE",
"889 513 OFFCURVE",
"861 547 OFFCURVE",
"842 558 QCURVE",
"839 570 LINE",
"832 593 OFFCURVE",
"800 630 OFFCURVE",
"778 641 QCURVE"
);
},
{
nodes = (
"525 434 OFFCURVE",
"496 433 OFFCURVE",
"476 433 QCURVE SMOOTH",
"456 433 OFFCURVE",
"411 433 OFFCURVE",
"390 432 QCURVE",
"390 440 OFFCURVE",
"391 454 OFFCURVE",
"392 462 QCURVE",
"423 463 OFFCURVE",
"474 464 OFFCURVE",
"505 464 QCURVE SMOOTH",
"544 464 LINE",
"544 454 LINE SMOOTH",
"544 449 OFFCURVE",
"545 438 OFFCURVE",
"545 433 QCURVE"
);
}
);
width = 933;
}
);
unicode = 0050;
},
{
glyphname = Q;
layers = (
{
layerId = "1456D5E5-B8FF-4D35-B4CF-CE3708A5ECC4";
paths = (
{
nodes = (
"689 643 LINE",
"682 644 LINE",
"674 645 LINE",
"664 646 LINE",
"655 647 LINE",
"649 647 LINE",
"545 658 OFFCURVE",
"337 656 OFFCURVE",
"233 647 QCURVE",
"216 644 OFFCURVE",
"183 641 OFFCURVE",
"166 639 QCURVE SMOOTH",
"158 638 OFFCURVE",
"142 634 OFFCURVE",
"134 633 QCURVE",
"107 627 OFFCURVE",
"64 588 OFFCURVE",
"56 561 QCURVE",
"53 544 OFFCURVE",
"45 512 OFFCURVE",
"41 495 QCURVE SMOOTH",
"39 487 OFFCURVE",
"37 471 OFFCURVE",
"36 463 QCURVE SMOOTH",
"35 457 OFFCURVE",
"32 448 OFFCURVE",
"32 443 QCURVE",
"26 395 OFFCURVE",
"19 302 OFFCURVE",
"21 254 QCURVE",
"20 228 OFFCURVE",
"26 177 OFFCURVE",
"28 151 QCURVE",
"33 122 OFFCURVE",
"78 81 OFFCURVE",
"107 78 QCURVE SMOOTH",
"152 74 OFFCURVE",
"242 68 OFFCURVE",
"288 67 QCURVE",
"287 58 OFFCURVE",
"289 41 OFFCURVE",
"289 32 QCURVE",
"291 14 OFFCURVE",
"293 -21 OFFCURVE",
"295 -38 QCURVE",
"367 -44 OFFCURVE",
"511 -45 OFFCURVE",
"583 -42 QCURVE",
"584 -25 OFFCURVE",
"587 11 OFFCURVE",
"588 29 QCURVE SMOOTH",
"589 38 OFFCURVE",
"590 56 OFFCURVE",
"590 65 QCURVE",
"664 67 LINE",
"673 67 OFFCURVE",
"691 68 OFFCURVE",
"701 68 QCURVE",
"709 70 OFFCURVE",
"727 70 OFFCURVE",
"737 70 QCURVE",
"745 72 OFFCURVE",
"761 72 OFFCURVE",
"771 73 QCURVE SMOOTH",
"800 77 OFFCURVE",
"848 119 OFFCURVE",
"851 148 QCURVE",
"851 157 OFFCURVE",
"851 174 OFFCURVE",
"853 182 QCURVE",
"855 222 OFFCURVE",
"858 300 OFFCURVE",
"855 341 QCURVE",
"856 349 OFFCURVE",
"855 364 OFFCURVE",
"854 372 QCURVE SMOOTH",
"852 391 OFFCURVE",
"849 426 OFFCURVE",
"847 443 QCURVE SMOOTH",
"844 465 OFFCURVE",
"838 508 OFFCURVE",
"832 528 QCURVE SMOOTH",
"830 537 OFFCURVE",
"828 553 OFFCURVE",
"826 561 QCURVE SMOOTH",
"818 588 OFFCURVE",
"776 631 OFFCURVE",
"747 636 QCURVE SMOOTH",
"739 637 OFFCURVE",
"723 639 OFFCURVE",
"715 641 QCURVE"
);
},
{
nodes = (
"324 477 LINE",
"324 490 OFFCURVE",
"326 517 OFFCURVE",
"327 530 QCURVE",
"327 548 LINE",
"383 550 OFFCURVE",
"494 551 OFFCURVE",
"550 549 QCURVE",
"551 526 OFFCURVE",
"553 478 OFFCURVE",
"553 455 QCURVE",
"554 437 OFFCURVE",
"555 398 OFFCURVE",
"555 379 QCURVE",
"556 327 OFFCURVE",
"556 226 OFFCURVE",
"556 174 QCURVE",
"438 173 OFFCURVE",
"320 174 QCURVE",
"320 184 LINE",
"320 193 LINE SMOOTH",
"320 207 OFFCURVE",
"319 235 OFFCURVE",
"320 249 QCURVE",
"318 300 OFFCURVE",
"320 404 OFFCURVE",
"322 455 QCURVE"
);
},
{
nodes = (
"717 651 LINE",
"725 649 OFFCURVE",
"741 647 OFFCURVE",
"750 646 QCURVE SMOOTH",
"781 641 OFFCURVE",
"828 593 OFFCURVE",
"836 563 QCURVE",
"836 560 OFFCURVE",
"838 556 QCURVE",
"879 530 OFFCURVE",
"892 485 QCURVE SMOOTH",
"894 479 OFFCURVE",
"896 468 OFFCURVE",
"897 460 QCURVE",
"897 453 LINE",
"903 433 OFFCURVE",
"909 397 OFFCURVE",
"911 380 QCURVE SMOOTH",
"913 366 LINE SMOOTH",
"915 349 OFFCURVE",
"918 313 OFFCURVE",
"920 295 QCURVE SMOOTH",
"921 288 OFFCURVE",
"922 272 OFFCURVE",
"921 264 QCURVE",
"922 251 OFFCURVE",
"923 220 OFFCURVE",
"923 208 QCURVE SMOOTH",
"923 182 OFFCURVE",
"921 128 OFFCURVE",
"919 102 QCURVE",
"917 94 OFFCURVE",
"917 77 OFFCURVE",
"917 69 QCURVE",
"913 36 OFFCURVE",
"860 -11 OFFCURVE",
"828 -15 QCURVE",
"825 -15 OFFCURVE",
"818 -16 OFFCURVE",
"816 -16 QCURVE",
"811 -16 OFFCURVE",
"800 -17 OFFCURVE",
"794 -18 QCURVE",
"785 -18 OFFCURVE",
"767 -18 OFFCURVE",
"759 -20 QCURVE",
"754 -20 OFFCURVE",
"743 -21 OFFCURVE",
"738 -21 QCURVE SMOOTH",
"720 -21 LINE",
"656 -23 LINE",
"656 -30 OFFCURVE",
"655 -43 OFFCURVE",
"654 -50 QCURVE SMOOTH",
"651 -87 LINE SMOOTH",
"650 -96 OFFCURVE",
"649 -114 OFFCURVE",
"649 -129 QCURVE",
"619 -131 OFFCURVE",
"550 -133 OFFCURVE",
"520 -133 QCURVE SMOOTH",
"478 -133 OFFCURVE",
"390 -130 OFFCURVE",
"341 -125 QCURVE",
"339 -92 LINE SMOOTH",
"338 -81 OFFCURVE",
"337 -62 OFFCURVE",
"335 -51 QCURVE",
"285 -47 LINE",
"283 -19 LINE",
"252 -17 OFFCURVE",
"191 -12 OFFCURVE",
"162 -10 QCURVE SMOOTH",
"130 -7 OFFCURVE",
"79 39 OFFCURVE",
"74 71 QCURVE SMOOTH",
"73 77 LINE",
"52 88 OFFCURVE",
"22 126 OFFCURVE",
"18 149 QCURVE",
"16 175 LINE",
"14 191 OFFCURVE",
"11 237 OFFCURVE",
"11 253 QCURVE",
"10 261 OFFCURVE",
"10 280 OFFCURVE",
"10 288 QCURVE SMOOTH",
"10 327 OFFCURVE",
"17 406 OFFCURVE",
"22 444 QCURVE",
"22 450 OFFCURVE",
"24 456 QCURVE SMOOTH",
"26 462 OFFCURVE",
"26 464 QCURVE",
"27 473 OFFCURVE",
"29 491 OFFCURVE",
"31 498 QCURVE",
"31 497 LINE",
"37 524 LINE SMOOTH",
"39 534 OFFCURVE",
"44 555 OFFCURVE",
"46 565 QCURVE",
"55 594 OFFCURVE",
"102 636 OFFCURVE",
"132 643 QCURVE",
"136 643 OFFCURVE",
"144 645 OFFCURVE",
"148 646 QCURVE SMOOTH",
"163 649 LINE",
"192 652 LINE SMOOTH",
"202 653 OFFCURVE",
"221 655 OFFCURVE",
"231 657 QCURVE",
"285 662 OFFCURVE",
"393 667 OFFCURVE",
"449 667 QCURVE SMOOTH",
"500 667 OFFCURVE",
"601 662 OFFCURVE",
"650 657 QCURVE",
"655 657 LINE",
"664 656 LINE",
"674 655 LINE",
"682 654 LINE",
"689 653 LINE",
"715 651 LINE"
);
},
{
nodes = (
"388 377 LINE",
"388 370 OFFCURVE",
"387 356 OFFCURVE",
"387 349 QCURVE",
"386 321 OFFCURVE",
"384 265 OFFCURVE",
"384 236 QCURVE SMOOTH",
"384 222 OFFCURVE",
"384 196 OFFCURVE",
"385 183 QCURVE",
"438 183 LINE SMOOTH",
"467 183 OFFCURVE",
"516 183 OFFCURVE",
"546 184 QCURVE",
"546 235 OFFCURVE",
"546 328 OFFCURVE",
"545 379 QCURVE",
"545 398 OFFCURVE",
"544 437 OFFCURVE",
"543 455 QCURVE",
"543 462 LINE",
"506 462 LINE SMOOTH",
"475 462 OFFCURVE",
"424 463 OFFCURVE",
"393 461 QCURVE",
"393 452 LINE SMOOTH",
"393 448 OFFCURVE",
"392 439 OFFCURVE",
"392 434 QCURVE",
"391 425 OFFCURVE",
"390 407 OFFCURVE",
"390 398 QCURVE"
);
}
);
width = 933;
}
);
unicode = 0051;
},
{
glyphname = R;
layers = (
{
layerId = "1456D5E5-B8FF-4D35-B4CF-CE3708A5ECC4";
paths = (
{
nodes = (
"674 650 OFFCURVE",
"657 650 OFFCURVE",
"649 651 QCURVE SMOOTH",
"579 656 OFFCURVE",
"440 659 OFFCURVE",
"369 656 QCURVE",
"361 656 OFFCURVE",
"342 655 OFFCURVE",
"334 655 QCURVE",
"272 652 OFFCURVE",
"150 641 OFFCURVE",
"89 631 QCURVE SMOOTH",
"84 630 OFFCURVE",
"76 629 OFFCURVE",
"71 629 QCURVE",
"66 613 LINE SMOOTH",
"25 492 OFFCURVE",
"16 235 OFFCURVE",
"53 110 QCURVE",
"58 96 LINE",
"62 96 OFFCURVE",
"69 94 OFFCURVE",
"73 93 QCURVE SMOOTH",
"138 83 OFFCURVE",
"266 74 OFFCURVE",
"331 70 QCURVE",
"326 130 OFFCURVE",
"320 246 OFFCURVE",
"320 306 QCURVE",
"358 306 LINE",
"476 306 LINE SMOOTH",
"496 306 OFFCURVE",
"536 307 OFFCURVE",
"556 306 QCURVE",
"556 287 LINE",
"555 273 OFFCURVE",
"554 245 OFFCURVE",
"555 231 QCURVE",
"553 157 OFFCURVE",
"549 87 QCURVE",
"549 76 LINE",
"549 68 LINE",
"601 70 OFFCURVE",
"704 75 OFFCURVE",
"757 79 QCURVE",
"774 81 OFFCURVE",
"806 85 OFFCURVE",
"822 89 QCURVE",
"829 113 OFFCURVE",
"841 161 OFFCURVE",
"846 187 QCURVE",
"853 255 LINE",
"853 264 LINE",
"854 273 LINE",
"855 283 LINE",
"856 290 LINE",
"856 305 OFFCURVE",
"845 332 OFFCURVE",
"825 352 OFFCURVE",
"798 363 OFFCURVE",
"784 363 QCURVE",
"798 363 OFFCURVE",
"824 374 OFFCURVE",
"844 393 OFFCURVE",
"854 419 OFFCURVE",
"852 434 QCURVE",
"852 441 OFFCURVE",
"850 453 OFFCURVE",
"849 460 QCURVE",
"849 469 LINE",
"847 477 OFFCURVE",
"844 493 OFFCURVE",
"842 502 QCURVE",
"841 515 LINE",
"839 529 OFFCURVE",
"833 554 OFFCURVE",
"829 568 QCURVE SMOOTH",
"821 595 OFFCURVE",
"776 637 OFFCURVE",
"747 641 QCURVE SMOOTH",
"731 643 OFFCURVE",
"699 647 OFFCURVE",
"682 648 QCURVE"
);
},
{
nodes = (
"552 516 OFFCURVE",
"553 503 OFFCURVE",
"553 495 QCURVE",
"555 422 LINE",
"535 423 OFFCURVE",
"496 421 OFFCURVE",
"476 422 QCURVE",
"359 422 LINE SMOOTH",
"348 422 OFFCURVE",
"330 421 OFFCURVE",
"320 421 QCURVE",
"321 454 OFFCURVE",
"324 518 OFFCURVE",
"326 550 QCURVE",
"335 550 OFFCURVE",
"353 552 OFFCURVE",
"362 551 QCURVE",
"410 553 OFFCURVE",
"503 552 OFFCURVE",
"551 550 QCURVE",
"552 543 OFFCURVE",
"551 531 OFFCURVE",
"552 523 QCURVE"
);
},
{
nodes = (
"694 657 OFFCURVE",
"715 656 OFFCURVE",
"724 654 QCURVE",
"723 654 LINE",
"748 651 LINE",
"780 646 OFFCURVE",
"830 600 OFFCURVE",
"839 571 QCURVE",
"842 559 LINE",
"861 548 OFFCURVE",
"889 513 OFFCURVE",
"895 493 QCURVE SMOOTH",
"899 480 OFFCURVE",
"905 455 OFFCURVE",
"907 439 QCURVE",
"908 426 LINE",
"911 410 LINE SMOOTH",
"912 404 OFFCURVE",
"913 394 OFFCURVE",
"915 391 QCURVE",
"915 382 LINE",
"915 380 OFFCURVE",
"916 377 OFFCURVE",
"916 375 QCURVE",
"918 365 OFFCURVE",
"918 357 QCURVE",
"920 334 OFFCURVE",
"896 296 OFFCURVE",
"877 285 QCURVE",
"897 274 OFFCURVE",
"922 235 OFFCURVE",
"922 212 QCURVE",
"922 210 OFFCURVE",
"921 207 OFFCURVE",
"921 205 QCURVE",
"920 194 LINE",
"919 185 LINE",
"919 176 LINE",
"912 106 LINE",
"908 85 OFFCURVE",
"894 31 OFFCURVE",
"886 3 QCURVE",
"867 -2 OFFCURVE",
"842 -5 OFFCURVE",
"830 -7 QCURVE SMOOTH",
"814 -9 LINE",
"762 -13 OFFCURVE",
"646 -18 OFFCURVE",
"595 -20 QCURVE",
"595 9 LINE",
"598 60 LINE",
"582 59 OFFCURVE",
"553 58 OFFCURVE",
"539 58 QCURVE",
"539 87 LINE",
"541 119 OFFCURVE",
"544 184 OFFCURVE",
"545 218 QCURVE",
"386 218 LINE",
"387 161 OFFCURVE",
"393 38 OFFCURVE",
"398 -19 QCURVE",
"329 -15 OFFCURVE",
"195 -5 OFFCURVE",
"128 5 QCURVE",
"126 5 OFFCURVE",
"125 6 OFFCURVE",
"124 6 QCURVE",
"118 8 OFFCURVE",
"106 8 QCURVE",
"99 30 LINE",
"99 29 LINE",
"95 42 OFFCURVE",
"88 67 OFFCURVE",
"85 81 QCURVE",
"80 81 OFFCURVE",
"72 83 QCURVE",
"70 83 OFFCURVE",
"69 84 OFFCURVE",
"68 84 QCURVE",
"62 86 OFFCURVE",
"50 86 QCURVE",
"43 108 LINE",
"43 107 LINE",
"10 218 OFFCURVE",
"10 337 QCURVE SMOOTH",
"10 478 OFFCURVE",
"57 616 QCURVE",
"56 615 LINE",
"63 639 LINE",
"72 639 OFFCURVE",
"82 640 OFFCURVE",
"87 641 QCURVE SMOOTH",
"147 651 OFFCURVE",
"271 662 OFFCURVE",
"334 665 QCURVE",
"351 665 LINE SMOOTH",
"356 665 OFFCURVE",
"364 666 OFFCURVE",
"369 666 QCURVE",
"391 667 OFFCURVE",
"443 668 OFFCURVE",
"465 668 QCURVE SMOOTH",
"510 668 OFFCURVE",
"605 665 OFFCURVE",
"650 661 QCURVE",
"652 661 OFFCURVE",
"658 660 OFFCURVE",
"660 660 QCURVE",
"666 660 OFFCURVE",
"678 659 OFFCURVE",
"683 658 QCURVE SMOOTH"
);
},
{
nodes = (
"545 432 LINE",
"545 440 OFFCURVE",
"544 455 OFFCURVE",
"544 463 QCURVE",
"530 464 OFFCURVE",
"504 464 OFFCURVE",
"490 464 QCURVE SMOOTH",
"472 464 OFFCURVE",
"435 464 OFFCURVE",
"417 463 QCURVE",
"392 463 LINE",
"391 455 OFFCURVE",
"390 440 OFFCURVE",
"390 432 QCURVE",
"476 432 LINE",
"487 431 OFFCURVE",
"506 432 OFFCURVE",
"516 432 QCURVE SMOOTH"
);
}
);
width = 933;
}
);
unicode = 0052;
},
{
glyphname = S;
layers = (
{
layerId = "1456D5E5-B8FF-4D35-B4CF-CE3708A5ECC4";
paths = (
{
nodes = (
"35 185 OFFCURVE",
"27 232 OFFCURVE",
"25 257 QCURVE",
"89 255 OFFCURVE",
"217 252 OFFCURVE",
"281 250 QCURVE",
"281 232 OFFCURVE",
"285 196 OFFCURVE",
"286 177 QCURVE",
"296 176 OFFCURVE",
"312 177 OFFCURVE",
"323 176 QCURVE",
"381 174 OFFCURVE",
"495 175 OFFCURVE",
"553 175 QCURVE",
"555 208 OFFCURVE",
"555 274 OFFCURVE",
"556 307 QCURVE",
"440 307 OFFCURVE",
"209 307 OFFCURVE",
"92 308 QCURVE",
"78 308 OFFCURVE",
"51 320 OFFCURVE",
"32 340 OFFCURVE",
"20 366 OFFCURVE",
"21 381 QCURVE SMOOTH",
"24 429 OFFCURVE",
"41 521 OFFCURVE",
"53 568 QCURVE",
"63 594 OFFCURVE",
"106 633 OFFCURVE",
"134 638 QCURVE",
"441 676 OFFCURVE",
"747 641 QCURVE SMOOTH",
"777 638 OFFCURVE",
"821 596 OFFCURVE",
"829 568 QCURVE SMOOTH",
"835 546 OFFCURVE",
"843 502 OFFCURVE",
"847 479 QCURVE",
"773 483 OFFCURVE",
"627 489 OFFCURVE",
"553 490 QCURVE",
"552 505 OFFCURVE",
"553 535 OFFCURVE",
"551 550 QCURVE",
"494 552 OFFCURVE",
"383 552 OFFCURVE",
"326 550 QCURVE",
"324 518 OFFCURVE",
"321 454 OFFCURVE",
"320 421 QCURVE",
"551 424 OFFCURVE",
"781 418 QCURVE SMOOTH",
"810 417 OFFCURVE",
"856 375 OFFCURVE",
"857 346 QCURVE",
"857 247 OFFCURVE",
"839 153 QCURVE",
"833 129 OFFCURVE",
"812 109 QCURVE",
"809 104 OFFCURVE",
"798 98 OFFCURVE",
"792 93 QCURVE",
"783 90 OFFCURVE",
"767 80 OFFCURVE",
"757 79 QCURVE SMOOTH",
"598 66 OFFCURVE",
"281 69 OFFCURVE",
"123 87 QCURVE",
"96 92 OFFCURVE",
"48 131 OFFCURVE",
"40 160 QCURVE"
);
},
{
nodes = (
"86 79 LINE",
"94 47 OFFCURVE",
"147 5 OFFCURVE",
"176 -1 QCURVE",
"264 -11 OFFCURVE",
"440 -21 OFFCURVE",
"531 -21 QCURVE SMOOTH",
"673 -21 OFFCURVE",
"814 -9 QCURVE",
"827 -6 OFFCURVE",
"840 0 QCURVE",
"839 0 LINE",
"852 6 LINE",
"859 11 LINE SMOOTH",
"864 14 OFFCURVE",
"874 20 OFFCURVE",
"877 25 QCURVE",
"899 45 OFFCURVE",
"905 73 QCURVE SMOOTH",
"923 167 OFFCURVE",
"923 268 QCURVE",
"922 293 OFFCURVE",
"890 333 OFFCURVE",
"867 343 QCURVE",
"867 346 LINE",
"866 372 OFFCURVE",
"848 393 QCURVE",
"915 390 LINE",
"910 419 OFFCURVE",
"900 473 OFFCURVE",
"895 493 QCURVE",
"888 513 OFFCURVE",
"861 549 OFFCURVE",
"841 560 QCURVE",
"839 571 LINE",
"830 600 OFFCURVE",
"781 646 OFFCURVE",
"748 651 QCURVE",
"676 659 OFFCURVE",
"528 668 OFFCURVE",
"454 668 QCURVE SMOOTH",
"373 668 OFFCURVE",
"212 658 OFFCURVE",
"132 648 QCURVE",
"102 642 OFFCURVE",
"54 597 OFFCURVE",
"43 568 QCURVE",
"31 520 OFFCURVE",
"14 429 OFFCURVE",
"11 382 QCURVE SMOOTH",
"9 356 OFFCURVE",
"43 313 OFFCURVE",
"67 303 QCURVE",
"66 284 OFFCURVE",
"76 265 QCURVE",
"60 265 OFFCURVE",
"29 266 OFFCURVE",
"14 267 QCURVE",
"17 235 OFFCURVE",
"25 182 OFFCURVE",
"30 158 QCURVE",
"30 157 LINE",
"35 135 OFFCURVE",
"64 102 OFFCURVE",
"83 91 QCURVE",
"86 80 LINE"
);
},
{
nodes = (
"495 185 LINE SMOOTH",
"452 185 OFFCURVE",
"367 185 OFFCURVE",
"323 186 QCURVE",
"296 186 LINE",
"296 191 OFFCURVE",
"295 205 OFFCURVE",
"294 210 QCURVE",
"294 215 OFFCURVE",
"293 219 QCURVE",
"356 218 OFFCURVE",
"482 219 OFFCURVE",
"545 219 QCURVE",
"545 210 OFFCURVE",
"544 193 OFFCURVE",
"544 185 QCURVE"
);
},
{
nodes = (
"390 432 LINE",
"390 439 OFFCURVE",
"391 454 OFFCURVE",
"392 462 QCURVE",
"423 463 OFFCURVE",
"474 464 OFFCURVE",
"505 464 QCURVE SMOOTH",
"528 464 OFFCURVE",
"575 464 OFFCURVE",
"598 463 QCURVE",
"599 454 OFFCURVE",
"598 445 OFFCURVE",
"598 436 QCURVE SMOOTH",
"598 431 LINE",
"567 432 OFFCURVE",
"505 432 OFFCURVE",
"474 432 QCURVE SMOOTH"
);
}
);
width = 933;
}
);
unicode = 0053;
},
{
glyphname = T;
layers = (
{
layerId = "1456D5E5-B8FF-4D35-B4CF-CE3708A5ECC4";
paths = (
{
nodes = (
"53 606 OFFCURVE",
"43 557 OFFCURVE",
"37 534 QCURVE",
"79 539 OFFCURVE",
"163 545 OFFCURVE",
"204 547 QCURVE",
"201 506 OFFCURVE",
"196 425 OFFCURVE",
"195 383 QCURVE",
"194 374 OFFCURVE",
"195 354 OFFCURVE",
"195 345 QCURVE SMOOTH",
"195 335 LINE",
"195 327 LINE",
"196 200 OFFCURVE",
"210 74 QCURVE",
"237 72 OFFCURVE",
"290 69 OFFCURVE",
"318 68 QCURVE",
"391 68 LINE",
"417 67 OFFCURVE",
"472 70 OFFCURVE",
"498 70 QCURVE",
"504 139 OFFCURVE",
"508 276 OFFCURVE",
"508 345 QCURVE SMOOTH",
"508 383 LINE",
"507 425 OFFCURVE",
"505 507 OFFCURVE",
"502 549 QCURVE",
"547 547 OFFCURVE",
"634 541 OFFCURVE",
"679 536 QCURVE",
"674 560 OFFCURVE",
"666 610 OFFCURVE",
"659 633 QCURVE",
"601 644 OFFCURVE",
"485 655 OFFCURVE",
"426 657 QCURVE",
"403 659 OFFCURVE",
"360 657 OFFCURVE",
"337 658 QCURVE",
"267 656 OFFCURVE",
"129 643 OFFCURVE",
"60 629 QCURVE"
);
},
{
nodes = (
"58 639 LINE",
"127 653 OFFCURVE",
"266 666 OFFCURVE",
"337 668 QCURVE",
"375 668 LINE SMOOTH",
"388 668 OFFCURVE",
"414 668 OFFCURVE",
"427 667 QCURVE SMOOTH",
"486 665 OFFCURVE",
"607 654 OFFCURVE",
"667 642 QCURVE",
"672 623 OFFCURVE",
"680 588 OFFCURVE",
"683 571 QCURVE",
"723 564 LINE",
"735 521 OFFCURVE",
"741 481 QCURVE SMOOTH",
"747 447 LINE",
"702 452 OFFCURVE",
"614 459 OFFCURVE",
"569 461 QCURVE",
"571 422 OFFCURVE",
"573 344 OFFCURVE",
"574 305 QCURVE",
"574 267 LINE SMOOTH",
"574 198 OFFCURVE",
"570 58 OFFCURVE",
"563 -18 QCURVE",
"552 -18 OFFCURVE",
"519 -18 OFFCURVE",
"508 -19 QCURVE SMOOTH",
"492 -20 OFFCURVE",
"462 -21 OFFCURVE",
"447 -20 QCURVE",
"374 -20 LINE",
"355 -19 OFFCURVE",
"319 -18 OFFCURVE",
"301 -16 QCURVE",
"292 -16 OFFCURVE",
"265 -14 OFFCURVE",
"257 -14 QCURVE",
"255 5 OFFCURVE",
"252 42 OFFCURVE",
"250 61 QCURVE",
"248 61 OFFCURVE",
"246 62 OFFCURVE",
"245 62 QCURVE",
"236 62 OFFCURVE",
"209 64 OFFCURVE",
"201 64 QCURVE",
"194 132 OFFCURVE",
"186 262 OFFCURVE",
"185 327 QCURVE",
"185 384 LINE SMOOTH",
"185 403 OFFCURVE",
"186 438 OFFCURVE",
"187 455 QCURVE",
"160 453 OFFCURVE",
"105 447 OFFCURVE",
"80 444 QCURVE",
"92 497 LINE SMOOTH",
"94 505 OFFCURVE",
"97 522 OFFCURVE",
"99 530 QCURVE",
"24 522 LINE",
"36 575 LINE SMOOTH",
"39 589 OFFCURVE",
"46 618 OFFCURVE",
"50 632 QCURVE"
);
}
);
width = 772;
}
);
unicode = 0054;
},
{
glyphname = U;
layers = (
{
layerId = "1456D5E5-B8FF-4D35-B4CF-CE3708A5ECC4";
paths = (
{
nodes = (
"555 393 OFFCURVE",
"555 336 OFFCURVE",
"555 307 QCURVE",
"554 274 OFFCURVE",
"554 208 OFFCURVE",
"552 175 QCURVE",
"543 175 OFFCURVE",
"525 176 OFFCURVE",
"515 175 QCURVE",
"466 175 OFFCURVE",
"371 174 OFFCURVE",
"322 176 QCURVE",
"321 183 OFFCURVE",
"322 197 OFFCURVE",
"321 204 QCURVE SMOOTH",
"320 211 OFFCURVE",
"320 224 OFFCURVE",
"320 232 QCURVE",
"319 256 OFFCURVE",
"318 303 OFFCURVE",
"318 327 QCURVE SMOOTH",
"318 350 OFFCURVE",
"319 398 OFFCURVE",
"319 421 QCURVE SMOOTH",
"319 442 LINE",
"320 456 OFFCURVE",
"320 482 OFFCURVE",
"322 496 QCURVE",
"324 533 OFFCURVE",
"329 604 OFFCURVE",
"332 640 QCURVE",
"333 645 OFFCURVE",
"333 655 QCURVE",
"283 652 OFFCURVE",
"184 645 OFFCURVE",
"133 638 QCURVE",
"122 635 OFFCURVE",
"99 633 OFFCURVE",
"88 631 QCURVE SMOOTH",
"83 630 OFFCURVE",
"75 629 OFFCURVE",
"70 629 QCURVE",
"68 620 LINE",
"66 614 LINE SMOOTH",
"59 594 OFFCURVE",
"49 554 OFFCURVE",
"44 534 QCURVE SMOOTH",
"39 517 OFFCURVE",
"32 485 OFFCURVE",
"29 468 QCURVE",
"29 466 OFFCURVE",
"28 463 OFFCURVE",
"28 461 QCURVE",
"28 459 LINE",
"27 451 LINE SMOOTH",
"26 443 OFFCURVE",
"25 435 OFFCURVE",
"25 433 QCURVE",
"20 398 OFFCURVE",
"18 329 OFFCURVE",
"21 294 QCURVE",
"20 286 OFFCURVE",
"22 274 OFFCURVE",
"23 266 QCURVE",
"23 264 OFFCURVE",
"24 260 OFFCURVE",
"24 257 QCURVE",
"25 249 OFFCURVE",
"26 233 OFFCURVE",
"27 225 QCURVE",
"29 216 LINE",
"29 212 LINE",
"39 160 LINE",
"47 131 OFFCURVE",
"95 92 OFFCURVE",
"122 87 QCURVE",
"139 85 OFFCURVE",
"173 80 OFFCURVE",
"190 79 QCURVE SMOOTH",
"198 78 OFFCURVE",
"216 78 OFFCURVE",
"225 77 QCURVE SMOOTH",
"297 71 OFFCURVE",
"440 67 OFFCURVE",
"512 68 QCURVE",
"522 69 OFFCURVE",
"539 68 OFFCURVE",
"548 68 QCURVE",
"600 70 OFFCURVE",
"703 75 OFFCURVE",
"756 79 QCURVE",
"784 86 OFFCURVE",
"830 125 OFFCURVE",
"838 153 QCURVE",
"863 273 OFFCURVE",
"847 517 OFFCURVE",
"810 632 QCURVE",
"744 642 OFFCURVE",
"611 654 OFFCURVE",
"544 656 QCURVE",
"548 597 OFFCURVE",
"553 482 OFFCURVE",
"554 422 QCURVE SMOOTH"
);
},
{
nodes = (
"543 482 OFFCURVE",
"537 607 OFFCURVE",
"533 666 QCURVE",
"608 664 OFFCURVE",
"750 651 OFFCURVE",
"818 641 QCURVE",
"823 623 OFFCURVE",
"833 586 OFFCURVE",
"838 568 QCURVE",
"847 566 OFFCURVE",
"865 564 OFFCURVE",
"874 563 QCURVE",
"897 488 OFFCURVE",
"923 335 OFFCURVE",
"923 258 QCURVE SMOOTH",
"923 210 OFFCURVE",
"914 117 OFFCURVE",
"904 72 QCURVE",
"896 42 OFFCURVE",
"845 -1 OFFCURVE",
"814 -9 QCURVE",
"761 -13 OFFCURVE",
"656 -18 OFFCURVE",
"604 -20 QCURVE",
"523 -20 LINE SMOOTH",
"462 -20 OFFCURVE",
"340 -16 OFFCURVE",
"280 -11 QCURVE",
"276 -11 OFFCURVE",
"267 -10 OFFCURVE",
"263 -10 QCURVE SMOOTH",
"258 -10 OFFCURVE",
"249 -10 OFFCURVE",
"244 -9 QCURVE",
"245 -9 LINE",
"236 -8 OFFCURVE",
"213 -7 OFFCURVE",
"204 -5 QCURVE",
"175 -1 LINE",
"146 5 OFFCURVE",
"94 47 OFFCURVE",
"86 77 QCURVE",
"83 90 LINE",
"64 101 OFFCURVE",
"35 134 OFFCURVE",
"30 155 QCURVE",
"19 210 LINE",
"19 216 LINE",
"17 223 LINE SMOOTH",
"15 231 OFFCURVE",
"15 239 QCURVE",
"14 243 OFFCURVE",
"14 252 OFFCURVE",
"14 257 QCURVE",
"14 259 OFFCURVE",
"13 262 OFFCURVE",
"13 266 QCURVE",
"13 268 OFFCURVE",
"12 272 OFFCURVE",
"12 274 QCURVE",
"11 279 OFFCURVE",
"10 288 OFFCURVE",
"11 293 QCURVE",
"10 304 OFFCURVE",
"9 332 OFFCURVE",
"9 343 QCURVE SMOOTH",
"9 390 OFFCURVE",
"15 434 QCURVE",
"15 435 OFFCURVE",
"16 437 OFFCURVE",
"16 439 QCURVE",
"16 441 OFFCURVE",
"16 450 OFFCURVE",
"17 453 QCURVE",
"17 455 OFFCURVE",
"18 458 OFFCURVE",
"18 459 QCURVE",
"18 464 LINE",
"18 465 OFFCURVE",
"19 469 OFFCURVE",
"19 470 QCURVE",
"22 487 OFFCURVE",
"29 521 OFFCURVE",
"34 537 QCURVE",
"38 554 OFFCURVE",
"49 595 OFFCURVE",
"57 617 QCURVE",
"58 618 OFFCURVE",
"58 620 QCURVE",
"60 639 LINE",
"71 639 OFFCURVE",
"81 640 OFFCURVE",
"86 641 QCURVE SMOOTH",
"101 643 LINE",
"106 643 OFFCURVE",
"119 645 OFFCURVE",
"128 648 QCURVE",
"179 655 OFFCURVE",
"293 663 OFFCURVE",
"343 666 QCURVE",
"343 658 OFFCURVE",
"343 642 OFFCURVE",
"342 638 QCURVE",
"337 584 LINE",
"354 586 OFFCURVE",
"384 587 OFFCURVE",
"399 588 QCURVE",
"399 580 OFFCURVE",
"399 564 OFFCURVE",
"398 560 QCURVE",
"395 525 OFFCURVE",
"390 453 OFFCURVE",
"388 417 QCURVE SMOOTH",
"387 408 OFFCURVE",
"386 390 OFFCURVE",
"386 382 QCURVE SMOOTH",
"386 377 OFFCURVE",
"385 369 OFFCURVE",
"385 364 QCURVE SMOOTH",
"385 343 LINE SMOOTH",
"385 331 OFFCURVE",
"384 308 OFFCURVE",
"384 296 QCURVE SMOOTH",
"384 249 LINE SMOOTH",
"384 232 OFFCURVE",
"384 201 OFFCURVE",
"385 185 QCURVE",
"466 185 LINE",
"543 185 LINE",
"544 205 OFFCURVE",
"544 243 OFFCURVE",
"544 263 QCURVE SMOOTH",
"544 274 OFFCURVE",
"545 296 OFFCURVE",
"545 307 QCURVE SMOOTH",
"545 336 OFFCURVE",
"545 393 OFFCURVE",
"544 422 QCURVE SMOOTH"
);
}
);
width = 933;
}
);
unicode = 0055;
},
{
glyphname = V;
layers = (
{
layerId = "1456D5E5-B8FF-4D35-B4CF-CE3708A5ECC4";
paths = (
{
nodes = (
"555 422 LINE SMOOTH",
"556 393 OFFCURVE",
"556 336 OFFCURVE",
"556 307 QCURVE",
"555 274 OFFCURVE",
"555 208 OFFCURVE",
"553 175 QCURVE",
"544 175 OFFCURVE",
"526 176 OFFCURVE",
"516 175 QCURVE",
"467 175 OFFCURVE",
"372 174 OFFCURVE",
"323 176 QCURVE",
"322 183 OFFCURVE",
"323 197 OFFCURVE",
"322 204 QCURVE SMOOTH",
"321 211 OFFCURVE",
"321 224 OFFCURVE",
"321 232 QCURVE",
"320 256 OFFCURVE",
"319 303 OFFCURVE",
"319 327 QCURVE SMOOTH",
"319 350 OFFCURVE",
"320 398 OFFCURVE",
"320 421 QCURVE SMOOTH",
"320 442 LINE",
"322 491 LINE",
"323 496 LINE",
"325 533 OFFCURVE",
"330 604 OFFCURVE",
"333 640 QCURVE",
"334 645 OFFCURVE",
"334 655 QCURVE",
"325 654 LINE",
"316 654 LINE",
"296 652 OFFCURVE",
"254 651 OFFCURVE",
"233 649 QCURVE SMOOTH",
"216 647 LINE SMOOTH",
"211 646 OFFCURVE",
"204 646 OFFCURVE",
"199 646 QCURVE SMOOTH",
"191 646 OFFCURVE",
"174 642 OFFCURVE",
"166 642 QCURVE",
"158 641 OFFCURVE",
"142 639 OFFCURVE",
"134 638 QCURVE",
"123 635 OFFCURVE",
"99 633 OFFCURVE",
"88 630 QCURVE",
"71 629 LINE",
"69 620 LINE",
"67 614 LINE SMOOTH",
"60 594 OFFCURVE",
"50 554 OFFCURVE",
"45 534 QCURVE SMOOTH",
"32 479 LINE SMOOTH",
"31 476 OFFCURVE",
"32 471 OFFCURVE",
"30 468 QCURVE",
"30 466 OFFCURVE",
"29 463 OFFCURVE",
"29 461 QCURVE",
"29 459 LINE",
"28 451 LINE SMOOTH",
"27 443 OFFCURVE",
"26 435 OFFCURVE",
"26 433 QCURVE",
"24 411 OFFCURVE",
"19 368 OFFCURVE",
"20 346 QCURVE",
"20 332 OFFCURVE",
"20 307 OFFCURVE",
"22 294 QCURVE",
"21 286 OFFCURVE",
"23 274 OFFCURVE",
"24 266 QCURVE",
"24 264 OFFCURVE",
"25 260 OFFCURVE",
"25 257 QCURVE",
"26 249 OFFCURVE",
"27 233 OFFCURVE",
"28 225 QCURVE",
"30 216 LINE",
"30 212 LINE",
"40 160 LINE SMOOTH",
"42 147 OFFCURVE",
"50 124 OFFCURVE",
"53 111 QCURVE",
"57 101 OFFCURVE",
"58 96 QCURVE",
"66 95 LINE",
"72 93 LINE",
"123 87 LINE",
"131 85 OFFCURVE",
"148 85 OFFCURVE",
"157 83 QCURVE",
"165 83 OFFCURVE",
"182 78 OFFCURVE",
"191 79 QCURVE",
"195 78 OFFCURVE",
"203 79 OFFCURVE",
"207 78 QCURVE",
"226 77 LINE",
"298 71 OFFCURVE",
"441 67 OFFCURVE",
"513 68 QCURVE",
"523 69 OFFCURVE",
"540 68 OFFCURVE",
"549 68 QCURVE",
"584 69 OFFCURVE",
"654 73 OFFCURVE",
"689 75 QCURVE",
"718 78 OFFCURVE",
"773 103 OFFCURVE",
"816 142 OFFCURVE",
"846 193 OFFCURVE",
"851 222 QCURVE",
"858 286 OFFCURVE",
"857 414 OFFCURVE",
"847 479 QCURVE SMOOTH",
"841 517 OFFCURVE",
"823 595 OFFCURVE",
"811 632 QCURVE",
"745 642 OFFCURVE",
"612 654 OFFCURVE",
"545 656 QCURVE",
"548 614 OFFCURVE",
"551 532 OFFCURVE",
"553 490 QCURVE SMOOTH"
);
},
{
nodes = (
"543 490 LINE SMOOTH",
"541 532 OFFCURVE",
"537 624 OFFCURVE",
"534 666 QCURVE",
"609 664 OFFCURVE",
"751 651 OFFCURVE",
"819 641 QCURVE",
"831 604 OFFCURVE",
"840 568 QCURVE",
"849 566 OFFCURVE",
"866 564 OFFCURVE",
"875 563 QCURVE",
"888 524 OFFCURVE",
"907 442 OFFCURVE",
"913 402 QCURVE SMOOTH",
"918 367 OFFCURVE",
"923 296 OFFCURVE",
"923 260 QCURVE SMOOTH",
"923 200 OFFCURVE",
"917 142 QCURVE",
"912 111 OFFCURVE",
"880 58 OFFCURVE",
"834 17 OFFCURVE",
"777 -10 OFFCURVE",
"746 -13 QCURVE",
"711 -15 OFFCURVE",
"640 -19 OFFCURVE",
"605 -20 QCURVE",
"524 -20 LINE SMOOTH",
"463 -20 OFFCURVE",
"341 -16 OFFCURVE",
"281 -11 QCURVE",
"277 -11 OFFCURVE",
"267 -10 OFFCURVE",
"263 -10 QCURVE SMOOTH",
"255 -10 LINE SMOOTH",
"249 -10 OFFCURVE",
"246 -9 QCURVE",
"240 -10 OFFCURVE",
"231 -8 OFFCURVE",
"226 -7 QCURVE SMOOTH",
"216 -5 OFFCURVE",
"211 -5 QCURVE",
"206 -4 OFFCURVE",
"199 -3 OFFCURVE",
"196 -3 QCURVE",
"178 -1 LINE",
"128 5 LINE",
"127 5 OFFCURVE",
"123 7 OFFCURVE",
"122 7 QCURVE",
"106 8 LINE",
"104 15 OFFCURVE",
"99 28 OFFCURVE",
"97 35 QCURVE SMOOTH",
"93 51 LINE",
"94 51 LINE",
"90 61 OFFCURVE",
"87 74 OFFCURVE",
"86 80 QCURVE",
"85 81 LINE",
"72 83 LINE",
"71 83 OFFCURVE",
"67 85 OFFCURVE",
"66 85 QCURVE",
"50 86 LINE",
"48 93 OFFCURVE",
"43 106 OFFCURVE",
"41 113 QCURVE SMOOTH",
"37 129 LINE",
"38 129 LINE",
"34 139 OFFCURVE",
"31 152 OFFCURVE",
"30 158 QCURVE SMOOTH",
"20 210 LINE",
"20 216 LINE",
"18 223 LINE SMOOTH",
"16 231 OFFCURVE",
"16 239 QCURVE",
"15 243 OFFCURVE",
"15 252 OFFCURVE",
"15 257 QCURVE",
"15 259 OFFCURVE",
"14 262 OFFCURVE",
"14 266 QCURVE",
"14 268 OFFCURVE",
"13 272 OFFCURVE",
"13 274 QCURVE",
"12 279 OFFCURVE",
"11 288 OFFCURVE",
"12 293 QCURVE",
"10 305 OFFCURVE",
"10 332 OFFCURVE",
"10 346 QCURVE",
"9 364 OFFCURVE",
"12 403 OFFCURVE",
"14 420 QCURVE",
"14 423 OFFCURVE",
"16 430 OFFCURVE",
"16 433 QCURVE",
"16 434 OFFCURVE",
"17 437 OFFCURVE",
"17 439 QCURVE",
"17 441 OFFCURVE",
"17 450 OFFCURVE",
"18 453 QCURVE",
"18 455 OFFCURVE",
"19 458 OFFCURVE",
"19 459 QCURVE",
"19 464 LINE",
"19 465 OFFCURVE",
"20 469 OFFCURVE",
"20 470 QCURVE",
"21 472 OFFCURVE",
"21 475 QCURVE",
"21 476 OFFCURVE",
"22 479 OFFCURVE",
"22 481 QCURVE",
"35 536 LINE SMOOTH",
"39 553 OFFCURVE",
"50 595 OFFCURVE",
"58 617 QCURVE",
"59 618 OFFCURVE",
"59 620 QCURVE",
"61 639 LINE",
"85 640 LINE",
"89 642 OFFCURVE",
"102 643 OFFCURVE",
"110 644 QCURVE",
"131 648 LINE",
"138 648 OFFCURVE",
"148 650 QCURVE",
"166 652 LINE",
"167 652 OFFCURVE",
"177 653 OFFCURVE",
"180 654 QCURVE SMOOTH",
"190 656 OFFCURVE",
"199 656 QCURVE SMOOTH",
"203 656 OFFCURVE",
"210 656 OFFCURVE",
"215 657 QCURVE SMOOTH",
"233 659 LINE",
"274 661 LINE",
"273 661 LINE",
"315 664 LINE",
"325 664 LINE",
"344 665 LINE",
"344 658 OFFCURVE",
"344 642 OFFCURVE",
"343 638 QCURVE",
"338 583 LINE",
"371 586 LINE",
"381 586 LINE",
"400 587 LINE",
"400 580 OFFCURVE",
"400 564 OFFCURVE",
"399 560 QCURVE",
"396 525 OFFCURVE",
"391 454 OFFCURVE",
"389 418 QCURVE",
"389 417 OFFCURVE",
"388 414 OFFCURVE",
"388 413 QCURVE",
"386 364 LINE",
"386 343 LINE SMOOTH",
"386 331 OFFCURVE",
"385 308 OFFCURVE",
"385 296 QCURVE SMOOTH",
"385 249 LINE SMOOTH",
"385 232 OFFCURVE",
"385 201 OFFCURVE",
"386 185 QCURVE",
"467 185 LINE",
"544 185 LINE",
"545 205 OFFCURVE",
"545 243 OFFCURVE",
"545 263 QCURVE SMOOTH",
"545 274 OFFCURVE",
"546 296 OFFCURVE",
"546 307 QCURVE SMOOTH",
"546 336 OFFCURVE",
"546 393 OFFCURVE",
"545 422 QCURVE SMOOTH"
);
}
);
width = 933;
}
);
unicode = 0056;
},
{
glyphname = W;
layers = (
{
layerId = "1456D5E5-B8FF-4D35-B4CF-CE3708A5ECC4";
paths = (
{
nodes = (
"940 392 OFFCURVE",
"941 336 OFFCURVE",
"940 307 QCURVE SMOOTH",
"939 275 OFFCURVE",
"936 210 OFFCURVE",
"931 178 QCURVE",
"922 176 OFFCURVE",
"903 178 OFFCURVE",
"893 176 QCURVE",
"865 176 OFFCURVE",
"810 176 OFFCURVE",
"781 175 QCURVE",
"783 184 OFFCURVE",
"781 204 OFFCURVE",
"783 213 QCURVE",
"783 217 OFFCURVE",
"784 226 OFFCURVE",
"784 231 QCURVE",
"787 338 OFFCURVE",
"781 550 OFFCURVE",
"770 656 QCURVE",
"699 658 OFFCURVE",
"558 658 OFFCURVE",
"487 655 QCURVE",
"481 597 OFFCURVE",
"472 481 OFFCURVE",
"470 421 QCURVE",
"468 392 OFFCURVE",
"468 335 OFFCURVE",
"468 306 QCURVE",
"469 274 OFFCURVE",
"472 208 OFFCURVE",
"474 176 QCURVE",
"465 176 OFFCURVE",
"444 177 OFFCURVE",
"435 177 QCURVE",
"325 179 LINE",
"325 186 OFFCURVE",
"322 199 OFFCURVE",
"322 206 QCURVE",
"320 233 LINE",
"317 256 OFFCURVE",
"315 304 OFFCURVE",
"314 327 QCURVE",
"314 350 OFFCURVE",
"316 397 OFFCURVE",
"319 421 QCURVE",
"319 426 OFFCURVE",
"319 435 OFFCURVE",
"320 440 QCURVE",
"320 453 OFFCURVE",
"323 479 OFFCURVE",
"324 493 QCURVE",
"329 528 OFFCURVE",
"340 598 OFFCURVE",
"348 632 QCURVE",
"350 643 LINE",
"351 651 LINE",
"343 650 LINE",
"335 650 LINE",
"315 648 OFFCURVE",
"274 645 OFFCURVE",
"254 643 QCURVE",
"249 643 OFFCURVE",
"242 643 OFFCURVE",
"237 642 QCURVE",
"220 641 LINE",
"212 641 OFFCURVE",
"197 639 OFFCURVE",
"189 638 QCURVE SMOOTH",
"179 637 LINE",
"172 636 LINE",
"163 636 LINE",
"157 634 LINE",
"145 632 OFFCURVE",
"121 632 OFFCURVE",
"110 630 QCURVE",
"93 628 LINE",
"86 612 LINE",
"76 592 OFFCURVE",
"62 553 OFFCURVE",
"55 533 QCURVE SMOOTH",
"44 505 OFFCURVE",
"38 479 QCURVE SMOOTH",
"37 476 OFFCURVE",
"37 470 OFFCURVE",
"35 467 QCURVE",
"33 460 LINE",
"33 458 LINE",
"31 450 LINE",
"28 433 LINE",
"23 411 OFFCURVE",
"21 367 OFFCURVE",
"20 345 QCURVE SMOOTH",
"19 332 OFFCURVE",
"21 306 OFFCURVE",
"22 294 QCURVE SMOOTH",
"23 286 OFFCURVE",
"23 273 OFFCURVE",
"25 266 QCURVE",
"26 259 LINE SMOOTH",
"27 250 OFFCURVE",
"29 233 OFFCURVE",
"31 225 QCURVE SMOOTH",
"34 212 LINE SMOOTH",
"37 198 OFFCURVE",
"46 173 OFFCURVE",
"49 160 QCURVE",
"54 147 OFFCURVE",
"60 124 OFFCURVE",
"65 111 QCURVE",
"69 103 LINE",
"72 96 LINE",
"77 96 OFFCURVE",
"84 96 OFFCURVE",
"89 95 QCURVE SMOOTH",
"100 93 OFFCURVE",
"126 91 OFFCURVE",
"138 90 QCURVE SMOOTH",
"147 89 OFFCURVE",
"165 89 OFFCURVE",
"173 87 QCURVE SMOOTH",
"182 85 OFFCURVE",
"197 85 OFFCURVE",
"205 84 QCURVE SMOOTH",
"223 82 LINE",
"227 82 OFFCURVE",
"235 82 OFFCURVE",
"239 81 QCURVE",
"265 79 OFFCURVE",
"316 77 OFFCURVE",
"341 75 QCURVE",
"386 73 OFFCURVE",
"474 70 OFFCURVE",
"518 69 QCURVE",
"528 68 OFFCURVE",
"545 68 OFFCURVE",
"554 68 QCURVE SMOOTH",
"590 68 LINE",
"622 68 LINE",
"702 68 LINE",
"737 68 LINE SMOOTH",
"755 68 OFFCURVE",
"791 68 OFFCURVE",
"810 69 QCURVE",
"818 69 OFFCURVE",
"835 71 OFFCURVE",
"845 70 QCURVE",
"853 70 OFFCURVE",
"872 71 OFFCURVE",
"880 70 QCURVE",
"915 72 LINE",
"930 72 OFFCURVE",
"962 75 OFFCURVE",
"978 75 QCURVE",
"988 77 OFFCURVE",
"1007 76 OFFCURVE",
"1018 77 QCURVE SMOOTH",
"1026 78 OFFCURVE",
"1043 77 OFFCURVE",
"1051 79 QCURVE",
"1080 83 OFFCURVE",
"1136 106 OFFCURVE",
"1183 144 OFFCURVE",
"1217 193 OFFCURVE",
"1225 222 QCURVE",
"1245 325 OFFCURVE",
"1212 535 OFFCURVE",
"1168 630 QCURVE",
"1103 638 OFFCURVE",
"974 647 OFFCURVE",
"908 651 QCURVE",
"920 594 OFFCURVE",
"934 478 OFFCURVE",
"939 421 QCURVE"
);
},
{
nodes = (
"929 420 LINE",
"924 476 OFFCURVE",
"909 596 OFFCURVE",
"895 662 QCURVE",
"961 658 OFFCURVE",
"1110 647 OFFCURVE",
"1175 639 QCURVE",
"1191 601 OFFCURVE",
"1205 564 QCURVE",
"1231 561 LINE",
"1264 489 OFFCURVE",
"1302 334 OFFCURVE",
"1302 256 QCURVE SMOOTH",
"1302 200 OFFCURVE",
"1291 142 QCURVE",
"1283 113 OFFCURVE",
"1246 62 OFFCURVE",
"1196 23 OFFCURVE",
"1137 -4 OFFCURVE",
"1108 -9 QCURVE SMOOTH",
"1103 -10 OFFCURVE",
"1092 -10 OFFCURVE",
"1087 -10 QCURVE SMOOTH",
"1084 -10 OFFCURVE",
"1077 -11 OFFCURVE",
"1074 -11 QCURVE SMOOTH",
"1069 -11 OFFCURVE",
"1062 -12 OFFCURVE",
"1058 -12 QCURVE SMOOTH",
"1052 -12 OFFCURVE",
"1041 -12 OFFCURVE",
"1035 -13 QCURVE",
"1027 -13 OFFCURVE",
"1011 -14 OFFCURVE",
"1003 -15 QCURVE SMOOTH",
"995 -16 OFFCURVE",
"979 -16 OFFCURVE",
"971 -16 QCURVE",
"935 -18 LINE",
"879 -18 LINE SMOOTH",
"876 -18 OFFCURVE",
"869 -19 OFFCURVE",
"866 -19 QCURVE",
"849 -20 OFFCURVE",
"809 -20 OFFCURVE",
"793 -20 QCURVE SMOOTH",
"610 -20 LINE SMOOTH",
"602 -20 OFFCURVE",
"581 -20 OFFCURVE",
"573 -19 QCURVE",
"547 -18 OFFCURVE",
"485 -17 OFFCURVE",
"458 -15 QCURVE",
"444 -15 OFFCURVE",
"409 -13 OFFCURVE",
"396 -13 QCURVE",
"383 -11 OFFCURVE",
"358 -11 OFFCURVE",
"345 -10 QCURVE SMOOTH",
"293 -7 LINE",
"289 -6 OFFCURVE",
"282 -6 OFFCURVE",
"279 -6 QCURVE",
"261 -4 LINE",
"259 -4 OFFCURVE",
"253 -3 OFFCURVE",
"251 -3 QCURVE",
"245 -3 OFFCURVE",
"233 -3 OFFCURVE",
"227 -1 QCURVE",
"228 -1 LINE",
"223 0 OFFCURVE",
"211 1 OFFCURVE",
"206 1 QCURVE SMOOTH",
"203 1 OFFCURVE",
"195 2 OFFCURVE",
"190 2 QCURVE",
"179 3 OFFCURVE",
"153 5 OFFCURVE",
"143 7 QCURVE SMOOTH",
"139 8 OFFCURVE",
"128 8 OFFCURVE",
"122 8 QCURVE",
"116 21 LINE",
"112 29 LINE",
"109 37 OFFCURVE",
"104 50 OFFCURVE",
"103 55 QCURVE",
"95 80 LINE",
"93 84 LINE",
"89 84 OFFCURVE",
"87 85 QCURVE SMOOTH",
"83 86 OFFCURVE",
"72 86 OFFCURVE",
"66 86 QCURVE",
"60 99 LINE",
"56 107 LINE",
"53 115 OFFCURVE",
"48 128 OFFCURVE",
"47 133 QCURVE",
"39 158 LINE SMOOTH",
"37 165 OFFCURVE",
"34 177 OFFCURVE",
"33 180 QCURVE",
"33 181 LINE",
"29 191 OFFCURVE",
"25 207 OFFCURVE",
"24 210 QCURVE SMOOTH",
"21 223 LINE SMOOTH",
"19 231 OFFCURVE",
"17 247 OFFCURVE",
"16 258 QCURVE",
"15 264 LINE SMOOTH",
"14 269 OFFCURVE",
"13 280 OFFCURVE",
"13 285 QCURVE",
"13 287 OFFCURVE",
"12 292 OFFCURVE",
"12 294 QCURVE",
"12 297 OFFCURVE",
"11 301 OFFCURVE",
"11 304 QCURVE",
"10 313 OFFCURVE",
"9 337 OFFCURVE",
"10 346 QCURVE SMOOTH",
"11 368 OFFCURVE",
"13 414 OFFCURVE",
"18 435 QCURVE",
"21 452 LINE",
"21 454 OFFCURVE",
"23 458 OFFCURVE",
"23 460 QCURVE",
"25 467 LINE SMOOTH",
"27 473 OFFCURVE",
"27 475 QCURVE",
"27 476 OFFCURVE",
"28 480 OFFCURVE",
"28 481 QCURVE",
"31 493 OFFCURVE",
"40 522 OFFCURVE",
"46 537 QCURVE",
"45 535 LINE",
"47 537 OFFCURVE",
"47 539 QCURVE",
"54 559 OFFCURVE",
"69 600 OFFCURVE",
"77 616 QCURVE",
"86 638 LINE",
"110 640 LINE",
"133 642 LINE",
"138 642 OFFCURVE",
"150 643 OFFCURVE",
"156 644 QCURVE",
"163 646 LINE",
"172 646 LINE",
"179 647 LINE",
"189 648 LINE",
"191 648 OFFCURVE",
"196 649 OFFCURVE",
"198 649 QCURVE",
"203 650 OFFCURVE",
"215 651 OFFCURVE",
"220 651 QCURVE",
"235 652 LINE",
"239 653 OFFCURVE",
"250 653 OFFCURVE",
"253 653 QCURVE",
"270 655 OFFCURVE",
"311 658 OFFCURVE",
"329 660 QCURVE",
"343 660 LINE",
"361 661 LINE",
"360 643 LINE",
"358 630 LINE",
"355 617 OFFCURVE",
"349 592 OFFCURVE",
"347 579 QCURVE",
"385 582 LINE",
"399 582 LINE",
"417 583 LINE",
"416 565 LINE",
"414 552 LINE",
"407 523 OFFCURVE",
"398 464 OFFCURVE",
"393 435 QCURVE",
"390 414 LINE",
"390 409 OFFCURVE",
"389 396 OFFCURVE",
"388 392 QCURVE SMOOTH",
"387 384 OFFCURVE",
"386 368 OFFCURVE",
"386 361 QCURVE",
"385 356 OFFCURVE",
"385 347 OFFCURVE",
"385 342 QCURVE",
"382 318 OFFCURVE",
"380 272 OFFCURVE",
"380 249 QCURVE SMOOTH",
"380 233 OFFCURVE",
"381 203 OFFCURVE",
"382 188 QCURVE",
"395 187 OFFCURVE",
"421 187 OFFCURVE",
"435 187 QCURVE SMOOTH",
"440 187 OFFCURVE",
"449 186 OFFCURVE",
"454 186 QCURVE SMOOTH",
"464 186 LINE",
"464 195 OFFCURVE",
"462 208 OFFCURVE",
"462 217 QCURVE",
"460 238 OFFCURVE",
"459 285 OFFCURVE",
"458 306 QCURVE",
"458 335 OFFCURVE",
"458 393 OFFCURVE",
"460 422 QCURVE",
"462 480 OFFCURVE",
"472 608 OFFCURVE",
"478 665 QCURVE",
"516 667 OFFCURVE",
"601 668 OFFCURVE",
"639 668 QCURVE SMOOTH",
"672 668 OFFCURVE",
"746 667 OFFCURVE",
"779 666 QCURVE",
"786 589 LINE",
"799 588 OFFCURVE",
"823 588 OFFCURVE",
"835 588 QCURVE",
"844 502 OFFCURVE",
"851 337 OFFCURVE",
"851 256 QCURVE SMOOTH",
"851 186 LINE",
"891 186 LINE",
"896 187 OFFCURVE",
"907 187 OFFCURVE",
"912 187 QCURVE SMOOTH",
"917 187 OFFCURVE",
"917 186 OFFCURVE",
"922 187 QCURVE",
"926 217 OFFCURVE",
"929 278 OFFCURVE",
"930 307 QCURVE",
"930 340 LINE SMOOTH",
"930 360 OFFCURVE",
"930 400 OFFCURVE",
"929 421 QCURVE"
);
}
);
width = 1312;
}
);
unicode = 0057;
},
{
glyphname = X;
layers = (
{
layerId = "1456D5E5-B8FF-4D35-B4CF-CE3708A5ECC4";
paths = (
{
nodes = (
"698 648 OFFCURVE",
"597 654 OFFCURVE",
"546 656 QCURVE",
"548 629 OFFCURVE",
"551 577 OFFCURVE",
"552 550 QCURVE SMOOTH",
"554 518 OFFCURVE",
"555 455 OFFCURVE",
"556 422 QCURVE",
"536 424 OFFCURVE",
"516 422 QCURVE",
"486 423 OFFCURVE",
"426 422 OFFCURVE",
"397 422 QCURVE SMOOTH",
"377 422 OFFCURVE",
"339 421 OFFCURVE",
"319 421 QCURVE",
"320 441 OFFCURVE",
"320 479 OFFCURVE",
"322 496 QCURVE",
"324 524 LINE SMOOTH",
"325 531 OFFCURVE",
"324 544 OFFCURVE",
"325 550 QCURVE",
"333 655 LINE",
"307 653 OFFCURVE",
"258 651 OFFCURVE",
"232 649 QCURVE SMOOTH",
"224 648 OFFCURVE",
"206 646 OFFCURVE",
"198 646 QCURVE",
"133 638 LINE",
"118 635 OFFCURVE",
"86 631 OFFCURVE",
"70 629 QCURVE",
"65 614 OFFCURVE",
"57 583 OFFCURVE",
"52 568 QCURVE",
"50 554 OFFCURVE",
"41 527 OFFCURVE",
"38 514 QCURVE",
"37 505 LINE",
"36 501 LINE SMOOTH",
"34 492 OFFCURVE",
"31 476 OFFCURVE",
"29 468 QCURVE",
"29 466 OFFCURVE",
"28 463 OFFCURVE",
"28 461 QCURVE",
"28 454 OFFCURVE",
"26 441 OFFCURVE",
"25 433 QCURVE SMOOTH",
"23 419 OFFCURVE",
"33 393 OFFCURVE",
"52 374 OFFCURVE",
"77 363 OFFCURVE",
"91 363 QCURVE",
"77 364 OFFCURVE",
"51 353 OFFCURVE",
"31 333 OFFCURVE",
"20 308 OFFCURVE",
"21 294 QCURVE",
"21 281 OFFCURVE",
"22 276 QCURVE SMOOTH",
"26 254 OFFCURVE",
"28 212 OFFCURVE",
"33 192 QCURVE",
"38 167 OFFCURVE",
"50 120 OFFCURVE",
"57 96 QCURVE",
"74 94 OFFCURVE",
"105 89 OFFCURVE",
"122 87 QCURVE SMOOTH",
"156 82 OFFCURVE",
"224 77 OFFCURVE",
"259 74 QCURVE SMOOTH",
"276 72 OFFCURVE",
"313 71 OFFCURVE",
"330 70 QCURVE",
"330 75 OFFCURVE",
"329 84 OFFCURVE",
"329 89 QCURVE",
"323 176 LINE SMOOTH",
"322 190 OFFCURVE",
"320 218 OFFCURVE",
"320 232 QCURVE SMOOTH",
"320 246 OFFCURVE",
"319 274 OFFCURVE",
"319 288 QCURVE SMOOTH",
"319 307 LINE",
"397 307 LINE",
"517 307 LINE",
"557 307 LINE",
"556 274 OFFCURVE",
"557 208 OFFCURVE",
"555 175 QCURVE SMOOTH",
"553 122 OFFCURVE",
"549 68 QCURVE",
"558 70 OFFCURVE",
"576 69 OFFCURVE",
"584 69 QCURVE",
"628 71 OFFCURVE",
"714 77 OFFCURVE",
"757 79 QCURVE",
"770 81 OFFCURVE",
"794 83 OFFCURVE",
"807 85 QCURVE",
"817 89 OFFCURVE",
"823 89 QCURVE",
"825 93 OFFCURVE",
"827 100 OFFCURVE",
"828 105 QCURVE SMOOTH",
"832 117 OFFCURVE",
"837 141 OFFCURVE",
"840 153 QCURVE SMOOTH",
"847 188 OFFCURVE",
"854 256 OFFCURVE",
"857 290 QCURVE",
"857 305 OFFCURVE",
"846 332 OFFCURVE",
"826 352 OFFCURVE",
"800 364 OFFCURVE",
"785 363 QCURVE",
"798 363 OFFCURVE",
"825 374 OFFCURVE",
"845 394 OFFCURVE",
"855 420 OFFCURVE",
"853 434 QCURVE SMOOTH",
"849 468 OFFCURVE",
"838 535 OFFCURVE",
"829 568 QCURVE",
"827 581 OFFCURVE",
"819 603 OFFCURVE",
"817 617 QCURVE",
"812 632 LINE",
"808 633 OFFCURVE",
"800 632 OFFCURVE",
"795 633 QCURVE SMOOTH",
"783 637 OFFCURVE",
"761 639 OFFCURVE",
"748 641 QCURVE SMOOTH"
);
},
{
nodes = (
"766 649 LINE SMOOTH",
"780 647 OFFCURVE",
"798 642 QCURVE",
"820 642 LINE",
"827 620 LINE",
"828 612 OFFCURVE",
"832 598 OFFCURVE",
"834 591 QCURVE SMOOTH",
"836 585 OFFCURVE",
"838 577 OFFCURVE",
"839 571 QCURVE",
"839 569 OFFCURVE",
"840 568 QCURVE",
"854 564 LINE",
"876 564 LINE",
"883 542 LINE",
"884 534 OFFCURVE",
"888 520 OFFCURVE",
"890 513 QCURVE SMOOTH",
"892 507 OFFCURVE",
"894 499 OFFCURVE",
"895 493 QCURVE SMOOTH",
"903 462 OFFCURVE",
"915 392 OFFCURVE",
"919 358 QCURVE SMOOTH",
"921 335 OFFCURVE",
"897 297 OFFCURVE",
"878 286 QCURVE",
"898 275 OFFCURVE",
"923 235 OFFCURVE",
"923 211 QCURVE",
"920 176 OFFCURVE",
"913 107 OFFCURVE",
"906 73 QCURVE",
"902 57 LINE",
"900 46 OFFCURVE",
"896 32 OFFCURVE",
"894 24 QCURVE SMOOTH",
"893 19 OFFCURVE",
"888 7 OFFCURVE",
"886 1 QCURVE",
"878 1 OFFCURVE",
"868 -1 OFFCURVE",
"864 -3 QCURVE",
"867 -3 OFFCURVE",
"863 -4 OFFCURVE",
"853 -5 OFFCURVE",
"842 -6 OFFCURVE",
"839 -6 QCURVE",
"813 -9 LINE",
"746 -13 LINE",
"747 -13 LINE",
"721 -15 OFFCURVE",
"666 -18 OFFCURVE",
"640 -19 QCURVE",
"632 -19 LINE SMOOTH",
"629 -19 OFFCURVE",
"626 -18 OFFCURVE",
"619 -18 OFFCURVE",
"606 -20 OFFCURVE",
"594 -23 QCURVE",
"596 -5 OFFCURVE",
"598 38 OFFCURVE",
"599 59 QCURVE",
"584 59 LINE",
"576 59 LINE SMOOTH",
"573 59 OFFCURVE",
"570 60 OFFCURVE",
"563 60 OFFCURVE",
"550 58 OFFCURVE",
"538 55 QCURVE",
"540 82 OFFCURVE",
"544 149 OFFCURVE",
"545 175 QCURVE",
"545 186 OFFCURVE",
"546 208 OFFCURVE",
"546 219 QCURVE",
"385 219 LINE",
"385 182 LINE SMOOTH",
"385 174 OFFCURVE",
"386 161 OFFCURVE",
"386 154 QCURVE SMOOTH",
"386 145 OFFCURVE",
"387 127 OFFCURVE",
"388 118 QCURVE",
"388 113 OFFCURVE",
"389 104 OFFCURVE",
"389 99 QCURVE",
"395 11 LINE",
"395 1 LINE",
"395 -1 OFFCURVE",
"396 -16 OFFCURVE",
"396 -18 QCURVE",
"381 -18 LINE",
"364 -17 OFFCURVE",
"330 -16 OFFCURVE",
"314 -14 QCURVE",
"280 -11 LINE SMOOTH",
"254 -9 OFFCURVE",
"202 -5 OFFCURVE",
"177 -1 QCURVE SMOOTH",
"169 0 OFFCURVE",
"150 1 OFFCURVE",
"143 3 QCURVE",
"129 4 OFFCURVE",
"111 7 OFFCURVE",
"103 9 QCURVE",
"101 25 LINE",
"101 22 LINE",
"96 37 OFFCURVE",
"89 66 OFFCURVE",
"86 81 QCURVE",
"72 82 OFFCURVE",
"55 85 OFFCURVE",
"47 87 QCURVE",
"45 103 LINE",
"45 100 LINE",
"39 123 OFFCURVE",
"28 167 OFFCURVE",
"23 190 QCURVE SMOOTH",
"21 201 OFFCURVE",
"19 226 OFFCURVE",
"17 237 QCURVE SMOOTH",
"16 247 OFFCURVE",
"14 265 OFFCURVE",
"12 274 QCURVE SMOOTH",
"11 278 OFFCURVE",
"11 288 OFFCURVE",
"11 293 QCURVE",
"9 315 OFFCURVE",
"34 353 OFFCURVE",
"54 364 QCURVE",
"36 375 OFFCURVE",
"13 413 OFFCURVE",
"15 434 QCURVE",
"15 437 OFFCURVE",
"16 444 OFFCURVE",
"16 446 QCURVE",
"17 451 OFFCURVE",
"18 459 OFFCURVE",
"18 464 QCURVE",
"18 465 OFFCURVE",
"19 467 OFFCURVE",
"19 468 QCURVE",
"21 471 OFFCURVE",
"22 481 OFFCURVE",
"23 487 QCURVE SMOOTH",
"26 503 LINE",
"26 502 LINE",
"26 503 OFFCURVE",
"27 504 OFFCURVE",
"27 505 QCURVE",
"28 514 LINE",
"35 537 LINE",
"34 537 LINE",
"36 545 OFFCURVE",
"40 561 OFFCURVE",
"42 572 QCURVE",
"51 601 LINE SMOOTH",
"52 604 OFFCURVE",
"52 608 OFFCURVE",
"53 614 OFFCURVE",
"58 626 OFFCURVE",
"63 638 QCURVE",
"90 642 LINE SMOOTH",
"95 643 OFFCURVE",
"107 645 OFFCURVE",
"114 646 QCURVE SMOOTH",
"130 648 LINE",
"197 656 LINE",
"202 656 OFFCURVE",
"214 657 OFFCURVE",
"220 658 QCURVE",
"223 658 OFFCURVE",
"228 659 OFFCURVE",
"231 659 QCURVE",
"248 661 OFFCURVE",
"283 662 OFFCURVE",
"300 663 QCURVE SMOOTH",
"344 665 LINE",
"338 584 LINE",
"343 585 OFFCURVE",
"351 584 OFFCURVE",
"356 585 QCURVE",
"400 587 LINE",
"391 470 LINE",
"390 466 OFFCURVE",
"390 459 QCURVE SMOOTH",
"390 446 LINE",
"389 432 LINE",
"397 432 LINE",
"436 432 LINE SMOOTH",
"456 432 OFFCURVE",
"495 433 OFFCURVE",
"515 432 QCURVE",
"522 433 OFFCURVE",
"539 433 OFFCURVE",
"546 433 QCURVE",
"546 438 OFFCURVE",
"545 449 OFFCURVE",
"545 454 QCURVE SMOOTH",
"545 462 OFFCURVE",
"544 487 OFFCURVE",
"543 514 OFFCURVE",
"542 540 OFFCURVE",
"542 549 QCURVE",
"541 567 OFFCURVE",
"540 601 OFFCURVE",
"538 618 QCURVE",
"536 666 LINE",
"591 664 OFFCURVE",
"704 657 OFFCURVE",
"749 651 QCURVE SMOOTH"
);
}
);
width = 934;
}
);
unicode = 0058;
},
{
glyphname = Y;
layers = (
{
layerId = "1456D5E5-B8FF-4D35-B4CF-CE3708A5ECC4";
paths = (
{
nodes = (
"697 648 OFFCURVE",
"596 654 OFFCURVE",
"545 656 QCURVE",
"547 629 OFFCURVE",
"550 577 OFFCURVE",
"551 550 QCURVE",
"552 546 OFFCURVE",
"551 538 OFFCURVE",
"551 534 QCURVE",
"552 528 OFFCURVE",
"552 520 OFFCURVE",
"552 515 QCURVE",
"554 492 OFFCURVE",
"554 445 OFFCURVE",
"555 422 QCURVE",
"536 423 OFFCURVE",
"517 422 QCURVE",
"487 423 OFFCURVE",
"427 422 OFFCURVE",
"398 422 QCURVE SMOOTH",
"378 422 OFFCURVE",
"340 421 OFFCURVE",
"320 421 QCURVE",
"320 442 LINE SMOOTH",
"320 456 OFFCURVE",
"322 482 OFFCURVE",
"323 495 QCURVE",
"323 506 LINE",
"324 515 LINE",
"325 523 LINE",
"325 534 LINE SMOOTH",
"325 538 OFFCURVE",
"326 546 OFFCURVE",
"326 550 QCURVE",
"334 655 LINE",
"328 655 LINE",
"304 653 OFFCURVE",
"257 651 OFFCURVE",
"233 649 QCURVE SMOOTH",
"225 648 OFFCURVE",
"207 646 OFFCURVE",
"199 646 QCURVE",
"134 638 LINE",
"119 635 OFFCURVE",
"87 631 OFFCURVE",
"71 629 QCURVE",
"66 614 OFFCURVE",
"58 583 OFFCURVE",
"53 568 QCURVE",
"51 554 OFFCURVE",
"42 527 OFFCURVE",
"39 514 QCURVE",
"38 505 LINE",
"37 501 LINE SMOOTH",
"35 492 OFFCURVE",
"32 476 OFFCURVE",
"30 468 QCURVE",
"29 460 LINE",
"29 453 OFFCURVE",
"26 441 OFFCURVE",
"26 433 QCURVE",
"24 416 LINE",
"23 407 LINE",
"22 400 LINE",
"22 394 OFFCURVE",
"22 385 OFFCURVE",
"21 380 QCURVE SMOOTH",
"20 366 OFFCURVE",
"32 340 OFFCURVE",
"52 320 OFFCURVE",
"78 307 OFFCURVE",
"92 307 QCURVE SMOOTH",
"279 307 LINE",
"279 295 OFFCURVE",
"281 273 OFFCURVE",
"281 262 QCURVE",
"283 214 OFFCURVE",
"290 120 OFFCURVE",
"295 72 QCURVE",
"304 72 OFFCURVE",
"322 71 OFFCURVE",
"331 70 QCURVE SMOOTH",
"349 69 OFFCURVE",
"384 68 OFFCURVE",
"403 68 QCURVE",
"449 67 OFFCURVE",
"538 68 OFFCURVE",
"584 69 QCURVE",
"584 78 LINE",
"585 87 LINE SMOOTH",
"590 142 OFFCURVE",
"596 251 OFFCURVE",
"596 306 QCURVE",
"643 306 OFFCURVE",
"735 307 OFFCURVE",
"783 307 QCURVE SMOOTH",
"797 307 OFFCURVE",
"824 319 OFFCURVE",
"845 339 OFFCURVE",
"857 365 OFFCURVE",
"856 380 QCURVE SMOOTH",
"855 390 LINE",
"855 399 LINE",
"854 407 OFFCURVE",
"854 425 OFFCURVE",
"852 434 QCURVE",
"848 468 OFFCURVE",
"838 535 OFFCURVE",
"829 568 QCURVE",
"827 581 OFFCURVE",
"819 603 OFFCURVE",
"816 616 QCURVE",
"811 632 LINE",
"807 633 OFFCURVE",
"799 632 OFFCURVE",
"794 633 QCURVE SMOOTH",
"782 637 OFFCURVE",
"759 639 OFFCURVE",
"747 641 QCURVE SMOOTH"
);
},
{
nodes = (
"767 648 LINE",
"766 648 LINE",
"773 647 OFFCURVE",
"786 645 OFFCURVE",
"797 642 QCURVE",
"819 642 LINE",
"826 618 LINE",
"826 619 LINE",
"832 598 LINE",
"831 598 LINE",
"834 588 OFFCURVE",
"839 576 OFFCURVE",
"839 571 QCURVE SMOOTH",
"839 568 OFFCURVE",
"840 567 QCURVE",
"853 564 LINE",
"875 564 LINE",
"882 540 LINE",
"882 541 LINE",
"888 520 LINE",
"887 520 LINE",
"890 510 OFFCURVE",
"895 498 OFFCURVE",
"895 493 QCURVE",
"903 462 OFFCURVE",
"914 391 OFFCURVE",
"918 357 QCURVE SMOOTH",
"919 352 OFFCURVE",
"920 339 OFFCURVE",
"920 333 QCURVE SMOOTH",
"920 330 OFFCURVE",
"921 324 OFFCURVE",
"921 321 QCURVE SMOOTH",
"921 312 LINE",
"922 302 LINE",
"923 285 OFFCURVE",
"909 255 OFFCURVE",
"885 232 OFFCURVE",
"855 219 OFFCURVE",
"839 219 QCURVE SMOOTH",
"815 219 OFFCURVE",
"768 218 OFFCURVE",
"745 218 QCURVE SMOOTH",
"662 218 LINE",
"661 167 OFFCURVE",
"656 59 OFFCURVE",
"651 8 QCURVE",
"651 6 OFFCURVE",
"650 2 OFFCURVE",
"650 0 QCURVE",
"650 -19 LINE",
"618 -20 OFFCURVE",
"544 -20 OFFCURVE",
"512 -20 QCURVE SMOOTH",
"459 -20 LINE SMOOTH",
"440 -20 OFFCURVE",
"404 -19 OFFCURVE",
"386 -18 QCURVE SMOOTH",
"377 -17 OFFCURVE",
"357 -16 OFFCURVE",
"342 -16 QCURVE",
"340 2 OFFCURVE",
"337 39 OFFCURVE",
"335 59 QCURVE",
"333 59 OFFCURVE",
"331 60 OFFCURVE",
"330 60 QCURVE",
"321 61 OFFCURVE",
"301 62 OFFCURVE",
"286 62 QCURVE",
"282 99 OFFCURVE",
"275 179 OFFCURVE",
"273 219 QCURVE",
"148 219 LINE SMOOTH",
"132 219 OFFCURVE",
"102 233 OFFCURVE",
"80 256 OFFCURVE",
"66 285 OFFCURVE",
"67 302 QCURVE",
"43 311 OFFCURVE",
"9 355 OFFCURVE",
"11 381 QCURVE",
"12 386 OFFCURVE",
"12 395 OFFCURVE",
"12 400 QCURVE",
"13 407 LINE",
"14 416 LINE",
"16 433 LINE",
"16 441 OFFCURVE",
"18 449 QCURVE SMOOTH",
"19 453 OFFCURVE",
"19 460 QCURVE",
"20 468 LINE",
"22 471 OFFCURVE",
"23 481 OFFCURVE",
"24 487 QCURVE SMOOTH",
"27 503 LINE",
"27 502 LINE",
"27 503 OFFCURVE",
"28 504 OFFCURVE",
"28 505 QCURVE",
"29 514 LINE",
"36 537 LINE",
"35 537 LINE",
"37 545 OFFCURVE",
"41 561 OFFCURVE",
"43 572 QCURVE",
"52 601 LINE SMOOTH",
"53 604 OFFCURVE",
"53 608 OFFCURVE",
"54 614 OFFCURVE",
"59 626 OFFCURVE",
"64 638 QCURVE",
"91 642 LINE SMOOTH",
"96 643 OFFCURVE",
"108 645 OFFCURVE",
"115 646 QCURVE SMOOTH",
"131 648 LINE",
"198 656 LINE",
"203 656 OFFCURVE",
"215 657 OFFCURVE",
"221 658 QCURVE",
"224 658 OFFCURVE",
"229 659 OFFCURVE",
"232 659 QCURVE",
"279 662 LINE SMOOTH",
"291 663 OFFCURVE",
"315 663 OFFCURVE",
"327 665 QCURVE",
"345 665 LINE",
"338 584 LINE",
"349 585 OFFCURVE",
"372 585 OFFCURVE",
"383 587 QCURVE",
"401 587 LINE",
"392 471 LINE",
"392 469 OFFCURVE",
"391 466 OFFCURVE",
"391 464 QCURVE",
"391 445 LINE",
"390 437 LINE",
"389 432 LINE",
"398 432 LINE",
"437 432 LINE SMOOTH",
"457 432 OFFCURVE",
"497 433 OFFCURVE",
"517 432 QCURVE",
"516 432 LINE",
"526 433 OFFCURVE",
"535 434 OFFCURVE",
"545 433 QCURVE",
"545 438 OFFCURVE",
"544 448 OFFCURVE",
"544 453 QCURVE SMOOTH",
"544 469 OFFCURVE",
"543 499 OFFCURVE",
"542 515 QCURVE",
"542 519 OFFCURVE",
"542 527 OFFCURVE",
"541 533 QCURVE",
"541 550 LINE",
"540 568 OFFCURVE",
"539 601 OFFCURVE",
"537 618 QCURVE",
"535 666 LINE",
"592 664 OFFCURVE",
"702 657 OFFCURVE",
"748 651 QCURVE"
);
}
);
width = 933;
}
);
unicode = 0059;
},
{
glyphname = Z;
layers = (
{
layerId = "1456D5E5-B8FF-4D35-B4CF-CE3708A5ECC4";
paths = (
{
nodes = (
"43 508 OFFCURVE",
"108 516 OFFCURVE",
"190 523 OFFCURVE",
"280 529 OFFCURVE",
"361 532 OFFCURVE",
"423 531 OFFCURVE",
"437 528 QCURVE",
"347 480 OFFCURVE",
"223 403 OFFCURVE",
"140 343 OFFCURVE",
"92 299 OFFCURVE",
"64 267 OFFCURVE",
"48 244 OFFCURVE",
"39 237 QCURVE",
"40 217 OFFCURVE",
"41 183 OFFCURVE",
"42 150 OFFCURVE",
"47 116 OFFCURVE",
"53 96 QCURVE",
"89 91 LINE SMOOTH",
"145 83 OFFCURVE",
"255 74 OFFCURVE",
"312 71 QCURVE",
"420 67 OFFCURVE",
"633 71 OFFCURVE",
"740 79 QCURVE SMOOTH",
"760 81 OFFCURVE",
"805 85 OFFCURVE",
"825 89 QCURVE",
"828 124 OFFCURVE",
"843 188 OFFCURVE",
"848 221 QCURVE",
"806 215 OFFCURVE",
"680 203 OFFCURVE",
"549 197 OFFCURVE",
"433 198 OFFCURVE",
"401 204 QCURVE",
"411 213 OFFCURVE",
"480 261 OFFCURVE",
"574 322 OFFCURVE",
"679 390 OFFCURVE",
"771 449 OFFCURVE",
"835 491 OFFCURVE",
"842 497 QCURVE",
"833 632 LINE",
"800 637 OFFCURVE",
"725 645 OFFCURVE",
"648 651 OFFCURVE",
"573 655 OFFCURVE",
"539 656 QCURVE SMOOTH",
"420 661 OFFCURVE",
"179 648 OFFCURVE",
"61 629 QCURVE",
"55 611 OFFCURVE",
"46 581 OFFCURVE",
"38 553 OFFCURVE",
"30 523 OFFCURVE",
"27 504 QCURVE"
);
},
{
nodes = (
"73 428 LINE",
"77 453 OFFCURVE",
"86 487 OFFCURVE",
"91 504 QCURVE",
"71 502 OFFCURVE",
"39 496 OFFCURVE",
"30 494 QCURVE",
"17 506 LINE",
"22 539 OFFCURVE",
"34 580 OFFCURVE",
"42 604 QCURVE SMOOTH",
"54 638 LINE",
"150 654 OFFCURVE",
"343 668 OFFCURVE",
"439 668 QCURVE SMOOTH",
"465 668 OFFCURVE",
"514 667 OFFCURVE",
"539 666 QCURVE SMOOTH",
"573 665 OFFCURVE",
"651 661 OFFCURVE",
"730 655 OFFCURVE",
"807 647 OFFCURVE",
"842 641 QCURVE",
"847 570 LINE",
"898 563 LINE",
"908 415 LINE",
"902 410 OFFCURVE",
"871 389 OFFCURVE",
"827 360 OFFCURVE",
"771 324 OFFCURVE",
"741 305 QCURVE SMOOTH",
"592 209 LINE",
"664 212 OFFCURVE",
"809 225 OFFCURVE",
"860 233 QCURVE",
"858 219 OFFCURVE",
"851 177 OFFCURVE",
"848 163 QCURVE",
"845 146 LINE",
"916 155 LINE",
"914 141 OFFCURVE",
"907 99 OFFCURVE",
"904 85 QCURVE SMOOTH",
"900 65 OFFCURVE",
"892 25 OFFCURVE",
"890 2 QCURVE",
"868 -2 OFFCURVE",
"818 -7 OFFCURVE",
"797 -9 QCURVE SMOOTH",
"726 -14 OFFCURVE",
"585 -20 OFFCURVE",
"514 -20 QCURVE SMOOTH",
"440 -20 OFFCURVE",
"367 -17 QCURVE SMOOTH",
"312 -14 OFFCURVE",
"198 -5 OFFCURVE",
"144 3 QCURVE SMOOTH",
"135 4 OFFCURVE",
"109 8 OFFCURVE",
"101 9 QCURVE",
"94 31 OFFCURVE",
"89 65 OFFCURVE",
"88 81 QCURVE",
"79 82 OFFCURVE",
"53 86 OFFCURVE",
"45 87 QCURVE",
"35 120 OFFCURVE",
"32 167 OFFCURVE",
"31 192 QCURVE",
"31 203 OFFCURVE",
"30 229 OFFCURVE",
"29 242 QCURVE",
"37 248 OFFCURVE",
"46 261 OFFCURVE",
"51 266 QCURVE SMOOTH",
"60 277 OFFCURVE",
"86 308 OFFCURVE",
"132 349 OFFCURVE",
"203 402 OFFCURVE",
"256 435 QCURVE",
"228 433 OFFCURVE",
"176 429 OFFCURVE",
"131 424 OFFCURVE",
"96 419 OFFCURVE",
"86 416 QCURVE"
);
}
);
width = 933;
}
);
unicode = 005A;
},
{
glyphname = D;
layers = (
{
layerId = "1456D5E5-B8FF-4D35-B4CF-CE3708A5ECC4";
paths = (
{
nodes = (
"714 644 LINE",
"722 644 OFFCURVE",
"738 641 OFFCURVE",
"746 641 QCURVE",
"766 640 OFFCURVE",
"798 616 OFFCURVE",
"809 600 QCURVE",
"821 587 OFFCURVE",
"828 568 QCURVE SMOOTH",
"833 552 OFFCURVE",
"839 519 OFFCURVE",
"841 502 QCURVE",
"843 493 OFFCURVE",
"846 477 OFFCURVE",
"848 469 QCURVE",
"850 447 OFFCURVE",
"854 404 OFFCURVE",
"855 381 QCURVE",
"855 373 OFFCURVE",
"856 355 OFFCURVE",
"856 346 QCURVE",
"857 323 OFFCURVE",
"854 278 OFFCURVE",
"852 255 QCURVE SMOOTH",
"850 229 OFFCURVE",
"843 179 OFFCURVE",
"838 153 QCURVE",
"830 125 OFFCURVE",
"784 86 OFFCURVE",
"756 79 QCURVE",
"605 67 OFFCURVE",
"306 68 OFFCURVE",
"156 83 QCURVE",
"147 85 OFFCURVE",
"130 85 OFFCURVE",
"122 87 QCURVE",
"105 89 OFFCURVE",
"74 94 OFFCURVE",
"57 96 QCURVE",
"56 101 OFFCURVE",
"52 111 QCURVE",
"49 124 OFFCURVE",
"41 147 OFFCURVE",
"39 160 QCURVE",
"28 205 OFFCURVE",
"19 298 OFFCURVE",
"19 346 QCURVE",
"18 355 OFFCURVE",
"20 373 OFFCURVE",
"20 381 QCURVE",
"24 459 OFFCURVE",
"44 534 QCURVE SMOOTH",
"46 542 OFFCURVE",
"50 559 OFFCURVE",
"52 568 QCURVE",
"59 589 LINE",
"61 597 LINE",
"66 614 LINE",
"68 620 LINE",
"70 629 LINE",
"86 631 OFFCURVE",
"118 635 OFFCURVE",
"133 638 QCURVE SMOOTH",
"148 640 OFFCURVE",
"177 643 OFFCURVE",
"191 645 QCURVE",
"419 668 OFFCURVE",
"648 651 QCURVE"
);
},
{
nodes = (
"553 209 OFFCURVE",
"555 236 OFFCURVE",
"555 249 QCURVE SMOOTH",
"555 284 OFFCURVE",
"556 350 OFFCURVE",
"555 384 QCURVE",
"555 407 OFFCURVE",
"554 456 OFFCURVE",
"553 479 QCURVE SMOOTH",
"550 535 LINE",
"551 542 OFFCURVE",
"550 550 QCURVE",
"493 552 OFFCURVE",
"382 552 OFFCURVE",
"325 550 QCURVE",
"319 466 OFFCURVE",
"319 384 QCURVE",
"317 280 OFFCURVE",
"322 176 QCURVE",
"380 174 OFFCURVE",
"494 175 OFFCURVE",
"552 175 QCURVE",
"552 180 OFFCURVE",
"553 190 OFFCURVE",
"553 195 QCURVE SMOOTH"
);
},
{
nodes = (
"649 661 LINE",
"601 665 OFFCURVE",
"503 668 OFFCURVE",
"454 668 QCURVE SMOOTH",
"387 668 OFFCURVE",
"256 662 OFFCURVE",
"190 655 QCURVE SMOOTH",
"163 652 LINE",
"130 648 LINE",
"114 646 LINE SMOOTH",
"107 645 OFFCURVE",
"95 643 OFFCURVE",
"90 642 QCURVE SMOOTH",
"60 638 LINE",
"58 620 LINE",
"58 619 OFFCURVE",
"56 615 OFFCURVE",
"56 614 QCURVE",
"51 599 LINE",
"51 597 OFFCURVE",
"49 592 OFFCURVE",
"49 590 QCURVE",
"49 592 LINE",
"42 572 LINE",
"40 561 OFFCURVE",
"36 545 OFFCURVE",
"34 537 QCURVE SMOOTH",
"14 463 OFFCURVE",
"10 381 QCURVE",
"10 378 OFFCURVE",
"9 372 OFFCURVE",
"9 368 QCURVE SMOOTH",
"9 345 LINE SMOOTH",
"9 298 OFFCURVE",
"19 202 OFFCURVE",
"29 158 QCURVE SMOOTH",
"30 153 OFFCURVE",
"33 138 OFFCURVE",
"37 129 QCURVE",
"36 129 LINE",
"40 113 LINE",
"42 108 OFFCURVE",
"46 96 OFFCURVE",
"48 87 QCURVE",
"56 85 OFFCURVE",
"74 82 OFFCURVE",
"85 81 QCURVE",
"85 80 LINE",
"86 75 OFFCURVE",
"89 60 OFFCURVE",
"93 51 QCURVE",
"92 51 LINE",
"96 35 LINE",
"98 30 OFFCURVE",
"102 18 OFFCURVE",
"104 9 QCURVE",
"112 7 OFFCURVE",
"132 4 OFFCURVE",
"143 3 QCURVE",
"151 1 OFFCURVE",
"169 0 OFFCURVE",
"177 -1 QCURVE SMOOTH",
"195 -3 LINE",
"198 -3 OFFCURVE",
"205 -4 OFFCURVE",
"210 -5 QCURVE SMOOTH",
"289 -13 OFFCURVE",
"447 -21 OFFCURVE",
"528 -21 QCURVE SMOOTH",
"674 -21 OFFCURVE",
"815 -9 QCURVE",
"845 -1 OFFCURVE",
"896 41 OFFCURVE",
"904 72 QCURVE",
"909 97 OFFCURVE",
"916 149 OFFCURVE",
"918 176 QCURVE",
"918 180 OFFCURVE",
"919 192 OFFCURVE",
"919 196 QCURVE",
"921 213 OFFCURVE",
"923 250 OFFCURVE",
"922 268 QCURVE",
"922 273 OFFCURVE",
"921 281 OFFCURVE",
"921 286 QCURVE SMOOTH",
"921 303 LINE",
"920 326 OFFCURVE",
"916 369 OFFCURVE",
"914 391 QCURVE",
"912 394 OFFCURVE",
"911 404 OFFCURVE",
"910 410 QCURVE SMOOTH",
"907 426 LINE",
"905 440 OFFCURVE",
"898 475 OFFCURVE",
"893 493 QCURVE",
"889 503 OFFCURVE",
"880 521 OFFCURVE",
"873 528 QCURVE",
"866 537 OFFCURVE",
"850 555 OFFCURVE",
"839 561 QCURVE",
"837 571 LINE",
"833 581 OFFCURVE",
"824 599 OFFCURVE",
"817 606 QCURVE",
"805 623 OFFCURVE",
"769 650 OFFCURVE",
"746 651 QCURVE",
"738 651 OFFCURVE",
"733 652 QCURVE SMOOTH",
"723 654 OFFCURVE",
"715 654 QCURVE"
);
},
{
nodes = (
"543 192 OFFCURVE",
"542 187 OFFCURVE",
"542 185 QCURVE",
"494 185 LINE SMOOTH",
"466 185 OFFCURVE",
"412 184 OFFCURVE",
"385 185 QCURVE",
"385 254 LINE",
"385 306 LINE SMOOTH",
"385 344 OFFCURVE",
"388 424 OFFCURVE",
"390 462 QCURVE",
"421 463 OFFCURVE",
"473 464 OFFCURVE",
"504 464 QCURVE SMOOTH",
"543 464 LINE",
"544 444 OFFCURVE",
"545 404 OFFCURVE",
"545 384 QCURVE SMOOTH",
"545 249 LINE SMOOTH",
"545 244 OFFCURVE",
"544 229 OFFCURVE",
"544 224 QCURVE",
"543 218 OFFCURVE",
"543 201 OFFCURVE",
"543 195 QCURVE SMOOTH"
);
}
);
width = 933;
}
);
unicode = 0044;
},
{
glyphname = exclam;
layers = (
{
layerId = "1456D5E5-B8FF-4D35-B4CF-CE3708A5ECC4";
paths = (
{
nodes = (
"25 191 LINE",
"35 94 LINE",
"44 91 OFFCURVE",
"61 86 OFFCURVE",
"69 83 QCURVE",
"104 74 OFFCURVE",
"176 67 OFFCURVE",
"211 68 QCURVE",
"247 68 OFFCURVE",
"280 74 QCURVE SMOOTH",
"289 76 OFFCURVE",
"307 77 OFFCURVE",
"315 79 QCURVE",
"318 105 OFFCURVE",
"322 156 OFFCURVE",
"323 182 QCURVE",
"305 180 OFFCURVE",
"268 176 OFFCURVE",
"249 176 QCURVE",
"211 174 OFFCURVE",
"135 176 OFFCURVE",
"97 180 QCURVE SMOOTH",
"88 181 OFFCURVE",
"70 183 OFFCURVE",
"61 184 QCURVE"
);
},
{
nodes = (
"41 255 OFFCURVE",
"76 253 OFFCURVE",
"95 252 QCURVE SMOOTH",
"153 249 OFFCURVE",
"267 250 OFFCURVE",
"326 253 QCURVE",
"328 263 OFFCURVE",
"327 279 OFFCURVE",
"327 288 QCURVE SMOOTH",
"327 293 OFFCURVE",
"328 302 OFFCURVE",
"328 307 QCURVE",
"330 391 OFFCURVE",
"320 556 OFFCURVE",
"311 641 QCURVE",
"245 660 OFFCURVE",
"105 655 OFFCURVE",
"39 630 QCURVE",
"31 560 OFFCURVE",
"20 417 OFFCURVE",
"20 345 QCURVE",
"19 323 OFFCURVE",
"21 279 OFFCURVE",
"22 257 QCURVE"
);
},
{
nodes = (
"67 193 LINE",
"67 200 LINE",
"66 209 OFFCURVE",
"65 232 OFFCURVE",
"65 243 QCURVE",
"56 243 OFFCURVE",
"38 245 OFFCURVE",
"30 246 QCURVE",
"28 246 OFFCURVE",
"24 247 OFFCURVE",
"22 247 QCURVE",
"12 257 LINE",
"12 262 OFFCURVE",
"11 273 OFFCURVE",
"11 278 QCURVE",
"10 293 OFFCURVE",
"9 330 OFFCURVE",
"10 345 QCURVE",
"10 417 OFFCURVE",
"21 563 OFFCURVE",
"30 637 QCURVE",
"71 652 OFFCURVE",
"152 668 OFFCURVE",
"192 668 QCURVE SMOOTH",
"224 668 OFFCURVE",
"288 658 OFFCURVE",
"320 649 QCURVE",
"327 582 LINE",
"339 580 OFFCURVE",
"363 574 OFFCURVE",
"376 571 QCURVE",
"394 413 OFFCURVE",
"394 267 QCURVE SMOOTH",
"394 220 LINE",
"394 218 OFFCURVE",
"393 213 OFFCURVE",
"393 210 QCURVE SMOOTH",
"393 201 LINE SMOOTH",
"393 195 OFFCURVE",
"393 180 OFFCURVE",
"391 165 QCURVE",
"332 162 LINE",
"328 108 LINE",
"343 109 OFFCURVE",
"374 113 OFFCURVE",
"389 115 QCURVE",
"388 81 OFFCURVE",
"383 20 OFFCURVE",
"380 -8 QCURVE",
"355 -12 LINE",
"338 -14 LINE",
"322 -17 OFFCURVE",
"285 -20 OFFCURVE",
"267 -20 QCURVE",
"230 -21 OFFCURVE",
"157 -14 OFFCURVE",
"122 -5 QCURVE",
"102 2 LINE",
"103 1 LINE",
"101 1 OFFCURVE",
"89 6 OFFCURVE",
"82 9 QCURVE",
"75 70 LINE",
"66 73 LINE",
"46 80 LINE",
"47 79 LINE",
"45 79 OFFCURVE",
"33 84 OFFCURVE",
"26 87 QCURVE",
"14 203 LINE",
"63 194 LINE",
"62 194 LINE"
);
}
);
width = 403;
}
);
unicode = 0021;
},
{
glyphname = quotedbl;
layers = (
{
layerId = "1456D5E5-B8FF-4D35-B4CF-CE3708A5ECC4";
paths = (
{
nodes = (
"20 536 OFFCURVE",
"24 502 OFFCURVE",
"29 485 QCURVE",
"32 477 LINE",
"60 475 OFFCURVE",
"115 473 OFFCURVE",
"143 471 QCURVE",
"145 473 OFFCURVE",
"151 478 OFFCURVE",
"154 480 QCURVE SMOOTH",
"177 500 OFFCURVE",
"224 534 OFFCURVE",
"247 554 QCURVE",
"247 582 OFFCURVE",
"249 637 OFFCURVE",
"251 665 QCURVE",
"200 664 OFFCURVE",
"99 659 OFFCURVE",
"48 654 QCURVE",
"37 630 OFFCURVE",
"22 579 OFFCURVE",
"21 553 QCURVE SMOOTH"
);
},
{
nodes = (
"269 469 LINE",
"299 469 OFFCURVE",
"357 470 OFFCURVE",
"386 470 QCURVE",
"391 472 OFFCURVE",
"398 477 OFFCURVE",
"402 480 QCURVE SMOOTH",
"427 498 OFFCURVE",
"475 533 OFFCURVE",
"499 553 QCURVE",
"498 579 OFFCURVE",
"485 631 OFFCURVE",
"476 656 QCURVE",
"374 665 OFFCURVE",
"269 665 QCURVE",
"267 572 OFFCURVE",
"269 478 QCURVE"
);
},
{
nodes = (
"315 400 LINE",
"314 415 OFFCURVE",
"314 445 OFFCURVE",
"314 460 QCURVE",
"310 460 OFFCURVE",
"304 459 OFFCURVE",
"299 459 QCURVE",
"289 451 OFFCURVE",
"268 435 OFFCURVE",
"259 428 QCURVE SMOOTH",
"218 395 LINE",
"213 393 OFFCURVE",
"206 386 OFFCURVE",
"203 383 QCURVE",
"162 385 LINE SMOOTH",
"143 386 OFFCURVE",
"100 387 OFFCURVE",
"81 389 QCURVE",
"80 390 OFFCURVE",
"79 393 QCURVE SMOOTH",
"78 395 OFFCURVE",
"76 400 OFFCURVE",
"75 403 QCURVE SMOOTH",
"70 417 OFFCURVE",
"67 448 OFFCURVE",
"67 464 QCURVE",
"25 467 LINE",
"24 468 OFFCURVE",
"23 471 QCURVE SMOOTH",
"22 473 OFFCURVE",
"20 478 OFFCURVE",
"19 481 QCURVE SMOOTH",
"9 513 OFFCURVE",
"11 553 QCURVE SMOOTH",
"12 580 OFFCURVE",
"29 635 OFFCURVE",
"42 663 QCURVE",
"96 669 OFFCURVE",
"205 674 OFFCURVE",
"259 675 QCURVE",
"381 675 OFFCURVE",
"483 666 QCURVE",
"490 648 OFFCURVE",
"501 611 OFFCURVE",
"504 591 QCURVE",
"539 588 LINE",
"550 560 OFFCURVE",
"564 501 OFFCURVE",
"565 470 QCURVE",
"543 452 OFFCURVE",
"495 417 OFFCURVE",
"472 400 QCURVE",
"473 401 LINE",
"464 394 LINE SMOOTH",
"460 391 OFFCURVE",
"452 385 OFFCURVE",
"444 382 QCURVE",
"384 382 LINE SMOOTH",
"370 382 OFFCURVE",
"330 381 OFFCURVE",
"315 381 QCURVE"
);
},
{
nodes = (
"258 615 LINE",
"257 610 OFFCURVE",
"257 601 OFFCURVE",
"257 596 QCURVE",
"258 596 LINE"
);
}
);
width = 576;
}
);
unicode = 0022;
},
{
glyphname = quotesingle;
layers = (
{
layerId = "1456D5E5-B8FF-4D35-B4CF-CE3708A5ECC4";
paths = (
{
nodes = (
"20 536 OFFCURVE",
"21 501 OFFCURVE",
"24 484 QCURVE",
"25 476 LINE",
"53 473 OFFCURVE",
"109 469 OFFCURVE",
"138 469 QCURVE",
"141 472 OFFCURVE",
"149 476 OFFCURVE",
"153 478 QCURVE",
"177 497 OFFCURVE",
"227 533 OFFCURVE",
"251 553 QCURVE",
"251 579 OFFCURVE",
"245 633 OFFCURVE",
"241 660 QCURVE",
"190 666 OFFCURVE",
"84 664 OFFCURVE",
"33 655 QCURVE",
"22 608 OFFCURVE",
"20 553 QCURVE"
);
},
{
nodes = (
"11 605 OFFCURVE",
"25 664 QCURVE",
"57 670 OFFCURVE",
"121 675 OFFCURVE",
"153 675 QCURVE SMOOTH",
"197 675 OFFCURVE",
"250 669 QCURVE",
"252 650 OFFCURVE",
"257 614 OFFCURVE",
"259 595 QCURVE",
"270 594 OFFCURVE",
"294 593 OFFCURVE",
"306 591 QCURVE",
"310 561 OFFCURVE",
"317 502 OFFCURVE",
"317 470 QCURVE",
"302 457 OFFCURVE",
"268 432 OFFCURVE",
"253 421 QCURVE SMOOTH",
"234 408 OFFCURVE",
"215 392 QCURVE",
"214 391 OFFCURVE",
"213 391 OFFCURVE",
"212 390 QCURVE",
"211 389 OFFCURVE",
"210 389 QCURVE",
"207 387 OFFCURVE",
"203 386 OFFCURVE",
"198 381 QCURVE",
"185 381 OFFCURVE",
"119 387 OFFCURVE",
"75 392 QCURVE",
"74 393 OFFCURVE",
"73 395 QCURVE SMOOTH",
"72 397 OFFCURVE",
"70 401 OFFCURVE",
"70 404 QCURVE",
"67 418 OFFCURVE",
"66 449 OFFCURVE",
"66 465 QCURVE",
"55 466 OFFCURVE",
"31 468 OFFCURVE",
"19 470 QCURVE",
"18 471 OFFCURVE",
"17 473 QCURVE SMOOTH",
"16 475 OFFCURVE",
"14 479 OFFCURVE",
"14 482 QCURVE",
"11 499 OFFCURVE",
"10 536 OFFCURVE",
"10 553 QCURVE"
);
}
);
width = 328;
}
);
unicode = 0027;
},
{
glyphname = comma;
layers = (
{
layerId = "1456D5E5-B8FF-4D35-B4CF-CE3708A5ECC4";
paths = (
{
nodes = (
"29 138 OFFCURVE",
"20 87 OFFCURVE",
"19 61 QCURVE",
"92 61 LINE",
"92 42 OFFCURVE",
"93 5 OFFCURVE",
"95 -13 QCURVE",
"97 -22 LINE",
"126 -24 OFFCURVE",
"185 -24 OFFCURVE",
"215 -24 QCURVE",
"219 -22 OFFCURVE",
"226 -18 OFFCURVE",
"228 -15 QCURVE",
"253 4 OFFCURVE",
"303 41 OFFCURVE",
"327 61 QCURVE",
"325 114 OFFCURVE",
"312 165 QCURVE",
"260 170 OFFCURVE",
"156 173 OFFCURVE",
"102 169 QCURVE",
"86 167 OFFCURVE",
"54 164 OFFCURVE",
"37 162 QCURVE"
);
},
{
nodes = (
"36 172 LINE",
"51 174 OFFCURVE",
"82 176 OFFCURVE",
"96 178 QCURVE",
"98 178 OFFCURVE",
"99 179 OFFCURVE",
"101 179 QCURVE",
"120 181 OFFCURVE",
"163 182 OFFCURVE",
"182 182 QCURVE SMOOTH",
"214 182 OFFCURVE",
"283 178 OFFCURVE",
"320 174 QCURVE",
"325 155 OFFCURVE",
"332 119 OFFCURVE",
"334 100 QCURVE",
"376 96 LINE",
"384 67 OFFCURVE",
"392 8 OFFCURVE",
"393 -22 QCURVE",
"374 -37 OFFCURVE",
"333 -70 OFFCURVE",
"313 -84 QCURVE",
"291 -101 LINE SMOOTH",
"289 -103 OFFCURVE",
"282 -107 OFFCURVE",
"277 -110 QCURVE",
"271 -112 LINE",
"241 -112 OFFCURVE",
"172 -112 OFFCURVE",
"143 -110 QCURVE",
"141 -92 LINE SMOOTH",
"139 -78 OFFCURVE",
"138 -49 OFFCURVE",
"138 -33 QCURVE",
"124 -33 OFFCURVE",
"98 -33 OFFCURVE",
"87 -32 QCURVE",
"86 -27 LINE",
"65 -27 LINE",
"65 13 OFFCURVE",
"73 51 QCURVE",
"9 51 LINE",
"10 84 OFFCURVE",
"19 142 OFFCURVE",
"27 165 QCURVE"
);
}
);
width = 403;
}
);
unicode = 002C;
},
{
glyphname = period;
layers = (
{
layerId = "1456D5E5-B8FF-4D35-B4CF-CE3708A5ECC4";
paths = (
{
nodes = (
"333 117 OFFCURVE",
"313 169 QCURVE",
"244 174 OFFCURVE",
"106 172 OFFCURVE",
"37 167 QCURVE",
"25 144 OFFCURVE",
"16 90 OFFCURVE",
"22 64 QCURVE",
"97 61 OFFCURVE",
"249 61 OFFCURVE",
"324 63 QCURVE"
);
},
{
nodes = (
"380 -25 LINE",
"342 -26 OFFCURVE",
"267 -27 OFFCURVE",
"229 -27 QCURVE SMOOTH",
"191 -27 OFFCURVE",
"108 -26 OFFCURVE",
"70 -24 QCURVE",
"68 -11 OFFCURVE",
"65 8 OFFCURVE",
"65 16 QCURVE SMOOTH",
"65 30 OFFCURVE",
"70 52 QCURVE",
"56 52 OFFCURVE",
"28 53 OFFCURVE",
"14 54 QCURVE",
"12 67 OFFCURVE",
"9 86 OFFCURVE",
"9 94 QCURVE SMOOTH",
"9 114 OFFCURVE",
"21 157 OFFCURVE",
"31 177 QCURVE",
"69 180 OFFCURVE",
"153 183 OFFCURVE",
"191 183 QCURVE SMOOTH",
"222 183 OFFCURVE",
"290 181 OFFCURVE",
"320 179 QCURVE",
"336 137 OFFCURVE",
"337 103 QCURVE",
"347 103 OFFCURVE",
"366 102 OFFCURVE",
"376 101 QCURVE",
"393 56 OFFCURVE",
"393 18 QCURVE SMOOTH",
"393 -1 OFFCURVE",
"390 -17 QCURVE"
);
}
);
width = 403;
}
);
unicode = 002E;
},
{
glyphname = zero;
layers = (
{
layerId = "1456D5E5-B8FF-4D35-B4CF-CE3708A5ECC4";
paths = (
{
nodes = (
"707 645 OFFCURVE",
"690 646 OFFCURVE",
"682 648 QCURVE",
"665 650 LINE",
"654 650 OFFCURVE",
"649 651 QCURVE",
"544 659 OFFCURVE",
"337 658 OFFCURVE",
"233 649 QCURVE",
"166 642 LINE SMOOTH",
"158 641 OFFCURVE",
"142 639 OFFCURVE",
"134 638 QCURVE",
"96 630 OFFCURVE",
"71 598 QCURVE SMOOTH",
"65 591 OFFCURVE",
"57 576 OFFCURVE",
"53 568 QCURVE",
"37 501 LINE SMOOTH",
"35 492 OFFCURVE",
"32 476 OFFCURVE",
"30 468 QCURVE",
"27 447 OFFCURVE",
"23 404 OFFCURVE",
"21 381 QCURVE",
"21 373 OFFCURVE",
"19 355 OFFCURVE",
"20 346 QCURVE",
"19 324 OFFCURVE",
"23 279 OFFCURVE",
"25 257 QCURVE SMOOTH",
"27 232 OFFCURVE",
"35 185 OFFCURVE",
"40 160 QCURVE",
"48 131 OFFCURVE",
"96 92 OFFCURVE",
"123 87 QCURVE",
"184 80 OFFCURVE",
"305 71 OFFCURVE",
"366 69 QCURVE SMOOTH",
"439 67 OFFCURVE",
"582 69 OFFCURVE",
"654 72 QCURVE",
"663 73 OFFCURVE",
"681 75 OFFCURVE",
"689 75 QCURVE",
"698 76 OFFCURVE",
"715 77 OFFCURVE",
"723 77 QCURVE SMOOTH",
"732 77 OFFCURVE",
"749 79 OFFCURVE",
"757 79 QCURVE",
"785 86 OFFCURVE",
"831 125 OFFCURVE",
"839 153 QCURVE",
"857 247 OFFCURVE",
"857 346 QCURVE SMOOTH",
"857 355 OFFCURVE",
"856 373 OFFCURVE",
"856 381 QCURVE",
"854 420 OFFCURVE",
"844 497 OFFCURVE",
"836 536 QCURVE SMOOTH",
"834 544 OFFCURVE",
"831 560 OFFCURVE",
"829 568 QCURVE SMOOTH",
"826 576 OFFCURVE",
"818 593 OFFCURVE",
"811 600 QCURVE",
"800 617 OFFCURVE",
"767 639 OFFCURVE",
"747 641 QCURVE",
"739 641 OFFCURVE",
"723 644 OFFCURVE",
"715 644 QCURVE"
);
},
{
nodes = (
"553 175 LINE",
"495 175 OFFCURVE",
"381 174 OFFCURVE",
"323 176 QCURVE",
"322 181 OFFCURVE",
"322 191 OFFCURVE",
"322 196 QCURVE",
"321 209 OFFCURVE",
"320 237 OFFCURVE",
"320 250 QCURVE",
"318 308 OFFCURVE",
"320 422 OFFCURVE",
"322 479 QCURVE SMOOTH",
"323 493 OFFCURVE",
"325 520 OFFCURVE",
"325 535 QCURVE SMOOTH",
"325 545 OFFCURVE",
"326 550 QCURVE",
"383 552 OFFCURVE",
"494 552 OFFCURVE",
"551 550 QCURVE",
"553 508 OFFCURVE",
"556 426 OFFCURVE",
"556 384 QCURVE",
"557 346 OFFCURVE",
"556 270 OFFCURVE",
"555 232 QCURVE SMOOTH"
);
},
{
nodes = (
"715 654 LINE",
"721 654 OFFCURVE",
"730 653 OFFCURVE",
"734 652 QCURVE SMOOTH",
"739 651 OFFCURVE",
"748 651 QCURVE",
"793 647 OFFCURVE",
"818 607 QCURVE",
"825 599 OFFCURVE",
"835 577 OFFCURVE",
"840 566 QCURVE",
"840 561 LINE",
"860 551 OFFCURVE",
"874 529 QCURVE",
"881 521 OFFCURVE",
"891 499 OFFCURVE",
"896 488 QCURVE",
"898 476 LINE",
"902 460 LINE",
"919 381 OFFCURVE",
"922 303 QCURVE",
"922 286 LINE SMOOTH",
"922 281 OFFCURVE",
"923 273 OFFCURVE",
"923 268 QCURVE SMOOTH",
"923 166 OFFCURVE",
"905 72 QCURVE",
"897 42 OFFCURVE",
"846 -1 OFFCURVE",
"815 -9 QCURVE",
"811 -9 OFFCURVE",
"803 -10 OFFCURVE",
"799 -10 QCURVE",
"794 -11 OFFCURVE",
"784 -11 OFFCURVE",
"779 -11 QCURVE SMOOTH",
"771 -11 OFFCURVE",
"756 -12 OFFCURVE",
"745 -13 QCURVE",
"740 -13 OFFCURVE",
"729 -14 OFFCURVE",
"723 -15 QCURVE",
"720 -15 OFFCURVE",
"713 -16 OFFCURVE",
"710 -16 QCURVE",
"663 -18 OFFCURVE",
"565 -20 OFFCURVE",
"518 -20 QCURVE SMOOTH",
"494 -20 OFFCURVE",
"446 -20 OFFCURVE",
"422 -19 QCURVE SMOOTH",
"360 -17 OFFCURVE",
"235 -8 OFFCURVE",
"176 -1 QCURVE",
"147 5 OFFCURVE",
"94 47 OFFCURVE",
"86 79 QCURVE SMOOTH",
"83 91 LINE",
"64 102 OFFCURVE",
"35 135 OFFCURVE",
"30 157 QCURVE SMOOTH",
"25 180 OFFCURVE",
"17 230 OFFCURVE",
"15 256 QCURVE SMOOTH",
"13 276 OFFCURVE",
"9 324 OFFCURVE",
"10 345 QCURVE",
"10 368 LINE SMOOTH",
"10 372 OFFCURVE",
"11 379 OFFCURVE",
"11 382 QCURVE",
"14 409 LINE SMOOTH",
"16 423 OFFCURVE",
"18 453 OFFCURVE",
"20 467 QCURVE",
"24 487 LINE",
"27 503 LINE",
"43 570 LINE",
"43 568 LINE",
"43 570 OFFCURVE",
"45 572 OFFCURVE",
"45 573 QCURVE",
"49 581 OFFCURVE",
"58 599 OFFCURVE",
"63 605 QCURVE",
"63 604 LINE",
"77 621 OFFCURVE",
"111 644 OFFCURVE",
"132 648 QCURVE",
"138 648 OFFCURVE",
"148 650 QCURVE",
"166 652 LINE",
"165 652 LINE",
"232 659 LINE",
"340 668 OFFCURVE",
"450 668 QCURVE SMOOTH",
"500 668 OFFCURVE",
"602 665 OFFCURVE",
"652 661 QCURVE",
"657 660 OFFCURVE",
"665 660 QCURVE",
"684 658 LINE",
"691 658 OFFCURVE",
"708 655 OFFCURVE",
"714 654 QCURVE"
);
},
{
nodes = (
"545 232 LINE SMOOTH",
"546 259 OFFCURVE",
"546 312 OFFCURVE",
"546 339 QCURVE SMOOTH",
"546 384 LINE SMOOTH",
"546 405 OFFCURVE",
"546 444 OFFCURVE",
"545 464 QCURVE",
"505 464 LINE SMOOTH",
"474 464 OFFCURVE",
"422 463 OFFCURVE",
"391 462 QCURVE",
"391 457 LINE SMOOTH",
"391 446 OFFCURVE",
"390 425 OFFCURVE",
"389 417 QCURVE",
"389 414 OFFCURVE",
"388 405 OFFCURVE",
"388 401 QCURVE SMOOTH",
"388 393 OFFCURVE",
"387 377 OFFCURVE",
"387 369 QCURVE",
"386 338 OFFCURVE",
"384 277 OFFCURVE",
"384 245 QCURVE SMOOTH",
"384 230 OFFCURVE",
"384 200 OFFCURVE",
"385 185 QCURVE",
"413 184 OFFCURVE",
"467 185 OFFCURVE",
"495 185 QCURVE SMOOTH",
"543 185 LINE"
);
}
);
width = 933;
}
);
unicode = 0030;
},
{
glyphname = one;
layers = (
{
layerId = "1456D5E5-B8FF-4D35-B4CF-CE3708A5ECC4";
paths = (
{
nodes = (
"38 606 OFFCURVE",
"31 558 OFFCURVE",
"27 535 QCURVE",
"58 540 OFFCURVE",
"121 546 OFFCURVE",
"153 548 QCURVE",
"151 506 OFFCURVE",
"148 425 OFFCURVE",
"148 383 QCURVE SMOOTH",
"148 345 LINE",
"148 327 LINE SMOOTH",
"148 263 OFFCURVE",
"152 137 OFFCURVE",
"156 73 QCURVE",
"183 70 OFFCURVE",
"237 68 OFFCURVE",
"264 68 QCURVE SMOOTH",
"283 68 OFFCURVE",
"319 69 OFFCURVE",
"336 70 QCURVE SMOOTH",
"362 72 OFFCURVE",
"414 79 OFFCURVE",
"439 84 QCURVE",
"449 150 OFFCURVE",
"458 279 OFFCURVE",
"458 345 QCURVE SMOOTH",
"458 354 OFFCURVE",
"459 373 OFFCURVE",
"457 381 QCURVE",
"457 421 OFFCURVE",
"451 498 OFFCURVE",
"447 538 QCURVE",
"435 637 LINE",
"418 640 OFFCURVE",
"386 647 OFFCURVE",
"369 650 QCURVE SMOOTH",
"347 653 OFFCURVE",
"304 657 OFFCURVE",
"283 657 QCURVE",
"159 663 OFFCURVE",
"43 630 QCURVE"
);
},
{
nodes = (
"40 640 LINE",
"136 668 OFFCURVE",
"245 668 QCURVE SMOOTH",
"253 668 OFFCURVE",
"276 668 OFFCURVE",
"284 667 QCURVE SMOOTH",
"304 666 OFFCURVE",
"350 663 OFFCURVE",
"370 660 QCURVE",
"444 646 LINE",
"452 577 LINE",
"463 575 LINE",
"500 568 LINE",
"513 461 LINE SMOOTH",
"517 422 OFFCURVE",
"523 345 OFFCURVE",
"523 305 QCURVE",
"524 299 OFFCURVE",
"524 283 OFFCURVE",
"524 276 QCURVE SMOOTH",
"524 267 LINE SMOOTH",
"524 200 OFFCURVE",
"515 66 OFFCURVE",
"504 -3 QCURVE",
"452 -13 OFFCURVE",
"392 -18 QCURVE SMOOTH",
"375 -19 OFFCURVE",
"339 -20 OFFCURVE",
"320 -20 QCURVE SMOOTH",
"292 -20 OFFCURVE",
"234 -18 OFFCURVE",
"202 -14 QCURVE",
"200 4 OFFCURVE",
"199 40 OFFCURVE",
"198 59 QCURVE",
"185 60 OFFCURVE",
"160 62 OFFCURVE",
"146 64 QCURVE",
"142 128 OFFCURVE",
"138 263 OFFCURVE",
"138 327 QCURVE SMOOTH",
"138 383 LINE",
"138 455 LINE",
"121 453 OFFCURVE",
"88 448 OFFCURVE",
"71 445 QCURVE",
"77 484 LINE SMOOTH",
"79 496 OFFCURVE",
"82 521 OFFCURVE",
"84 533 QCURVE",
"67 531 OFFCURVE",
"32 526 OFFCURVE",
"15 523 QCURVE",
"21 562 LINE SMOOTH",
"26 600 OFFCURVE",
"33 632 QCURVE"
);
}
);
width = 539;
}
);
unicode = 0031;
},
{
glyphname = two;
layers = (
{
layerId = "1456D5E5-B8FF-4D35-B4CF-CE3708A5ECC4";
paths = (
{
nodes = (
"674 650 OFFCURVE",
"657 650 OFFCURVE",
"649 651 QCURVE SMOOTH",
"579 656 OFFCURVE",
"440 659 OFFCURVE",
"369 656 QCURVE",
"361 656 OFFCURVE",
"342 655 OFFCURVE",
"334 655 QCURVE",
"284 652 OFFCURVE",
"185 645 OFFCURVE",
"134 638 QCURVE",
"106 633 OFFCURVE",
"63 594 OFFCURVE",
"53 568 QCURVE",
"48 543 OFFCURVE",
"35 494 OFFCURVE",
"30 468 QCURVE",
"103 473 OFFCURVE",
"249 477 OFFCURVE",
"322 479 QCURVE",
"322 488 OFFCURVE",
"324 506 OFFCURVE",
"324 515 QCURVE SMOOTH",
"324 523 OFFCURVE",
"326 541 OFFCURVE",
"326 550 QCURVE",
"335 550 OFFCURVE",
"353 552 OFFCURVE",
"362 551 QCURVE",
"410 553 OFFCURVE",
"503 552 OFFCURVE",
"551 550 QCURVE",
"552 544 OFFCURVE",
"552 531 OFFCURVE",
"552 524 QCURVE SMOOTH",
"552 517 OFFCURVE",
"552 503 OFFCURVE",
"553 495 QCURVE",
"555 422 LINE",
"535 423 OFFCURVE",
"496 421 OFFCURVE",
"476 422 QCURVE",
"359 422 LINE SMOOTH",
"348 422 OFFCURVE",
"330 421 OFFCURVE",
"320 421 QCURVE SMOOTH",
"299 421 LINE SMOOTH",
"198 421 OFFCURVE",
"95 418 QCURVE",
"75 419 OFFCURVE",
"40 396 OFFCURVE",
"29 379 QCURVE",
"26 370 LINE",
"22 360 LINE",
"20 352 LINE",
"20 345 LINE",
"19 323 OFFCURVE",
"23 279 OFFCURVE",
"25 257 QCURVE SMOOTH",
"28 216 OFFCURVE",
"46 136 OFFCURVE",
"58 96 QCURVE",
"66 95 LINE",
"72 93 LINE",
"127 85 OFFCURVE",
"239 76 OFFCURVE",
"295 72 QCURVE",
"299 72 OFFCURVE",
"307 72 OFFCURVE",
"311 71 QCURVE",
"322 71 LINE",
"331 70 LINE",
"367 68 OFFCURVE",
"439 68 OFFCURVE",
"476 68 QCURVE",
"494 67 OFFCURVE",
"531 68 OFFCURVE",
"549 68 QCURVE",
"619 70 LINE",
"654 72 OFFCURVE",
"722 77 OFFCURVE",
"757 79 QCURVE",
"774 81 OFFCURVE",
"806 85 OFFCURVE",
"822 89 QCURVE",
"827 104 OFFCURVE",
"835 136 OFFCURVE",
"839 153 QCURVE SMOOTH",
"841 162 OFFCURVE",
"844 179 OFFCURVE",
"846 187 QCURVE",
"773 182 OFFCURVE",
"627 177 OFFCURVE",
"553 175 QCURVE",
"495 175 OFFCURVE",
"381 174 OFFCURVE",
"323 176 QCURVE",
"322 195 OFFCURVE",
"320 232 OFFCURVE",
"320 250 QCURVE SMOOTH",
"320 306 LINE",
"358 306 LINE",
"476 306 LINE SMOOTH",
"496 306 OFFCURVE",
"536 307 OFFCURVE",
"556 306 QCURVE",
"614 307 OFFCURVE",
"726 307 OFFCURVE",
"783 307 QCURVE SMOOTH",
"797 307 OFFCURVE",
"824 319 OFFCURVE",
"845 339 OFFCURVE",
"857 365 OFFCURVE",
"856 380 QCURVE SMOOTH",
"855 394 OFFCURVE",
"854 420 OFFCURVE",
"852 434 QCURVE",
"852 441 OFFCURVE",
"850 453 OFFCURVE",
"849 460 QCURVE",
"849 469 LINE",
"847 477 OFFCURVE",
"844 493 OFFCURVE",
"842 502 QCURVE",
"841 515 LINE",
"839 529 OFFCURVE",
"833 554 OFFCURVE",
"829 568 QCURVE SMOOTH",
"821 595 OFFCURVE",
"776 637 OFFCURVE",
"747 641 QCURVE SMOOTH",
"731 643 OFFCURVE",
"699 647 OFFCURVE",
"682 648 QCURVE"
);
},
{
nodes = (
"694 657 OFFCURVE",
"715 656 OFFCURVE",
"724 654 QCURVE",
"723 654 LINE",
"748 651 LINE",
"780 646 OFFCURVE",
"830 600 OFFCURVE",
"839 571 QCURVE",
"842 559 LINE",
"861 548 OFFCURVE",
"889 513 OFFCURVE",
"895 493 QCURVE SMOOTH",
"899 480 OFFCURVE",
"905 455 OFFCURVE",
"907 439 QCURVE",
"908 426 LINE",
"911 410 LINE SMOOTH",
"912 404 OFFCURVE",
"913 394 OFFCURVE",
"915 391 QCURVE",
"915 382 LINE",
"915 380 OFFCURVE",
"916 377 OFFCURVE",
"916 375 QCURVE",
"918 365 OFFCURVE",
"918 357 QCURVE",
"920 347 OFFCURVE",
"920 325 OFFCURVE",
"921 315 QCURVE",
"921 312 OFFCURVE",
"922 305 OFFCURVE",
"922 302 QCURVE",
"923 285 OFFCURVE",
"909 255 OFFCURVE",
"885 232 OFFCURVE",
"855 219 OFFCURVE",
"839 219 QCURVE SMOOTH",
"782 219 OFFCURVE",
"669 219 OFFCURVE",
"611 218 QCURVE",
"598 219 OFFCURVE",
"573 218 OFFCURVE",
"559 218 QCURVE SMOOTH",
"386 218 LINE",
"386 185 LINE",
"413 184 OFFCURVE",
"467 185 OFFCURVE",
"495 185 QCURVE SMOOTH",
"553 185 LINE",
"627 187 OFFCURVE",
"786 193 OFFCURVE",
"859 198 QCURVE",
"853 170 LINE",
"849 151 LINE",
"840 115 LINE",
"859 116 OFFCURVE",
"897 118 OFFCURVE",
"915 120 QCURVE",
"909 92 LINE",
"905 73 LINE SMOOTH",
"901 56 OFFCURVE",
"891 18 OFFCURVE",
"886 3 QCURVE",
"867 -2 OFFCURVE",
"842 -5 OFFCURVE",
"830 -7 QCURVE",
"813 -9 LINE",
"796 -10 OFFCURVE",
"762 -12 OFFCURVE",
"745 -14 QCURVE SMOOTH",
"728 -16 OFFCURVE",
"692 -17 OFFCURVE",
"675 -18 QCURVE",
"605 -20 LINE",
"581 -20 LINE SMOOTH",
"569 -20 OFFCURVE",
"543 -21 OFFCURVE",
"531 -20 QCURVE",
"494 -20 OFFCURVE",
"422 -20 OFFCURVE",
"387 -18 QCURVE",
"385 -18 OFFCURVE",
"380 -17 OFFCURVE",
"378 -17 QCURVE",
"365 -17 LINE",
"360 -16 OFFCURVE",
"350 -16 QCURVE",
"294 -12 OFFCURVE",
"182 -3 OFFCURVE",
"127 5 QCURVE",
"125 5 OFFCURVE",
"123 7 OFFCURVE",
"122 7 QCURVE",
"106 8 LINE",
"100 25 OFFCURVE",
"90 61 OFFCURVE",
"86 80 QCURVE",
"71 83 LINE",
"69 83 OFFCURVE",
"67 85 OFFCURVE",
"66 85 QCURVE",
"50 86 LINE",
"37 127 OFFCURVE",
"18 214 OFFCURVE",
"15 256 QCURVE SMOOTH",
"13 277 OFFCURVE",
"9 323 OFFCURVE",
"10 345 QCURVE",
"10 352 LINE",
"12 360 LINE",
"17 373 LINE",
"20 383 LINE",
"30 399 OFFCURVE",
"64 422 OFFCURVE",
"82 426 QCURVE",
"84 434 OFFCURVE",
"87 447 OFFCURVE",
"89 452 QCURVE",
"89 451 LINE",
"91 461 LINE",
"17 457 LINE",
"20 472 OFFCURVE",
"29 516 OFFCURVE",
"33 530 QCURVE",
"33 529 LINE",
"43 568 LINE",
"54 597 OFFCURVE",
"102 642 OFFCURVE",
"132 648 QCURVE",
"183 655 OFFCURVE",
"283 662 OFFCURVE",
"333 665 QCURVE",
"351 665 LINE SMOOTH",
"356 665 OFFCURVE",
"364 666 OFFCURVE",
"369 666 QCURVE",
"391 667 OFFCURVE",
"443 668 OFFCURVE",
"465 668 QCURVE SMOOTH",
"510 668 OFFCURVE",
"605 665 OFFCURVE",
"650 661 QCURVE",
"652 661 OFFCURVE",
"658 660 OFFCURVE",
"660 660 QCURVE",
"666 660 OFFCURVE",
"678 659 OFFCURVE",
"683 658 QCURVE SMOOTH"
);
},
{
nodes = (
"545 432 LINE",
"545 440 OFFCURVE",
"544 455 OFFCURVE",
"544 463 QCURVE",
"530 464 OFFCURVE",
"504 464 OFFCURVE",
"490 464 QCURVE SMOOTH",
"472 464 OFFCURVE",
"435 464 OFFCURVE",
"417 463 QCURVE",
"392 463 LINE",
"392 461 OFFCURVE",
"391 454 OFFCURVE",
"391 452 QCURVE",
"391 447 OFFCURVE",
"390 441 OFFCURVE",
"390 437 QCURVE SMOOTH",
"390 432 LINE",
"476 432 LINE",
"487 431 OFFCURVE",
"506 432 OFFCURVE",
"516 432 QCURVE SMOOTH"
);
}
);
width = 933;
}
);
unicode = 0032;
},
{
glyphname = three;
layers = (
{
layerId = "1456D5E5-B8FF-4D35-B4CF-CE3708A5ECC4";
paths = (
{
nodes = (
"672 650 OFFCURVE",
"655 650 OFFCURVE",
"647 651 QCURVE SMOOTH",
"577 656 OFFCURVE",
"438 659 OFFCURVE",
"367 656 QCURVE",
"359 656 OFFCURVE",
"340 655 OFFCURVE",
"332 655 QCURVE",
"282 652 OFFCURVE",
"183 645 OFFCURVE",
"132 638 QCURVE",
"104 633 OFFCURVE",
"61 594 OFFCURVE",
"51 568 QCURVE",
"46 543 OFFCURVE",
"33 494 OFFCURVE",
"28 468 QCURVE",
"101 473 OFFCURVE",
"247 477 OFFCURVE",
"320 479 QCURVE",
"320 488 OFFCURVE",
"322 506 OFFCURVE",
"322 515 QCURVE SMOOTH",
"322 523 OFFCURVE",
"324 541 OFFCURVE",
"324 550 QCURVE",
"333 550 OFFCURVE",
"351 552 OFFCURVE",
"360 551 QCURVE",
"408 553 OFFCURVE",
"501 552 OFFCURVE",
"549 550 QCURVE",
"550 544 OFFCURVE",
"550 531 OFFCURVE",
"550 524 QCURVE SMOOTH",
"550 517 OFFCURVE",
"550 504 OFFCURVE",
"551 496 QCURVE",
"551 478 OFFCURVE",
"553 442 OFFCURVE",
"553 422 QCURVE",
"533 423 OFFCURVE",
"494 421 OFFCURVE",
"474 422 QCURVE",
"357 422 LINE SMOOTH",
"346 422 OFFCURVE",
"328 421 OFFCURVE",
"318 421 QCURVE",
"318 392 OFFCURVE",
"317 336 OFFCURVE",
"318 307 QCURVE",
"356 307 LINE",
"474 307 LINE",
"554 307 LINE",
"554 287 LINE",
"553 273 OFFCURVE",
"553 246 OFFCURVE",
"553 232 QCURVE",
"551 175 LINE",
"493 175 OFFCURVE",
"379 174 OFFCURVE",
"321 176 QCURVE",
"320 195 OFFCURVE",
"318 232 OFFCURVE",
"318 250 QCURVE",
"244 251 OFFCURVE",
"97 254 OFFCURVE",
"23 257 QCURVE",
"25 232 OFFCURVE",
"33 185 OFFCURVE",
"38 160 QCURVE",
"46 131 OFFCURVE",
"94 92 OFFCURVE",
"121 87 QCURVE",
"164 81 OFFCURVE",
"249 76 OFFCURVE",
"293 72 QCURVE",
"302 72 OFFCURVE",
"320 71 OFFCURVE",
"329 70 QCURVE SMOOTH",
"365 68 OFFCURVE",
"437 68 OFFCURVE",
"474 68 QCURVE",
"492 67 OFFCURVE",
"529 68 OFFCURVE",
"547 68 QCURVE",
"617 70 LINE",
"651 72 OFFCURVE",
"717 75 OFFCURVE",
"749 79 QCURVE",
"755 79 LINE",
"783 86 OFFCURVE",
"829 125 OFFCURVE",
"837 153 QCURVE SMOOTH",
"839 162 OFFCURVE",
"842 179 OFFCURVE",
"844 187 QCURVE",
"851 255 LINE",
"852 265 LINE",
"852 274 LINE",
"853 284 LINE",
"854 290 LINE",
"854 305 OFFCURVE",
"843 332 OFFCURVE",
"823 352 OFFCURVE",
"797 364 OFFCURVE",
"782 363 QCURVE",
"797 363 OFFCURVE",
"823 375 OFFCURVE",
"834 384 QCURVE",
"844 395 OFFCURVE",
"851 420 OFFCURVE",
"850 434 QCURVE",
"850 436 OFFCURVE",
"849 441 OFFCURVE",
"849 443 QCURVE",
"848 453 LINE",
"847 461 LINE",
"847 469 LINE",
"845 477 OFFCURVE",
"842 493 OFFCURVE",
"840 502 QCURVE",
"839 515 LINE",
"837 529 OFFCURVE",
"831 554 OFFCURVE",
"827 568 QCURVE SMOOTH",
"819 595 OFFCURVE",
"774 637 OFFCURVE",
"745 641 QCURVE SMOOTH",
"729 643 OFFCURVE",
"697 647 OFFCURVE",
"680 648 QCURVE"
);
},
{
nodes = (
"692 657 OFFCURVE",
"713 656 OFFCURVE",
"722 654 QCURVE",
"721 654 LINE",
"746 651 LINE",
"778 646 OFFCURVE",
"828 600 OFFCURVE",
"837 571 QCURVE",
"840 559 LINE",
"859 548 OFFCURVE",
"887 513 OFFCURVE",
"893 493 QCURVE SMOOTH",
"897 480 OFFCURVE",
"903 455 OFFCURVE",
"905 439 QCURVE",
"906 426 LINE",
"909 410 LINE SMOOTH",
"910 404 OFFCURVE",
"911 394 OFFCURVE",
"913 391 QCURVE",
"913 383 LINE",
"914 375 LINE",
"915 365 LINE",
"915 360 LINE",
"915 358 OFFCURVE",
"916 357 OFFCURVE",
"916 356 QCURVE",
"916 342 OFFCURVE",
"907 310 OFFCURVE",
"896 298 QCURVE",
"891 294 OFFCURVE",
"881 288 OFFCURVE",
"876 285 QCURVE",
"896 274 OFFCURVE",
"920 235 OFFCURVE",
"920 212 QCURVE",
"920 210 OFFCURVE",
"919 208 OFFCURVE",
"919 206 QCURVE",
"918 196 LINE",
"918 187 LINE",
"917 176 LINE",
"910 106 LINE",
"907 92 LINE",
"903 70 LINE",
"895 41 OFFCURVE",
"844 -1 OFFCURVE",
"813 -9 QCURVE",
"806 -9 LINE",
"785 -11 OFFCURVE",
"738 -14 OFFCURVE",
"716 -16 QCURVE",
"673 -18 LINE",
"603 -20 LINE",
"579 -20 LINE SMOOTH",
"567 -20 OFFCURVE",
"541 -21 OFFCURVE",
"529 -20 QCURVE",
"492 -20 OFFCURVE",
"419 -20 OFFCURVE",
"384 -18 QCURVE SMOOTH",
"375 -17 OFFCURVE",
"357 -16 OFFCURVE",
"348 -16 QCURVE",
"334 -14 OFFCURVE",
"305 -13 OFFCURVE",
"291 -12 QCURVE SMOOTH",
"262 -10 OFFCURVE",
"204 -5 OFFCURVE",
"175 -1 QCURVE",
"145 5 OFFCURVE",
"92 47 OFFCURVE",
"84 79 QCURVE SMOOTH",
"81 91 LINE",
"62 102 OFFCURVE",
"33 135 OFFCURVE",
"28 157 QCURVE SMOOTH",
"18 203 OFFCURVE",
"12 267 QCURVE",
"86 264 OFFCURVE",
"254 261 OFFCURVE",
"328 260 QCURVE",
"328 248 OFFCURVE",
"329 213 OFFCURVE",
"330 201 QCURVE",
"330 195 OFFCURVE",
"331 192 OFFCURVE",
"331 186 QCURVE",
"373 185 OFFCURVE",
"451 185 OFFCURVE",
"493 185 QCURVE SMOOTH",
"541 185 LINE",
"541 193 OFFCURVE",
"542 210 OFFCURVE",
"543 219 QCURVE",
"364 219 LINE",
"363 236 OFFCURVE",
"364 278 OFFCURVE",
"364 297 QCURVE",
"308 297 LINE",
"307 316 OFFCURVE",
"308 364 OFFCURVE",
"308 383 QCURVE SMOOTH",
"308 389 LINE",
"248 387 OFFCURVE",
"125 382 OFFCURVE",
"71 379 QCURVE",
"74 394 OFFCURVE",
"83 438 OFFCURVE",
"87 452 QCURVE",
"87 451 LINE",
"89 461 LINE",
"15 457 LINE",
"18 472 OFFCURVE",
"27 516 OFFCURVE",
"31 530 QCURVE",
"31 529 LINE",
"41 568 LINE",
"52 597 OFFCURVE",
"100 642 OFFCURVE",
"130 648 QCURVE",
"181 655 OFFCURVE",
"281 662 OFFCURVE",
"331 665 QCURVE",
"349 665 LINE SMOOTH",
"354 665 OFFCURVE",
"362 666 OFFCURVE",
"367 666 QCURVE",
"389 667 OFFCURVE",
"441 668 OFFCURVE",
"463 668 QCURVE SMOOTH",
"508 668 OFFCURVE",
"603 665 OFFCURVE",
"648 661 QCURVE",
"650 661 OFFCURVE",
"656 660 OFFCURVE",
"658 660 QCURVE",
"664 660 OFFCURVE",
"676 659 OFFCURVE",
"681 658 QCURVE SMOOTH"
);
},
{
nodes = (
"543 432 LINE",
"543 439 OFFCURVE",
"543 452 OFFCURVE",
"542 459 QCURVE",
"542 463 LINE",
"528 464 OFFCURVE",
"502 464 OFFCURVE",
"488 464 QCURVE SMOOTH",
"470 464 OFFCURVE",
"433 464 OFFCURVE",
"415 463 QCURVE",
"390 463 LINE",
"390 461 OFFCURVE",
"389 454 OFFCURVE",
"389 452 QCURVE",
"389 447 OFFCURVE",
"388 441 OFFCURVE",
"388 437 QCURVE SMOOTH",
"388 432 LINE",
"474 432 LINE",
"485 431 OFFCURVE",
"504 432 OFFCURVE",
"514 432 QCURVE SMOOTH"
);
}
);
width = 933;
}
);
unicode = 0033;
},
{
glyphname = five;
layers = (
{
layerId = "1456D5E5-B8FF-4D35-B4CF-CE3708A5ECC4";
paths = (
{
nodes = (
"596 654 OFFCURVE",
"563 656 OFFCURVE",
"545 656 QCURVE",
"527 657 OFFCURVE",
"492 658 OFFCURVE",
"475 658 QCURVE SMOOTH",
"404 658 OFFCURVE",
"334 655 QCURVE SMOOTH",
"299 653 LINE SMOOTH",
"186 647 OFFCURVE",
"71 629 QCURVE",
"45 550 OFFCURVE",
"30 468 QCURVE",
"28 446 OFFCURVE",
"23 403 OFFCURVE",
"21 380 QCURVE SMOOTH",
"20 363 OFFCURVE",
"19 328 OFFCURVE",
"21 310 QCURVE",
"39 310 OFFCURVE",
"75 309 OFFCURVE",
"92 308 QCURVE",
"146 308 OFFCURVE",
"251 307 OFFCURVE",
"305 307 QCURVE SMOOTH",
"315 307 LINE",
"320 307 LINE",
"358 307 LINE",
"476 307 LINE",
"556 307 LINE",
"556 287 OFFCURVE",
"555 250 OFFCURVE",
"555 232 QCURVE SMOOTH",
"555 224 OFFCURVE",
"553 211 OFFCURVE",
"554 203 QCURVE",
"554 196 OFFCURVE",
"553 182 OFFCURVE",
"553 175 QCURVE",
"504 175 OFFCURVE",
"409 174 OFFCURVE",
"361 176 QCURVE",
"323 176 LINE",
"321 213 LINE",
"321 223 OFFCURVE",
"320 241 OFFCURVE",
"320 250 QCURVE",
"281 250 LINE",
"217 252 OFFCURVE",
"89 255 OFFCURVE",
"25 257 QCURVE",
"27 232 OFFCURVE",
"35 185 OFFCURVE",
"40 160 QCURVE",
"48 131 OFFCURVE",
"96 92 OFFCURVE",
"123 87 QCURVE",
"166 81 OFFCURVE",
"251 76 OFFCURVE",
"295 72 QCURVE",
"304 72 OFFCURVE",
"322 71 OFFCURVE",
"331 70 QCURVE",
"339 70 OFFCURVE",
"357 68 OFFCURVE",
"366 69 QCURVE",
"385 68 OFFCURVE",
"420 68 OFFCURVE",
"439 68 QCURVE",
"493 67 OFFCURVE",
"600 70 OFFCURVE",
"654 72 QCURVE",
"663 73 OFFCURVE",
"681 75 OFFCURVE",
"689 75 QCURVE",
"706 77 OFFCURVE",
"740 78 OFFCURVE",
"757 79 QCURVE",
"785 86 OFFCURVE",
"831 125 OFFCURVE",
"839 153 QCURVE",
"841 167 OFFCURVE",
"846 194 OFFCURVE",
"848 208 QCURVE",
"851 222 LINE",
"851 231 OFFCURVE",
"851 247 OFFCURVE",
"853 255 QCURVE",
"853 264 LINE",
"856 290 LINE",
"855 304 OFFCURVE",
"858 332 OFFCURVE",
"857 346 QCURVE SMOOTH",
"856 375 OFFCURVE",
"810 417 OFFCURVE",
"781 418 QCURVE SMOOTH",
"724 420 OFFCURVE",
"612 421 OFFCURVE",
"555 422 QCURVE SMOOTH",
"535 423 OFFCURVE",
"496 421 OFFCURVE",
"476 422 QCURVE",
"359 422 LINE SMOOTH",
"348 422 OFFCURVE",
"330 421 OFFCURVE",
"320 421 QCURVE",
"320 436 OFFCURVE",
"322 465 OFFCURVE",
"322 479 QCURVE",
"323 498 OFFCURVE",
"324 532 OFFCURVE",
"326 550 QCURVE",
"383 552 OFFCURVE",
"494 552 OFFCURVE",
"551 550 QCURVE",
"623 549 OFFCURVE",
"764 541 OFFCURVE",
"836 536 QCURVE",
"831 560 OFFCURVE",
"818 608 OFFCURVE",
"811 632 QCURVE",
"794 635 OFFCURVE",
"764 639 OFFCURVE",
"747 641 QCURVE SMOOTH",
"715 645 OFFCURVE",
"647 651 OFFCURVE",
"614 653 QCURVE SMOOTH"
);
},
{
nodes = (
"615 663 LINE",
"648 661 OFFCURVE",
"716 655 OFFCURVE",
"748 651 QCURVE SMOOTH",
"765 649 OFFCURVE",
"801 644 OFFCURVE",
"819 641 QCURVE",
"823 626 OFFCURVE",
"833 588 OFFCURVE",
"838 569 QCURVE",
"875 563 LINE",
"882 539 OFFCURVE",
"900 471 OFFCURVE",
"905 447 QCURVE",
"833 452 OFFCURVE",
"679 461 OFFCURVE",
"607 462 QCURVE SMOOTH",
"581 463 OFFCURVE",
"531 464 OFFCURVE",
"505 464 QCURVE SMOOTH",
"474 464 OFFCURVE",
"422 463 OFFCURVE",
"391 462 QCURVE",
"390 454 OFFCURVE",
"389 440 OFFCURVE",
"389 432 QCURVE",
"476 432 LINE",
"487 431 OFFCURVE",
"506 432 OFFCURVE",
"516 432 QCURVE SMOOTH",
"555 432 LINE SMOOTH",
"569 432 OFFCURVE",
"597 431 OFFCURVE",
"611 431 QCURVE",
"654 430 OFFCURVE",
"739 430 OFFCURVE",
"781 428 QCURVE SMOOTH",
"797 427 OFFCURVE",
"828 413 OFFCURVE",
"852 391 OFFCURVE",
"867 362 OFFCURVE",
"867 346 QCURVE SMOOTH",
"867 343 LINE",
"890 333 OFFCURVE",
"922 293 OFFCURVE",
"923 268 QCURVE",
"923 261 OFFCURVE",
"922 246 OFFCURVE",
"922 239 QCURVE",
"920 225 OFFCURVE",
"922 212 QCURVE",
"919 185 LINE",
"919 175 LINE",
"917 167 OFFCURVE",
"917 151 OFFCURVE",
"917 142 QCURVE",
"914 128 LINE",
"913 120 OFFCURVE",
"911 101 OFFCURVE",
"909 94 QCURVE",
"904 70 LINE",
"896 41 OFFCURVE",
"845 -1 OFFCURVE",
"815 -9 QCURVE",
"798 -10 OFFCURVE",
"763 -11 OFFCURVE",
"746 -13 QCURVE",
"741 -13 OFFCURVE",
"729 -14 OFFCURVE",
"723 -15 QCURVE",
"720 -15 OFFCURVE",
"713 -16 OFFCURVE",
"710 -16 QCURVE",
"668 -18 OFFCURVE",
"575 -20 OFFCURVE",
"533 -20 QCURVE SMOOTH",
"495 -20 LINE SMOOTH",
"476 -20 OFFCURVE",
"441 -20 OFFCURVE",
"422 -19 QCURVE",
"400 -19 LINE SMOOTH",
"396 -19 OFFCURVE",
"389 -18 OFFCURVE",
"386 -18 QCURVE",
"377 -17 OFFCURVE",
"359 -16 OFFCURVE",
"350 -16 QCURVE",
"336 -14 OFFCURVE",
"307 -13 OFFCURVE",
"293 -12 QCURVE SMOOTH",
"264 -10 OFFCURVE",
"206 -5 OFFCURVE",
"177 -1 QCURVE",
"147 5 OFFCURVE",
"94 47 OFFCURVE",
"86 79 QCURVE SMOOTH",
"83 91 LINE",
"64 102 OFFCURVE",
"35 135 OFFCURVE",
"30 157 QCURVE SMOOTH",
"20 203 OFFCURVE",
"14 267 QCURVE",
"27 266 OFFCURVE",
"52 265 OFFCURVE",
"66 265 QCURVE",
"66 299 LINE",
"52 299 OFFCURVE",
"24 300 OFFCURVE",
"12 300 QCURVE",
"10 315 OFFCURVE",
"10 332 OFFCURVE",
"10 340 QCURVE SMOOTH",
"10 349 OFFCURVE",
"10 372 OFFCURVE",
"11 381 QCURVE SMOOTH",
"12 395 OFFCURVE",
"15 427 OFFCURVE",
"17 441 QCURVE SMOOTH",
"20 469 LINE",
"28 512 OFFCURVE",
"49 596 OFFCURVE",
"63 638 QCURVE",
"124 648 OFFCURVE",
"241 660 OFFCURVE",
"298 663 QCURVE SMOOTH",
"334 665 LINE SMOOTH",
"368 667 OFFCURVE",
"441 668 OFFCURVE",
"475 668 QCURVE SMOOTH",
"492 668 OFFCURVE",
"527 667 OFFCURVE",
"545 666 QCURVE",
"555 666 OFFCURVE",
"582 665 OFFCURVE",
"591 664 QCURVE",
"596 664 OFFCURVE",
"609 663 OFFCURVE",
"614 663 QCURVE"
);
},
{
nodes = (
"543 189 LINE SMOOTH",
"543 192 OFFCURVE",
"544 198 OFFCURVE",
"544 201 QCURVE SMOOTH",
"544 219 LINE",
"331 219 LINE",
"331 213 LINE",
"333 186 LINE",
"361 186 LINE",
"397 185 OFFCURVE",
"468 185 OFFCURVE",
"504 185 QCURVE SMOOTH",
"543 185 LINE"
);
}
);
width = 933;
}
);
unicode = 0035;
},
{
glyphname = six;
layers = (
{
layerId = "1456D5E5-B8FF-4D35-B4CF-CE3708A5ECC4";
paths = (
{
nodes = (
"216 647 LINE SMOOTH",
"211 646 OFFCURVE",
"204 646 OFFCURVE",
"199 646 QCURVE SMOOTH",
"191 646 OFFCURVE",
"174 642 OFFCURVE",
"166 642 QCURVE",
"158 641 OFFCURVE",
"142 639 OFFCURVE",
"134 638 QCURVE SMOOTH",
"106 633 OFFCURVE",
"63 594 OFFCURVE",
"53 568 QCURVE",
"51 559 OFFCURVE",
"47 542 OFFCURVE",
"45 534 QCURVE SMOOTH",
"25 459 OFFCURVE",
"21 381 QCURVE",
"21 373 OFFCURVE",
"19 355 OFFCURVE",
"20 346 QCURVE",
"19 308 OFFCURVE",
"28 230 OFFCURVE",
"34 192 QCURVE SMOOTH",
"36 183 OFFCURVE",
"38 168 OFFCURVE",
"40 160 QCURVE SMOOTH",
"48 131 OFFCURVE",
"95 93 OFFCURVE",
"122 87 QCURVE",
"123 87 LINE",
"131 85 OFFCURVE",
"148 85 OFFCURVE",
"157 83 QCURVE",
"163 83 OFFCURVE",
"176 79 OFFCURVE",
"183 80 QCURVE",
"191 79 LINE SMOOTH",
"195 78 OFFCURVE",
"203 79 OFFCURVE",
"207 78 QCURVE",
"226 77 LINE SMOOTH",
"333 69 OFFCURVE",
"546 67 OFFCURVE",
"654 72 QCURVE",
"723 77 LINE",
"732 77 OFFCURVE",
"749 79 OFFCURVE",
"757 79 QCURVE",
"785 86 OFFCURVE",
"831 125 OFFCURVE",
"839 153 QCURVE",
"842 170 OFFCURVE",
"848 205 OFFCURVE",
"851 222 QCURVE",
"851 231 OFFCURVE",
"851 247 OFFCURVE",
"853 255 QCURVE",
"855 278 OFFCURVE",
"858 323 OFFCURVE",
"857 346 QCURVE SMOOTH",
"856 375 OFFCURVE",
"810 417 OFFCURVE",
"781 418 QCURVE SMOOTH",
"551 424 OFFCURVE",
"320 421 QCURVE",
"321 454 OFFCURVE",
"324 518 OFFCURVE",
"326 550 QCURVE",
"383 552 OFFCURVE",
"494 552 OFFCURVE",
"551 550 QCURVE",
"552 542 OFFCURVE",
"551 535 QCURVE",
"554 479 LINE",
"568 480 OFFCURVE",
"596 478 OFFCURVE",
"611 478 QCURVE SMOOTH",
"631 478 LINE",
"738 475 OFFCURVE",
"849 469 QCURVE",
"844 494 OFFCURVE",
"837 544 OFFCURVE",
"829 568 QCURVE SMOOTH",
"821 595 OFFCURVE",
"776 637 OFFCURVE",
"747 641 QCURVE SMOOTH",
"619 656 OFFCURVE",
"361 660 OFFCURVE",
"233 649 QCURVE"
);
},
{
nodes = (
"556 307 LINE",
"556 292 OFFCURVE",
"555 263 OFFCURVE",
"556 249 QCURVE",
"556 236 OFFCURVE",
"554 209 OFFCURVE",
"554 195 QCURVE SMOOTH",
"554 190 OFFCURVE",
"553 180 OFFCURVE",
"553 175 QCURVE",
"495 175 OFFCURVE",
"381 174 OFFCURVE",
"323 176 QCURVE",
"321 208 OFFCURVE",
"320 275 OFFCURVE",
"320 307 QCURVE"
);
},
{
nodes = (
"232 659 LINE",
"340 668 OFFCURVE",
"452 668 QCURVE SMOOTH",
"527 668 OFFCURVE",
"674 659 OFFCURVE",
"748 651 QCURVE",
"780 646 OFFCURVE",
"830 600 OFFCURVE",
"839 571 QCURVE",
"842 559 LINE",
"861 548 OFFCURVE",
"889 513 OFFCURVE",
"895 493 QCURVE SMOOTH",
"900 476 OFFCURVE",
"908 438 OFFCURVE",
"911 417 QCURVE SMOOTH",
"912 411 OFFCURVE",
"913 397 OFFCURVE",
"918 380 QCURVE",
"855 383 LINE",
"865 367 OFFCURVE",
"867 346 QCURVE",
"867 343 LINE",
"890 333 OFFCURVE",
"922 293 OFFCURVE",
"923 268 QCURVE SMOOTH",
"924 250 OFFCURVE",
"922 213 OFFCURVE",
"920 196 QCURVE",
"920 191 OFFCURVE",
"919 180 OFFCURVE",
"919 175 QCURVE",
"917 167 OFFCURVE",
"917 151 OFFCURVE",
"917 143 QCURVE",
"909 97 LINE",
"904 70 LINE",
"896 41 OFFCURVE",
"845 -1 OFFCURVE",
"815 -9 QCURVE",
"811 -9 OFFCURVE",
"803 -10 OFFCURVE",
"799 -10 QCURVE",
"794 -11 OFFCURVE",
"784 -11 OFFCURVE",
"779 -11 QCURVE",
"762 -12 OFFCURVE",
"727 -15 OFFCURVE",
"710 -16 QCURVE SMOOTH",
"665 -18 OFFCURVE",
"573 -20 OFFCURVE",
"528 -20 QCURVE SMOOTH",
"404 -20 OFFCURVE",
"281 -11 QCURVE",
"277 -11 OFFCURVE",
"267 -10 OFFCURVE",
"263 -10 QCURVE SMOOTH",
"255 -10 LINE SMOOTH",
"251 -10 OFFCURVE",
"243 -8 QCURVE",
"241 -8 LINE",
"236 -9 OFFCURVE",
"227 -8 OFFCURVE",
"222 -7 QCURVE SMOOTH",
"214 -5 OFFCURVE",
"211 -5 QCURVE",
"206 -4 OFFCURVE",
"199 -3 OFFCURVE",
"196 -3 QCURVE",
"176 -1 LINE",
"147 6 OFFCURVE",
"94 47 OFFCURVE",
"86 80 QCURVE",
"84 90 LINE",
"65 101 OFFCURVE",
"35 135 OFFCURVE",
"30 158 QCURVE",
"28 171 LINE",
"28 170 LINE",
"24 190 LINE",
"18 226 OFFCURVE",
"9 306 OFFCURVE",
"10 345 QCURVE",
"10 368 LINE SMOOTH",
"10 372 OFFCURVE",
"11 378 OFFCURVE",
"11 381 QCURVE",
"15 463 OFFCURVE",
"35 537 QCURVE SMOOTH",
"37 546 OFFCURVE",
"42 564 OFFCURVE",
"43 569 QCURVE",
"54 598 OFFCURVE",
"102 642 OFFCURVE",
"132 648 QCURVE",
"138 648 OFFCURVE",
"148 650 QCURVE",
"166 652 LINE",
"167 652 OFFCURVE",
"177 653 OFFCURVE",
"180 654 QCURVE SMOOTH",
"190 656 OFFCURVE",
"199 656 QCURVE SMOOTH",
"203 656 OFFCURVE",
"210 656 OFFCURVE",
"215 657 QCURVE SMOOTH",
"233 659 LINE"
);
},
{
nodes = (
"474 432 LINE SMOOTH",
"505 432 OFFCURVE",
"567 432 OFFCURVE",
"598 431 QCURVE",
"597 457 LINE",
"598 461 OFFCURVE",
"599 459 OFFCURVE",
"598 463 QCURVE",
"575 464 OFFCURVE",
"528 464 OFFCURVE",
"505 464 QCURVE SMOOTH",
"474 464 OFFCURVE",
"423 463 OFFCURVE",
"392 462 QCURVE",
"391 454 OFFCURVE",
"390 439 OFFCURVE",
"390 432 QCURVE"
);
},
{
nodes = (
"544 219 LINE",
"386 219 LINE",
"386 185 LINE",
"413 184 OFFCURVE",
"467 185 OFFCURVE",
"495 185 QCURVE SMOOTH",
"543 185 LINE",
"543 187 OFFCURVE",
"544 192 OFFCURVE",
"544 195 QCURVE SMOOTH"
);
}
);
width = 933;
}
);
unicode = 0036;
},
{
glyphname = seven;
layers = (
{
layerId = "1456D5E5-B8FF-4D35-B4CF-CE3708A5ECC4";
paths = (
{
nodes = (
"63 605 OFFCURVE",
"50 557 OFFCURVE",
"45 534 QCURVE",
"270 554 OFFCURVE",
"499 552 QCURVE",
"479 520 OFFCURVE",
"436 455 OFFCURVE",
"414 422 QCURVE",
"362 421 OFFCURVE",
"258 421 OFFCURVE",
"205 420 QCURVE SMOOTH",
"159 419 OFFCURVE",
"70 418 OFFCURVE",
"24 416 QCURVE",
"23 407 OFFCURVE",
"21 389 OFFCURVE",
"21 380 QCURVE",
"20 363 OFFCURVE",
"19 327 OFFCURVE",
"21 309 QCURVE",
"205 307 LINE",
"240 307 OFFCURVE",
"308 306 OFFCURVE",
"342 306 QCURVE",
"308 250 OFFCURVE",
"240 138 OFFCURVE",
"211 78 QCURVE",
"296 71 OFFCURVE",
"464 66 OFFCURVE",
"549 68 QCURVE",
"590 128 OFFCURVE",
"671 246 OFFCURVE",
"710 307 QCURVE",
"746 307 OFFCURVE",
"820 307 OFFCURVE",
"856 308 QCURVE",
"858 336 OFFCURVE",
"856 389 OFFCURVE",
"854 416 QCURVE",
"834 416 OFFCURVE",
"796 418 OFFCURVE",
"776 419 QCURVE",
"792 447 OFFCURVE",
"823 504 OFFCURVE",
"836 536 QCURVE",
"831 560 OFFCURVE",
"818 608 OFFCURVE",
"811 632 QCURVE",
"748 642 OFFCURVE",
"624 653 OFFCURVE",
"561 656 QCURVE SMOOTH",
"470 660 OFFCURVE",
"290 654 OFFCURVE",
"199 646 QCURVE",
"167 642 OFFCURVE",
"103 634 OFFCURVE",
"71 629 QCURVE"
);
},
{
nodes = (
"69 639 LINE",
"100 644 OFFCURVE",
"161 651 OFFCURVE",
"191 655 QCURVE",
"193 655 OFFCURVE",
"196 656 OFFCURVE",
"198 656 QCURVE",
"262 662 OFFCURVE",
"392 668 OFFCURVE",
"457 668 QCURVE SMOOTH",
"483 668 OFFCURVE",
"535 667 OFFCURVE",
"561 666 QCURVE SMOOTH",
"624 663 OFFCURVE",
"753 652 OFFCURVE",
"819 641 QCURVE",
"838 568 LINE",
"847 567 OFFCURVE",
"866 565 OFFCURVE",
"875 563 QCURVE",
"882 539 OFFCURVE",
"897 482 OFFCURVE",
"902 458 QCURVE",
"892 435 OFFCURVE",
"875 397 OFFCURVE",
"866 380 QCURVE",
"867 372 OFFCURVE",
"867 357 OFFCURVE",
"867 349 QCURVE",
"879 348 OFFCURVE",
"908 348 OFFCURVE",
"919 348 QCURVE",
"921 325 OFFCURVE",
"923 286 OFFCURVE",
"923 269 QCURVE SMOOTH",
"923 259 OFFCURVE",
"922 230 OFFCURVE",
"921 220 QCURVE",
"885 219 OFFCURVE",
"807 219 OFFCURVE",
"771 219 QCURVE",
"740 171 OFFCURVE",
"675 75 OFFCURVE",
"643 28 QCURVE SMOOTH",
"610 -20 LINE",
"593 -20 OFFCURVE",
"556 -21 OFFCURVE",
"539 -21 QCURVE SMOOTH",
"470 -21 OFFCURVE",
"321 -14 OFFCURVE",
"252 -9 QCURVE",
"261 10 OFFCURVE",
"280 45 OFFCURVE",
"289 62 QCURVE",
"265 64 OFFCURVE",
"219 67 OFFCURVE",
"196 69 QCURVE",
"217 113 OFFCURVE",
"258 186 OFFCURVE",
"277 219 QCURVE",
"261 219 LINE",
"68 221 LINE",
"66 236 OFFCURVE",
"66 253 OFFCURVE",
"66 261 QCURVE SMOOTH",
"66 298 LINE",
"12 299 LINE",
"10 314 OFFCURVE",
"10 331 OFFCURVE",
"10 339 QCURVE SMOOTH",
"10 348 OFFCURVE",
"10 372 OFFCURVE",
"11 381 QCURVE",
"11 386 OFFCURVE",
"12 400 OFFCURVE",
"13 405 QCURVE",
"13 410 OFFCURVE",
"14 424 OFFCURVE",
"14 426 QCURVE",
"60 428 OFFCURVE",
"159 429 OFFCURVE",
"205 430 QCURVE",
"231 430 OFFCURVE",
"284 431 OFFCURVE",
"310 431 QCURVE SMOOTH",
"336 431 OFFCURVE",
"383 431 OFFCURVE",
"409 432 QCURVE",
"414 440 OFFCURVE",
"423 452 OFFCURVE",
"428 460 QCURVE SMOOTH",
"430 463 LINE",
"260 460 OFFCURVE",
"88 445 QCURVE",
"93 468 OFFCURVE",
"104 510 OFFCURVE",
"109 529 QCURVE",
"32 523 LINE",
"39 555 OFFCURVE",
"53 609 OFFCURVE",
"61 632 QCURVE"
);
}
);
width = 933;
}
);
unicode = 0037;
},
{
glyphname = eight;
layers = (
{
layerId = "1456D5E5-B8FF-4D35-B4CF-CE3708A5ECC4";
paths = (
{
nodes = (
"674 650 OFFCURVE",
"657 650 OFFCURVE",
"649 651 QCURVE SMOOTH",
"579 656 OFFCURVE",
"440 659 OFFCURVE",
"369 656 QCURVE",
"361 656 OFFCURVE",
"342 655 OFFCURVE",
"334 655 QCURVE",
"284 652 OFFCURVE",
"185 645 OFFCURVE",
"134 638 QCURVE",
"106 633 OFFCURVE",
"63 594 OFFCURVE",
"53 568 QCURVE",
"51 559 OFFCURVE",
"47 542 OFFCURVE",
"45 534 QCURVE SMOOTH",
"38 509 OFFCURVE",
"29 459 OFFCURVE",
"26 433 QCURVE SMOOTH",
"24 418 OFFCURVE",
"34 390 OFFCURVE",
"47 381 QCURVE SMOOTH",
"57 373 OFFCURVE",
"79 362 OFFCURVE",
"92 363 QCURVE",
"78 364 OFFCURVE",
"56 353 OFFCURVE",
"46 345 QCURVE",
"32 336 OFFCURVE",
"20 308 OFFCURVE",
"22 294 QCURVE",
"25 224 OFFCURVE",
"40 160 QCURVE",
"48 131 OFFCURVE",
"95 92 OFFCURVE",
"123 87 QCURVE",
"166 81 OFFCURVE",
"251 76 OFFCURVE",
"295 72 QCURVE",
"340 70 OFFCURVE",
"430 68 OFFCURVE",
"476 68 QCURVE",
"494 67 OFFCURVE",
"531 68 OFFCURVE",
"549 68 QCURVE",
"619 70 LINE",
"654 72 OFFCURVE",
"722 77 OFFCURVE",
"757 79 QCURVE",
"785 86 OFFCURVE",
"832 124 OFFCURVE",
"839 153 QCURVE SMOOTH",
"841 162 OFFCURVE",
"844 179 OFFCURVE",
"846 187 QCURVE",
"853 255 LINE",
"853 264 LINE",
"854 273 LINE",
"855 283 LINE",
"856 290 LINE",
"856 305 OFFCURVE",
"845 332 OFFCURVE",
"825 352 OFFCURVE",
"798 363 OFFCURVE",
"784 363 QCURVE",
"797 363 OFFCURVE",
"824 374 OFFCURVE",
"844 394 OFFCURVE",
"854 420 OFFCURVE",
"852 434 QCURVE",
"852 441 OFFCURVE",
"850 453 OFFCURVE",
"849 460 QCURVE",
"849 469 LINE",
"847 477 OFFCURVE",
"844 493 OFFCURVE",
"842 502 QCURVE",
"841 515 LINE",
"839 529 OFFCURVE",
"833 554 OFFCURVE",
"829 568 QCURVE SMOOTH",
"821 595 OFFCURVE",
"776 637 OFFCURVE",
"747 641 QCURVE SMOOTH",
"731 643 OFFCURVE",
"699 647 OFFCURVE",
"682 648 QCURVE"
);
},
{
nodes = (
"556 287 LINE",
"555 273 OFFCURVE",
"554 245 OFFCURVE",
"555 231 QCURVE",
"553 175 LINE",
"495 175 OFFCURVE",
"381 174 OFFCURVE",
"323 176 QCURVE",
"321 208 OFFCURVE",
"320 274 OFFCURVE",
"320 306 QCURVE",
"358 306 LINE",
"476 306 LINE SMOOTH",
"496 306 OFFCURVE",
"536 307 OFFCURVE",
"556 306 QCURVE"
);
},
{
nodes = (
"552 516 OFFCURVE",
"553 503 OFFCURVE",
"553 495 QCURVE",
"555 422 LINE",
"535 423 OFFCURVE",
"496 421 OFFCURVE",
"476 422 QCURVE",
"359 422 LINE SMOOTH",
"348 422 OFFCURVE",
"330 421 OFFCURVE",
"320 421 QCURVE",
"321 454 OFFCURVE",
"324 518 OFFCURVE",
"326 550 QCURVE",
"335 550 OFFCURVE",
"353 552 OFFCURVE",
"362 551 QCURVE",
"410 553 OFFCURVE",
"503 552 OFFCURVE",
"551 550 QCURVE",
"552 543 OFFCURVE",
"551 531 OFFCURVE",
"552 523 QCURVE"
);
},
{
nodes = (
"694 657 OFFCURVE",
"715 656 OFFCURVE",
"724 654 QCURVE",
"723 654 LINE",
"748 651 LINE",
"780 646 OFFCURVE",
"830 600 OFFCURVE",
"839 571 QCURVE",
"842 559 LINE",
"861 548 OFFCURVE",
"889 513 OFFCURVE",
"895 493 QCURVE SMOOTH",
"899 480 OFFCURVE",
"905 455 OFFCURVE",
"907 439 QCURVE",
"908 426 LINE",
"911 410 LINE SMOOTH",
"912 404 OFFCURVE",
"913 394 OFFCURVE",
"915 391 QCURVE",
"915 382 LINE",
"915 380 OFFCURVE",
"916 377 OFFCURVE",
"916 375 QCURVE",
"918 365 OFFCURVE",
"918 358 QCURVE",
"920 335 OFFCURVE",
"896 297 OFFCURVE",
"877 286 QCURVE",
"897 275 OFFCURVE",
"922 235 OFFCURVE",
"922 212 QCURVE",
"922 210 OFFCURVE",
"921 207 OFFCURVE",
"921 205 QCURVE",
"920 194 LINE",
"919 185 LINE",
"919 176 LINE",
"912 106 LINE",
"909 92 LINE",
"905 73 LINE",
"897 41 OFFCURVE",
"846 -1 OFFCURVE",
"815 -9 QCURVE",
"798 -10 OFFCURVE",
"762 -12 OFFCURVE",
"745 -14 QCURVE SMOOTH",
"728 -16 OFFCURVE",
"692 -17 OFFCURVE",
"675 -18 QCURVE",
"605 -20 LINE",
"581 -20 LINE SMOOTH",
"569 -20 OFFCURVE",
"543 -21 OFFCURVE",
"531 -20 QCURVE",
"485 -20 OFFCURVE",
"395 -18 OFFCURVE",
"350 -16 QCURVE",
"336 -14 OFFCURVE",
"307 -13 OFFCURVE",
"293 -12 QCURVE SMOOTH",
"264 -10 OFFCURVE",
"206 -5 OFFCURVE",
"177 -1 QCURVE SMOOTH",
"147 4 OFFCURVE",
"95 47 OFFCURVE",
"86 79 QCURVE",
"83 91 LINE",
"64 102 OFFCURVE",
"36 135 OFFCURVE",
"30 157 QCURVE",
"15 220 OFFCURVE",
"12 293 QCURVE",
"10 310 OFFCURVE",
"25 342 OFFCURVE",
"40 353 QCURVE SMOOTH",
"44 356 OFFCURVE",
"51 361 OFFCURVE",
"55 363 QCURVE",
"41 373 LINE SMOOTH",
"26 384 OFFCURVE",
"14 417 OFFCURVE",
"16 434 QCURVE SMOOTH",
"19 462 OFFCURVE",
"28 514 OFFCURVE",
"35 537 QCURVE SMOOTH",
"37 546 OFFCURVE",
"42 564 OFFCURVE",
"43 569 QCURVE",
"54 598 OFFCURVE",
"102 642 OFFCURVE",
"132 648 QCURVE",
"183 655 OFFCURVE",
"283 662 OFFCURVE",
"333 665 QCURVE",
"351 665 LINE SMOOTH",
"356 665 OFFCURVE",
"364 666 OFFCURVE",
"369 666 QCURVE",
"391 667 OFFCURVE",
"443 668 OFFCURVE",
"465 668 QCURVE SMOOTH",
"510 668 OFFCURVE",
"605 665 OFFCURVE",
"650 661 QCURVE",
"652 661 OFFCURVE",
"658 660 OFFCURVE",
"660 660 QCURVE",
"666 660 OFFCURVE",
"678 659 OFFCURVE",
"683 658 QCURVE SMOOTH"
);
},
{
nodes = (
"543 185 LINE",
"543 193 OFFCURVE",
"544 210 OFFCURVE",
"545 218 QCURVE",
"386 218 LINE",
"386 185 LINE",
"413 184 OFFCURVE",
"467 185 OFFCURVE",
"495 185 QCURVE SMOOTH"
);
},
{
nodes = (
"545 432 LINE",
"545 440 OFFCURVE",
"544 455 OFFCURVE",
"544 463 QCURVE",
"530 464 OFFCURVE",
"504 464 OFFCURVE",
"490 464 QCURVE SMOOTH",
"472 464 OFFCURVE",
"435 464 OFFCURVE",
"417 463 QCURVE",
"392 463 LINE",
"391 455 OFFCURVE",
"390 440 OFFCURVE",
"390 432 QCURVE",
"476 432 LINE",
"487 431 OFFCURVE",
"506 432 OFFCURVE",
"516 432 QCURVE SMOOTH"
);
}
);
width = 933;
}
);
unicode = 0038;
},
{
glyphname = nine;
layers = (
{
layerId = "1456D5E5-B8FF-4D35-B4CF-CE3708A5ECC4";
paths = (
{
nodes = (
"698 646 LINE",
"695 646 OFFCURVE",
"691 647 OFFCURVE",
"689 647 QCURVE",
"682 648 LINE",
"664 650 LINE",
"654 650 OFFCURVE",
"649 651 QCURVE",
"544 659 OFFCURVE",
"337 658 OFFCURVE",
"233 649 QCURVE",
"166 642 LINE SMOOTH",
"158 641 OFFCURVE",
"142 639 OFFCURVE",
"134 638 QCURVE SMOOTH",
"106 633 OFFCURVE",
"63 594 OFFCURVE",
"53 568 QCURVE",
"37 501 LINE SMOOTH",
"35 492 OFFCURVE",
"32 476 OFFCURVE",
"30 468 QCURVE",
"27 447 OFFCURVE",
"23 404 OFFCURVE",
"21 381 QCURVE SMOOTH",
"20 366 OFFCURVE",
"32 340 OFFCURVE",
"51 320 OFFCURVE",
"78 308 OFFCURVE",
"92 308 QCURVE",
"209 307 OFFCURVE",
"440 307 OFFCURVE",
"556 307 QCURVE",
"556 287 OFFCURVE",
"555 250 OFFCURVE",
"555 232 QCURVE",
"553 175 LINE",
"495 175 OFFCURVE",
"381 174 OFFCURVE",
"323 176 QCURVE",
"322 181 OFFCURVE",
"322 191 OFFCURVE",
"322 196 QCURVE",
"321 209 OFFCURVE",
"320 237 OFFCURVE",
"320 250 QCURVE",
"306 251 OFFCURVE",
"277 249 OFFCURVE",
"263 251 QCURVE",
"244 251 LINE",
"189 253 OFFCURVE",
"80 255 OFFCURVE",
"25 257 QCURVE",
"27 232 OFFCURVE",
"35 185 OFFCURVE",
"40 160 QCURVE",
"48 131 OFFCURVE",
"96 92 OFFCURVE",
"123 87 QCURVE",
"256 72 OFFCURVE",
"520 66 OFFCURVE",
"654 72 QCURVE",
"663 73 OFFCURVE",
"681 75 OFFCURVE",
"689 75 QCURVE",
"698 76 OFFCURVE",
"715 77 OFFCURVE",
"723 77 QCURVE SMOOTH",
"732 77 OFFCURVE",
"749 79 OFFCURVE",
"757 79 QCURVE",
"785 86 OFFCURVE",
"831 125 OFFCURVE",
"839 153 QCURVE",
"857 247 OFFCURVE",
"857 346 QCURVE SMOOTH",
"857 355 OFFCURVE",
"856 373 OFFCURVE",
"856 381 QCURVE",
"855 404 OFFCURVE",
"851 447 OFFCURVE",
"849 469 QCURVE",
"846 486 OFFCURVE",
"840 519 OFFCURVE",
"836 536 QCURVE SMOOTH",
"834 544 OFFCURVE",
"831 560 OFFCURVE",
"829 568 QCURVE SMOOTH",
"821 595 OFFCURVE",
"776 637 OFFCURVE",
"747 641 QCURVE",
"739 641 OFFCURVE",
"723 644 OFFCURVE",
"715 644 QCURVE"
);
},
{
nodes = (
"320 436 OFFCURVE",
"322 465 OFFCURVE",
"322 479 QCURVE",
"323 493 OFFCURVE",
"325 520 OFFCURVE",
"325 535 QCURVE SMOOTH",
"325 545 OFFCURVE",
"326 550 QCURVE",
"383 552 OFFCURVE",
"494 552 OFFCURVE",
"551 550 QCURVE",
"553 518 OFFCURVE",
"554 455 OFFCURVE",
"555 422 QCURVE",
"495 424 OFFCURVE",
"380 422 OFFCURVE",
"320 421 QCURVE"
);
},
{
nodes = (
"715 654 LINE",
"721 654 OFFCURVE",
"730 653 OFFCURVE",
"734 652 QCURVE SMOOTH",
"739 651 OFFCURVE",
"748 651 QCURVE",
"780 646 OFFCURVE",
"829 602 OFFCURVE",
"838 573 QCURVE",
"840 560 LINE",
"860 549 OFFCURVE",
"887 515 OFFCURVE",
"894 495 QCURVE",
"898 476 LINE",
"902 460 LINE SMOOTH",
"905 446 OFFCURVE",
"911 416 OFFCURVE",
"913 402 QCURVE",
"915 392 LINE",
"917 371 OFFCURVE",
"921 325 OFFCURVE",
"922 303 QCURVE",
"922 286 LINE SMOOTH",
"922 281 OFFCURVE",
"923 273 OFFCURVE",
"923 268 QCURVE SMOOTH",
"923 166 OFFCURVE",
"905 72 QCURVE",
"897 42 OFFCURVE",
"846 -1 OFFCURVE",
"815 -9 QCURVE",
"811 -9 OFFCURVE",
"803 -10 OFFCURVE",
"799 -10 QCURVE",
"794 -11 OFFCURVE",
"784 -11 OFFCURVE",
"779 -11 QCURVE SMOOTH",
"771 -11 OFFCURVE",
"756 -12 OFFCURVE",
"745 -13 QCURVE",
"740 -13 OFFCURVE",
"729 -14 OFFCURVE",
"723 -15 QCURVE",
"720 -15 OFFCURVE",
"714 -16 OFFCURVE",
"711 -16 QCURVE",
"668 -18 OFFCURVE",
"576 -20 OFFCURVE",
"533 -20 QCURVE SMOOTH",
"442 -20 OFFCURVE",
"264 -11 OFFCURVE",
"176 -1 QCURVE",
"147 5 OFFCURVE",
"94 47 OFFCURVE",
"86 79 QCURVE SMOOTH",
"83 91 LINE",
"64 102 OFFCURVE",
"35 135 OFFCURVE",
"30 157 QCURVE SMOOTH",
"20 203 OFFCURVE",
"14 267 QCURVE",
"28 266 OFFCURVE",
"59 265 OFFCURVE",
"76 265 QCURVE",
"66 284 OFFCURVE",
"67 303 QCURVE",
"43 311 OFFCURVE",
"9 355 OFFCURVE",
"11 382 QCURVE",
"14 409 LINE SMOOTH",
"16 423 OFFCURVE",
"18 453 OFFCURVE",
"20 467 QCURVE",
"24 487 LINE",
"27 503 LINE",
"43 568 LINE",
"54 597 OFFCURVE",
"102 642 OFFCURVE",
"132 648 QCURVE",
"138 648 OFFCURVE",
"148 650 QCURVE",
"166 652 LINE",
"165 652 LINE",
"232 659 LINE",
"340 668 OFFCURVE",
"450 668 QCURVE SMOOTH",
"500 668 OFFCURVE",
"602 665 OFFCURVE",
"652 661 QCURVE",
"657 660 OFFCURVE",
"664 660 QCURVE",
"682 658 LINE",
"689 657 LINE",
"693 657 LINE",
"694 657 OFFCURVE",
"696 656 OFFCURVE",
"698 656 QCURVE"
);
},
{
nodes = (
"543 185 LINE",
"543 193 OFFCURVE",
"544 210 OFFCURVE",
"545 219 QCURVE",
"330 219 LINE",
"332 196 LINE",
"332 191 OFFCURVE",
"331 191 OFFCURVE",
"332 186 QCURVE",
"374 185 OFFCURVE",
"453 185 OFFCURVE",
"495 185 QCURVE SMOOTH"
);
},
{
nodes = (
"544 456 OFFCURVE",
"543 461 OFFCURVE",
"543 464 QCURVE",
"505 464 LINE SMOOTH",
"474 464 OFFCURVE",
"422 463 OFFCURVE",
"391 462 QCURVE",
"391 457 LINE SMOOTH",
"391 451 OFFCURVE",
"391 438 OFFCURVE",
"390 432 QCURVE",
"412 433 OFFCURVE",
"457 433 OFFCURVE",
"476 433 QCURVE SMOOTH",
"496 433 OFFCURVE",
"525 434 OFFCURVE",
"545 433 QCURVE",
"545 438 OFFCURVE",
"544 449 OFFCURVE",
"544 454 QCURVE"
);
}
);
width = 933;
}
);
unicode = 0039;
},
{
glyphname = colon;
layers = (
{
layerId = "1456D5E5-B8FF-4D35-B4CF-CE3708A5ECC4";
paths = (
{
nodes = (
"35 94 LINE",
"103 71 OFFCURVE",
"246 65 OFFCURVE",
"315 79 QCURVE",
"318 105 OFFCURVE",
"322 156 OFFCURVE",
"323 182 QCURVE",
"248 174 OFFCURVE",
"99 177 OFFCURVE",
"25 191 QCURVE"
);
},
{
nodes = (
"101 551 OFFCURVE",
"249 553 OFFCURVE",
"321 540 QCURVE",
"319 566 OFFCURVE",
"314 615 OFFCURVE",
"311 641 QCURVE",
"245 660 OFFCURVE",
"105 655 OFFCURVE",
"39 630 QCURVE",
"36 606 OFFCURVE",
"31 558 OFFCURVE",
"29 535 QCURVE"
);
},
{
nodes = (
"75 72 LINE",
"63 75 OFFCURVE",
"38 82 OFFCURVE",
"26 87 QCURVE",
"14 204 LINE",
"112 185 OFFCURVE",
"197 185 QCURVE SMOOTH",
"228 185 OFFCURVE",
"297 189 OFFCURVE",
"333 193 QCURVE",
"332 170 OFFCURVE",
"330 129 OFFCURVE",
"328 109 QCURVE",
"389 115 LINE",
"388 81 OFFCURVE",
"383 20 OFFCURVE",
"380 -8 QCURVE",
"318 -20 OFFCURVE",
"255 -20 QCURVE SMOOTH",
"168 -20 OFFCURVE",
"82 9 QCURVE"
);
},
{
nodes = (
"75 457 LINE",
"75 459 OFFCURVE",
"76 464 OFFCURVE",
"76 466 QCURVE",
"78 481 OFFCURVE",
"81 517 OFFCURVE",
"83 534 QCURVE",
"31 525 LINE",
"19 535 LINE",
"19 537 OFFCURVE",
"20 542 OFFCURVE",
"20 544 QCURVE",
"22 565 OFFCURVE",
"27 615 OFFCURVE",
"30 637 QCURVE",
"71 652 OFFCURVE",
"152 668 OFFCURVE",
"192 668 QCURVE SMOOTH",
"224 668 OFFCURVE",
"289 658 OFFCURVE",
"321 649 QCURVE",
"321 647 OFFCURVE",
"322 639 OFFCURVE",
"322 637 QCURVE",
"328 582 LINE",
"340 580 OFFCURVE",
"364 574 OFFCURVE",
"377 571 QCURVE",
"377 569 OFFCURVE",
"378 561 OFFCURVE",
"378 559 QCURVE",
"381 535 OFFCURVE",
"386 473 OFFCURVE",
"388 450 QCURVE",
"309 464 OFFCURVE",
"243 464 QCURVE SMOOTH",
"167 464 OFFCURVE",
"87 447 QCURVE"
);
}
);
width = 403;
}
);
unicode = 003A;
},
{
glyphname = semicolon;
layers = (
{
layerId = "1456D5E5-B8FF-4D35-B4CF-CE3708A5ECC4";
paths = (
{
nodes = (
"100 549 OFFCURVE",
"247 552 OFFCURVE",
"319 537 QCURVE",
"317 562 OFFCURVE",
"312 612 OFFCURVE",
"310 637 QCURVE",
"244 659 OFFCURVE",
"103 654 OFFCURVE",
"38 627 QCURVE",
"36 603 OFFCURVE",
"32 554 OFFCURVE",
"29 530 QCURVE"
);
},
{
nodes = (
"44 82 OFFCURVE",
"79 74 OFFCURVE",
"97 71 QCURVE",
"100 3 LINE",
"100 -5 LINE",
"127 -13 OFFCURVE",
"184 -16 OFFCURVE",
"213 -15 QCURVE",
"222 -10 LINE",
"226 -6 LINE",
"250 14 OFFCURVE",
"296 54 OFFCURVE",
"319 75 QCURVE",
"321 101 OFFCURVE",
"323 153 OFFCURVE",
"324 179 QCURVE",
"265 174 OFFCURVE",
"151 172 OFFCURVE",
"93 177 QCURVE SMOOTH",
"75 179 OFFCURVE",
"40 183 OFFCURVE",
"22 185 QCURVE",
"23 160 OFFCURVE",
"25 111 OFFCURVE",
"27 88 QCURVE"
);
},
{
nodes = (
"73 9 LINE",
"70 65 LINE",
"59 67 OFFCURVE",
"36 74 OFFCURVE",
"24 79 QCURVE",
"17 87 LINE",
"15 110 OFFCURVE",
"13 170 OFFCURVE",
"12 195 QCURVE",
"14 195 OFFCURVE",
"28 194 OFFCURVE",
"30 194 QCURVE",
"46 192 OFFCURVE",
"77 189 OFFCURVE",
"94 187 QCURVE SMOOTH",
"119 185 OFFCURVE",
"171 183 OFFCURVE",
"195 183 QCURVE SMOOTH",
"227 183 OFFCURVE",
"296 186 OFFCURVE",
"334 190 QCURVE",
"331 107 LINE",
"345 108 OFFCURVE",
"374 110 OFFCURVE",
"390 112 QCURVE",
"389 86 OFFCURVE",
"387 19 OFFCURVE",
"385 -7 QCURVE",
"362 -28 OFFCURVE",
"312 -72 OFFCURVE",
"288 -92 QCURVE",
"284 -96 LINE",
"269 -103 LINE",
"239 -104 OFFCURVE",
"178 -100 OFFCURVE",
"146 -91 QCURVE",
"146 -75 LINE",
"144 -23 LINE",
"130 -21 OFFCURVE",
"104 -17 OFFCURVE",
"90 -13 QCURVE",
"90 -2 LINE",
"80 1 LINE"
);
},
{
nodes = (
"75 453 LINE",
"77 469 OFFCURVE",
"79 501 OFFCURVE",
"81 517 QCURVE",
"82 531 LINE",
"69 529 OFFCURVE",
"45 523 OFFCURVE",
"32 520 QCURVE",
"19 531 LINE",
"21 547 OFFCURVE",
"23 579 OFFCURVE",
"25 595 QCURVE SMOOTH",
"29 634 LINE",
"68 651 OFFCURVE",
"149 667 OFFCURVE",
"188 667 QCURVE SMOOTH",
"251 667 OFFCURVE",
"320 644 QCURVE",
"321 631 OFFCURVE",
"322 601 OFFCURVE",
"324 588 QCURVE",
"324 580 LINE",
"337 578 OFFCURVE",
"362 571 OFFCURVE",
"376 566 QCURVE",
"377 553 OFFCURVE",
"378 523 OFFCURVE",
"380 510 QCURVE SMOOTH",
"381 497 OFFCURVE",
"385 458 OFFCURVE",
"387 446 QCURVE",
"307 463 OFFCURVE",
"244 463 QCURVE SMOOTH",
"166 463 OFFCURVE",
"88 442 QCURVE"
);
}
);
width = 403;
}
);
unicode = 003B;
},
{
glyphname = question;
layers = (
{
layerId = "1456D5E5-B8FF-4D35-B4CF-CE3708A5ECC4";
paths = (
{
nodes = (
"337 175 OFFCURVE",
"300 177 OFFCURVE",
"282 177 QCURVE",
"284 150 OFFCURVE",
"288 99 OFFCURVE",
"291 72 QCURVE",
"300 72 OFFCURVE",
"318 71 OFFCURVE",
"327 70 QCURVE SMOOTH",
"363 68 OFFCURVE",
"435 68 OFFCURVE",
"472 68 QCURVE",
"490 67 OFFCURVE",
"527 68 OFFCURVE",
"545 68 QCURVE",
"554 70 OFFCURVE",
"571 69 OFFCURVE",
"580 69 QCURVE",
"583 96 OFFCURVE",
"586 149 OFFCURVE",
"587 176 QCURVE",
"569 176 OFFCURVE",
"531 176 OFFCURVE",
"512 175 QCURVE",
"474 176 OFFCURVE",
"395 174 OFFCURVE",
"357 176 QCURVE"
);
},
{
nodes = (
"703 645 OFFCURVE",
"686 646 OFFCURVE",
"678 648 QCURVE SMOOTH",
"670 650 OFFCURVE",
"653 650 OFFCURVE",
"645 651 QCURVE SMOOTH",
"593 655 OFFCURVE",
"488 658 OFFCURVE",
"435 658 QCURVE SMOOTH",
"417 658 OFFCURVE",
"383 657 OFFCURVE",
"365 656 QCURVE",
"357 656 OFFCURVE",
"338 655 OFFCURVE",
"330 655 QCURVE",
"280 652 OFFCURVE",
"181 645 OFFCURVE",
"130 638 QCURVE",
"102 633 OFFCURVE",
"59 594 OFFCURVE",
"49 568 QCURVE",
"47 559 OFFCURVE",
"43 542 OFFCURVE",
"41 534 QCURVE SMOOTH",
"36 517 OFFCURVE",
"29 485 OFFCURVE",
"26 468 QCURVE",
"99 473 OFFCURVE",
"245 477 OFFCURVE",
"318 479 QCURVE",
"318 488 OFFCURVE",
"320 506 OFFCURVE",
"320 515 QCURVE SMOOTH",
"320 523 OFFCURVE",
"322 541 OFFCURVE",
"322 550 QCURVE",
"331 550 OFFCURVE",
"349 552 OFFCURVE",
"358 551 QCURVE",
"406 553 OFFCURVE",
"499 552 OFFCURVE",
"547 550 QCURVE",
"549 537 OFFCURVE",
"547 510 OFFCURVE",
"549 496 QCURVE",
"549 491 OFFCURVE",
"550 484 OFFCURVE",
"550 479 QCURVE SMOOTH",
"550 465 OFFCURVE",
"551 437 OFFCURVE",
"551 422 QCURVE",
"531 423 OFFCURVE",
"492 421 OFFCURVE",
"472 422 QCURVE",
"355 422 LINE SMOOTH",
"339 422 OFFCURVE",
"310 410 OFFCURVE",
"288 389 OFFCURVE",
"275 361 OFFCURVE",
"275 346 QCURVE SMOOTH",
"275 336 OFFCURVE",
"274 317 OFFCURVE",
"275 307 QCURVE",
"275 293 OFFCURVE",
"275 264 OFFCURVE",
"277 250 QCURVE",
"355 250 LINE",
"414 249 OFFCURVE",
"531 250 OFFCURVE",
"591 250 QCURVE",
"591 264 OFFCURVE",
"592 292 OFFCURVE",
"592 307 QCURVE",
"630 307 LINE",
"712 307 LINE SMOOTH",
"729 307 OFFCURVE",
"762 308 OFFCURVE",
"779 307 QCURVE",
"793 307 OFFCURVE",
"820 319 OFFCURVE",
"841 339 OFFCURVE",
"853 366 OFFCURVE",
"852 381 QCURVE SMOOTH",
"851 395 OFFCURVE",
"850 421 OFFCURVE",
"848 434 QCURVE",
"848 441 OFFCURVE",
"845 454 OFFCURVE",
"845 461 QCURVE SMOOTH",
"845 469 LINE",
"843 477 OFFCURVE",
"840 493 OFFCURVE",
"838 502 QCURVE",
"837 515 LINE",
"835 529 OFFCURVE",
"829 554 OFFCURVE",
"825 568 QCURVE SMOOTH",
"817 595 OFFCURVE",
"772 637 OFFCURVE",
"743 641 QCURVE",
"735 641 OFFCURVE",
"719 644 OFFCURVE",
"711 644 QCURVE"
);
},
{
nodes = (
"711 654 LINE",
"717 654 OFFCURVE",
"726 653 OFFCURVE",
"730 652 QCURVE SMOOTH",
"735 651 OFFCURVE",
"744 651 QCURVE",
"776 646 OFFCURVE",
"826 600 OFFCURVE",
"835 571 QCURVE",
"838 559 LINE",
"857 548 OFFCURVE",
"885 513 OFFCURVE",
"891 493 QCURVE SMOOTH",
"895 480 OFFCURVE",
"901 455 OFFCURVE",
"903 439 QCURVE",
"904 426 LINE",
"907 410 LINE SMOOTH",
"908 404 OFFCURVE",
"909 394 OFFCURVE",
"911 391 QCURVE",
"911 383 LINE SMOOTH",
"911 375 OFFCURVE",
"912 371 QCURVE SMOOTH",
"914 363 OFFCURVE",
"914 358 QCURVE SMOOTH",
"914 353 OFFCURVE",
"916 326 OFFCURVE",
"917 316 QCURVE",
"917 313 OFFCURVE",
"918 307 OFFCURVE",
"918 304 QCURVE",
"919 287 OFFCURVE",
"906 256 OFFCURVE",
"882 233 OFFCURVE",
"850 219 OFFCURVE",
"834 219 QCURVE",
"823 220 OFFCURVE",
"802 219 OFFCURVE",
"791 219 QCURVE SMOOTH",
"658 219 LINE",
"658 214 OFFCURVE",
"657 205 OFFCURVE",
"657 200 QCURVE SMOOTH",
"657 162 LINE",
"596 162 LINE",
"596 148 OFFCURVE",
"594 121 OFFCURVE",
"593 108 QCURVE",
"653 108 LINE",
"652 74 OFFCURVE",
"649 12 OFFCURVE",
"645 -19 QCURVE",
"627 -19 LINE SMOOTH",
"621 -19 OFFCURVE",
"609 -19 OFFCURVE",
"602 -20 QCURVE",
"577 -20 LINE SMOOTH",
"565 -20 OFFCURVE",
"539 -21 OFFCURVE",
"527 -20 QCURVE",
"490 -20 OFFCURVE",
"417 -20 OFFCURVE",
"382 -18 QCURVE SMOOTH",
"373 -17 OFFCURVE",
"353 -16 OFFCURVE",
"338 -16 QCURVE",
"336 1 OFFCURVE",
"333 42 OFFCURVE",
"331 59 QCURVE",
"329 59 OFFCURVE",
"328 60 OFFCURVE",
"326 60 QCURVE",
"317 61 OFFCURVE",
"297 62 OFFCURVE",
"282 62 QCURVE",
"280 81 OFFCURVE",
"277 126 OFFCURVE",
"275 144 QCURVE SMOOTH",
"271 187 LINE",
"278 187 OFFCURVE",
"303 186 OFFCURVE",
"311 186 QCURVE",
"313 186 OFFCURVE",
"319 185 OFFCURVE",
"322 185 QCURVE",
"321 197 OFFCURVE",
"321 217 OFFCURVE",
"321 228 QCURVE SMOOTH",
"321 240 LINE",
"268 240 LINE",
"266 261 OFFCURVE",
"265 292 OFFCURVE",
"265 307 QCURVE SMOOTH",
"265 346 LINE",
"264 368 OFFCURVE",
"277 388 QCURVE",
"223 386 OFFCURVE",
"118 382 OFFCURVE",
"70 379 QCURVE",
"74 402 OFFCURVE",
"82 445 OFFCURVE",
"87 459 QCURVE",
"87 461 LINE",
"14 457 LINE",
"18 480 OFFCURVE",
"26 523 OFFCURVE",
"31 537 QCURVE",
"33 545 OFFCURVE",
"38 564 OFFCURVE",
"39 569 QCURVE",
"50 598 OFFCURVE",
"98 642 OFFCURVE",
"128 648 QCURVE",
"179 655 OFFCURVE",
"279 662 OFFCURVE",
"329 665 QCURVE",
"347 665 LINE SMOOTH",
"352 665 OFFCURVE",
"360 666 OFFCURVE",
"365 666 QCURVE SMOOTH",
"370 666 LINE",
"385 667 OFFCURVE",
"420 668 OFFCURVE",
"435 668 QCURVE SMOOTH",
"488 668 OFFCURVE",
"594 665 OFFCURVE",
"646 661 QCURVE",
"648 661 OFFCURVE",
"654 660 OFFCURVE",
"656 660 QCURVE",
"664 660 OFFCURVE",
"676 659 OFFCURVE",
"681 658 QCURVE",
"695 651 OFFCURVE",
"705 655 OFFCURVE",
"710 654 QCURVE"
);
},
{
nodes = (
"541 432 LINE",
"541 437 OFFCURVE",
"540 446 OFFCURVE",
"540 451 QCURVE SMOOTH",
"540 463 LINE",
"526 464 OFFCURVE",
"500 464 OFFCURVE",
"486 464 QCURVE SMOOTH",
"468 464 OFFCURVE",
"431 464 OFFCURVE",
"413 463 QCURVE",
"388 463 LINE",
"388 461 OFFCURVE",
"387 454 OFFCURVE",
"387 452 QCURVE",
"387 447 OFFCURVE",
"386 441 OFFCURVE",
"386 437 QCURVE SMOOTH",
"386 432 LINE",
"472 432 LINE",
"483 431 OFFCURVE",
"502 432 OFFCURVE",
"512 432 QCURVE SMOOTH"
);
}
);
width = 933;
}
);
unicode = 003F;
},
{
glyphname = B;
layers = (
{
layerId = "1456D5E5-B8FF-4D35-B4CF-CE3708A5ECC4";
paths = (
{
nodes = (
"674 650 OFFCURVE",
"657 650 OFFCURVE",
"649 651 QCURVE SMOOTH",
"641 652 OFFCURVE",
"622 651 OFFCURVE",
"614 653 QCURVE",
"553 657 OFFCURVE",
"430 659 OFFCURVE",
"369 656 QCURVE",
"361 656 OFFCURVE",
"342 655 OFFCURVE",
"334 655 QCURVE",
"272 652 OFFCURVE",
"149 641 OFFCURVE",
"88 630 QCURVE",
"71 629 LINE",
"25 500 OFFCURVE",
"16 227 OFFCURVE",
"58 96 QCURVE",
"117 87 OFFCURVE",
"235 76 OFFCURVE",
"295 72 QCURVE",
"304 72 OFFCURVE",
"322 71 OFFCURVE",
"331 70 QCURVE SMOOTH",
"367 68 OFFCURVE",
"439 68 OFFCURVE",
"476 68 QCURVE",
"494 67 OFFCURVE",
"531 68 OFFCURVE",
"549 68 QCURVE",
"619 70 LINE",
"654 72 OFFCURVE",
"722 77 OFFCURVE",
"757 79 QCURVE",
"785 86 OFFCURVE",
"831 125 OFFCURVE",
"839 153 QCURVE SMOOTH",
"841 162 OFFCURVE",
"844 179 OFFCURVE",
"846 187 QCURVE",
"853 255 LINE",
"853 264 LINE",
"854 265 LINE",
"854 274 LINE",
"855 284 LINE",
"856 290 LINE",
"856 325 OFFCURVE",
"830 346 QCURVE SMOOTH",
"821 354 OFFCURVE",
"797 364 OFFCURVE",
"784 363 QCURVE",
"804 362 OFFCURVE",
"837 384 OFFCURVE",
"846 401 QCURVE",
"851 408 OFFCURVE",
"852 425 OFFCURVE",
"852 434 QCURVE SMOOTH",
"852 441 OFFCURVE",
"849 454 OFFCURVE",
"849 461 QCURVE SMOOTH",
"849 469 LINE",
"847 477 OFFCURVE",
"844 493 OFFCURVE",
"842 502 QCURVE",
"841 515 LINE",
"839 524 LINE",
"837 534 LINE",
"836 536 LINE",
"834 544 OFFCURVE",
"831 560 OFFCURVE",
"829 568 QCURVE SMOOTH",
"821 595 OFFCURVE",
"776 637 OFFCURVE",
"747 641 QCURVE SMOOTH",
"731 643 OFFCURVE",
"699 647 OFFCURVE",
"682 648 QCURVE"
);
},
{
nodes = (
"556 287 LINE",
"555 273 OFFCURVE",
"555 246 OFFCURVE",
"555 232 QCURVE",
"553 175 LINE",
"495 175 OFFCURVE",
"381 174 OFFCURVE",
"323 176 QCURVE",
"321 208 OFFCURVE",
"320 275 OFFCURVE",
"320 307 QCURVE",
"358 307 LINE",
"476 307 LINE",
"556 307 LINE"
);
},
{
nodes = (
"552 517 OFFCURVE",
"552 504 OFFCURVE",
"553 496 QCURVE",
"553 478 OFFCURVE",
"555 442 OFFCURVE",
"555 422 QCURVE",
"535 423 OFFCURVE",
"496 421 OFFCURVE",
"476 422 QCURVE",
"359 422 LINE SMOOTH",
"348 422 OFFCURVE",
"330 421 OFFCURVE",
"320 421 QCURVE",
"321 454 OFFCURVE",
"324 518 OFFCURVE",
"326 550 QCURVE",
"335 550 OFFCURVE",
"353 552 OFFCURVE",
"362 551 QCURVE",
"410 553 OFFCURVE",
"503 552 OFFCURVE",
"551 550 QCURVE",
"552 544 OFFCURVE",
"552 531 OFFCURVE",
"552 524 QCURVE SMOOTH"
);
},
{
nodes = (
"694 657 OFFCURVE",
"715 656 OFFCURVE",
"724 654 QCURVE",
"723 654 LINE",
"748 651 LINE",
"780 646 OFFCURVE",
"829 602 OFFCURVE",
"838 573 QCURVE",
"840 560 LINE",
"860 549 OFFCURVE",
"887 515 OFFCURVE",
"894 495 QCURVE",
"898 476 LINE",
"903 458 LINE",
"905 446 LINE",
"907 437 LINE",
"908 426 LINE",
"911 410 LINE SMOOTH",
"912 404 OFFCURVE",
"913 394 OFFCURVE",
"915 391 QCURVE",
"915 383 LINE SMOOTH",
"915 375 OFFCURVE",
"916 371 QCURVE SMOOTH",
"917 367 OFFCURVE",
"918 361 OFFCURVE",
"918 356 QCURVE SMOOTH",
"918 345 OFFCURVE",
"916 326 OFFCURVE",
"910 317 QCURVE",
"911 318 LINE",
"901 298 OFFCURVE",
"878 285 QCURVE",
"892 276 LINE",
"922 251 OFFCURVE",
"922 212 QCURVE",
"921 206 LINE",
"920 195 LINE",
"919 185 LINE",
"919 176 LINE",
"912 106 LINE",
"909 92 LINE",
"905 70 LINE",
"897 41 OFFCURVE",
"846 -1 OFFCURVE",
"815 -9 QCURVE",
"798 -10 OFFCURVE",
"762 -12 OFFCURVE",
"745 -14 QCURVE SMOOTH",
"728 -16 OFFCURVE",
"692 -17 OFFCURVE",
"675 -18 QCURVE",
"605 -20 LINE",
"581 -20 LINE SMOOTH",
"569 -20 OFFCURVE",
"543 -21 OFFCURVE",
"531 -20 QCURVE",
"494 -20 OFFCURVE",
"421 -20 OFFCURVE",
"386 -18 QCURVE SMOOTH",
"377 -17 OFFCURVE",
"359 -16 OFFCURVE",
"350 -16 QCURVE",
"290 -12 OFFCURVE",
"169 -1 OFFCURVE",
"106 9 QCURVE",
"100 27 OFFCURVE",
"91 63 OFFCURVE",
"86 81 QCURVE",
"50 87 LINE",
"11 211 OFFCURVE",
"11 340 QCURVE SMOOTH",
"11 491 OFFCURVE",
"64 639 QCURVE",
"86 640 LINE",
"113 644 OFFCURVE",
"176 652 OFFCURVE",
"241 658 OFFCURVE",
"305 663 OFFCURVE",
"334 665 QCURVE",
"351 665 LINE SMOOTH",
"356 665 OFFCURVE",
"364 666 OFFCURVE",
"369 666 QCURVE",
"389 667 OFFCURVE",
"439 668 OFFCURVE",
"459 668 QCURVE SMOOTH",
"498 668 OFFCURVE",
"577 665 OFFCURVE",
"615 663 QCURVE",
"620 662 OFFCURVE",
"630 662 OFFCURVE",
"635 662 QCURVE SMOOTH",
"639 662 OFFCURVE",
"646 661 OFFCURVE",
"649 661 QCURVE SMOOTH",
"652 661 OFFCURVE",
"657 660 OFFCURVE",
"660 660 QCURVE SMOOTH",
"666 660 OFFCURVE",
"678 659 OFFCURVE",
"683 658 QCURVE SMOOTH"
);
},
{
nodes = (
"543 185 LINE",
"543 193 OFFCURVE",
"544 210 OFFCURVE",
"545 219 QCURVE",
"386 219 LINE",
"386 185 LINE",
"413 184 OFFCURVE",
"467 185 OFFCURVE",
"495 185 QCURVE SMOOTH"
);
},
{
nodes = (
"545 432 LINE",
"545 439 OFFCURVE",
"545 452 OFFCURVE",
"544 459 QCURVE",
"544 463 LINE",
"530 464 OFFCURVE",
"504 464 OFFCURVE",
"490 464 QCURVE SMOOTH",
"472 464 OFFCURVE",
"435 464 OFFCURVE",
"417 463 QCURVE",
"392 463 LINE",
"391 455 OFFCURVE",
"390 440 OFFCURVE",
"390 432 QCURVE",
"476 432 LINE",
"487 431 OFFCURVE",
"506 432 OFFCURVE",
"516 432 QCURVE SMOOTH"
);
}
);
width = 933;
}
);
unicode = 0042;
},
{
glyphname = C;
layers = (
{
layerId = "1456D5E5-B8FF-4D35-B4CF-CE3708A5ECC4";
paths = (
{
nodes = (
"651 651 LINE",
"546 659 OFFCURVE",
"339 658 OFFCURVE",
"235 649 QCURVE",
"218 647 LINE SMOOTH",
"213 646 OFFCURVE",
"206 646 OFFCURVE",
"201 646 QCURVE",
"199 646 OFFCURVE",
"196 645 OFFCURVE",
"194 645 QCURVE",
"168 642 LINE SMOOTH",
"160 641 OFFCURVE",
"144 639 OFFCURVE",
"136 638 QCURVE SMOOTH",
"108 633 OFFCURVE",
"65 594 OFFCURVE",
"55 568 QCURVE",
"53 559 OFFCURVE",
"49 542 OFFCURVE",
"47 534 QCURVE SMOOTH",
"27 459 OFFCURVE",
"23 380 QCURVE",
"23 372 OFFCURVE",
"21 354 OFFCURVE",
"22 345 QCURVE",
"21 307 OFFCURVE",
"30 230 OFFCURVE",
"36 192 QCURVE SMOOTH",
"38 183 OFFCURVE",
"40 168 OFFCURVE",
"42 160 QCURVE SMOOTH",
"50 131 OFFCURVE",
"97 92 OFFCURVE",
"125 87 QCURVE SMOOTH",
"133 85 OFFCURVE",
"150 85 OFFCURVE",
"159 83 QCURVE",
"167 83 OFFCURVE",
"184 78 OFFCURVE",
"193 79 QCURVE",
"201 78 OFFCURVE",
"219 78 OFFCURVE",
"228 77 QCURVE SMOOTH",
"362 67 OFFCURVE",
"625 68 OFFCURVE",
"759 79 QCURVE",
"787 86 OFFCURVE",
"834 124 OFFCURVE",
"841 153 QCURVE",
"846 179 OFFCURVE",
"853 229 OFFCURVE",
"855 255 QCURVE",
"800 253 OFFCURVE",
"691 251 OFFCURVE",
"635 250 QCURVE",
"615 250 LINE",
"601 249 OFFCURVE",
"572 250 OFFCURVE",
"558 249 QCURVE",
"558 235 OFFCURVE",
"556 208 OFFCURVE",
"556 194 QCURVE SMOOTH",
"556 189 OFFCURVE",
"555 180 OFFCURVE",
"555 175 QCURVE",
"497 175 OFFCURVE",
"383 174 OFFCURVE",
"325 176 QCURVE",
"320 279 OFFCURVE",
"322 383 QCURVE",
"322 466 OFFCURVE",
"328 550 QCURVE",
"385 552 OFFCURVE",
"496 552 OFFCURVE",
"553 550 QCURVE",
"554 546 OFFCURVE",
"553 538 OFFCURVE",
"553 534 QCURVE",
"555 520 OFFCURVE",
"555 492 OFFCURVE",
"556 479 QCURVE",
"570 480 OFFCURVE",
"598 478 OFFCURVE",
"613 478 QCURVE SMOOTH",
"633 478 LINE",
"670 476 LINE SMOOTH",
"715 474 OFFCURVE",
"805 471 OFFCURVE",
"851 469 QCURVE",
"849 477 OFFCURVE",
"846 493 OFFCURVE",
"844 502 QCURVE",
"842 519 OFFCURVE",
"836 552 OFFCURVE",
"831 568 QCURVE SMOOTH",
"823 595 OFFCURVE",
"778 637 OFFCURVE",
"749 641 QCURVE",
"741 641 OFFCURVE",
"725 644 OFFCURVE",
"717 644 QCURVE"
);
},
{
nodes = (
"718 654 LINE",
"726 654 OFFCURVE",
"736 652 QCURVE SMOOTH",
"741 651 OFFCURVE",
"750 651 QCURVE",
"782 646 OFFCURVE",
"832 600 OFFCURVE",
"841 571 QCURVE",
"844 559 LINE",
"863 548 OFFCURVE",
"891 513 OFFCURVE",
"897 493 QCURVE SMOOTH",
"901 479 OFFCURVE",
"908 444 OFFCURVE",
"910 426 QCURVE",
"913 410 LINE SMOOTH",
"914 402 OFFCURVE",
"921 380 QCURVE",
"878 382 OFFCURVE",
"779 386 OFFCURVE",
"737 388 QCURVE",
"726 388 LINE",
"689 390 LINE",
"669 390 LINE SMOOTH",
"663 390 OFFCURVE",
"651 391 OFFCURVE",
"645 391 QCURVE SMOOTH",
"640 391 OFFCURVE",
"626 390 OFFCURVE",
"619 390 QCURVE SMOOTH",
"602 390 LINE",
"602 395 OFFCURVE",
"601 414 OFFCURVE",
"601 419 QCURVE SMOOTH",
"601 427 OFFCURVE",
"600 446 OFFCURVE",
"599 455 QCURVE",
"599 461 LINE",
"599 462 LINE",
"599 463 LINE",
"576 464 OFFCURVE",
"530 464 OFFCURVE",
"507 464 QCURVE SMOOTH",
"476 464 OFFCURVE",
"424 463 OFFCURVE",
"393 462 QCURVE",
"391 424 OFFCURVE",
"388 343 OFFCURVE",
"388 305 QCURVE SMOOTH",
"388 253 LINE",
"388 185 LINE",
"415 184 OFFCURVE",
"469 185 OFFCURVE",
"497 185 QCURVE SMOOTH",
"545 185 LINE",
"545 187 OFFCURVE",
"546 191 OFFCURVE",
"546 194 QCURVE SMOOTH",
"546 202 OFFCURVE",
"546 217 OFFCURVE",
"547 223 QCURVE",
"547 231 OFFCURVE",
"548 254 OFFCURVE",
"548 259 QCURVE",
"587 259 LINE SMOOTH",
"594 259 OFFCURVE",
"607 259 OFFCURVE",
"614 260 QCURVE",
"635 260 LINE",
"691 261 OFFCURVE",
"811 263 OFFCURVE",
"866 265 QCURVE",
"863 222 OFFCURVE",
"857 185 QCURVE",
"874 185 OFFCURVE",
"906 186 OFFCURVE",
"922 187 QCURVE",
"917 123 OFFCURVE",
"907 73 QCURVE",
"899 41 OFFCURVE",
"848 -1 OFFCURVE",
"817 -9 QCURVE",
"747 -14 OFFCURVE",
"605 -20 OFFCURVE",
"535 -20 QCURVE SMOOTH",
"409 -20 OFFCURVE",
"283 -11 QCURVE",
"279 -11 OFFCURVE",
"270 -10 OFFCURVE",
"266 -10 QCURVE SMOOTH",
"261 -10 OFFCURVE",
"252 -10 OFFCURVE",
"248 -9 QCURVE",
"242 -10 OFFCURVE",
"233 -8 OFFCURVE",
"228 -7 QCURVE SMOOTH",
"218 -5 OFFCURVE",
"213 -5 QCURVE",
"208 -4 OFFCURVE",
"201 -3 OFFCURVE",
"198 -3 QCURVE",
"179 -1 LINE",
"149 4 OFFCURVE",
"97 47 OFFCURVE",
"88 79 QCURVE",
"86 90 LINE",
"67 101 OFFCURVE",
"38 135 OFFCURVE",
"32 157 QCURVE",
"30 171 LINE",
"30 170 LINE",
"26 190 LINE",
"20 226 OFFCURVE",
"11 305 OFFCURVE",
"12 344 QCURVE",
"12 367 LINE SMOOTH",
"12 371 OFFCURVE",
"13 377 OFFCURVE",
"13 380 QCURVE",
"17 463 OFFCURVE",
"37 537 QCURVE SMOOTH",
"39 546 OFFCURVE",
"44 564 OFFCURVE",
"45 569 QCURVE",
"56 598 OFFCURVE",
"104 642 OFFCURVE",
"134 648 QCURVE",
"140 648 OFFCURVE",
"150 650 QCURVE",
"167 652 LINE",
"196 655 LINE",
"197 655 OFFCURVE",
"199 656 OFFCURVE",
"201 656 QCURVE",
"205 656 OFFCURVE",
"212 656 OFFCURVE",
"217 657 QCURVE SMOOTH",
"234 659 LINE SMOOTH",
"287 664 OFFCURVE",
"398 668 OFFCURVE",
"452 668 QCURVE SMOOTH",
"502 668 OFFCURVE",
"602 665 OFFCURVE",
"652 661 QCURVE"
);
}
);
width = 933;
}
);
unicode = 0043;
},
{
glyphname = A;
layers = (
{
layerId = "1456D5E5-B8FF-4D35-B4CF-CE3708A5ECC4";
paths = (
{
nodes = (
"441 676 OFFCURVE",
"747 641 QCURVE",
"776 637 OFFCURVE",
"820 595 OFFCURVE",
"828 568 QCURVE",
"859 450 OFFCURVE",
"854 206 OFFCURVE",
"821 89 QCURVE",
"753 79 OFFCURVE",
"617 70 OFFCURVE",
"548 68 QCURVE",
"551 128 OFFCURVE",
"555 247 OFFCURVE",
"555 307 QCURVE",
"319 307 LINE",
"319 247 OFFCURVE",
"325 130 OFFCURVE",
"330 70 QCURVE",
"261 73 OFFCURVE",
"125 85 OFFCURVE",
"57 96 QCURVE",
"22 211 OFFCURVE",
"17 451 OFFCURVE",
"52 568 QCURVE",
"62 594 OFFCURVE",
"105 633 OFFCURVE",
"133 638 QCURVE"
);
},
{
nodes = (
"553 455 OFFCURVE",
"552 518 OFFCURVE",
"550 550 QCURVE",
"493 552 OFFCURVE",
"382 552 OFFCURVE",
"325 550 QCURVE",
"323 518 OFFCURVE",
"320 454 OFFCURVE",
"319 421 QCURVE",
"379 422 OFFCURVE",
"494 424 OFFCURVE",
"554 422 QCURVE"
);
},
{
nodes = (
"131 648 LINE",
"100 642 OFFCURVE",
"53 599 OFFCURVE",
"42 571 QCURVE",
"25 515 OFFCURVE",
"10 401 OFFCURVE",
"10 342 QCURVE SMOOTH",
"10 214 OFFCURVE",
"49 87 QCURVE",
"86 81 LINE",
"90 63 OFFCURVE",
"99 27 OFFCURVE",
"105 9 QCURVE",
"241 -12 OFFCURVE",
"397 -18 QCURVE",
"392 39 OFFCURVE",
"386 162 OFFCURVE",
"385 219 QCURVE",
"544 219 LINE",
"537 58 LINE",
"552 58 OFFCURVE",
"582 58 OFFCURVE",
"597 59 QCURVE",
"593 -20 LINE",
"669 -18 OFFCURVE",
"814 -8 OFFCURVE",
"885 2 QCURVE",
"903 68 OFFCURVE",
"923 199 OFFCURVE",
"923 265 QCURVE SMOOTH",
"923 382 OFFCURVE",
"894 493 QCURVE",
"887 513 OFFCURVE",
"860 549 OFFCURVE",
"841 560 QCURVE",
"838 571 LINE",
"829 600 OFFCURVE",
"780 646 OFFCURVE",
"748 651 QCURVE",
"675 659 OFFCURVE",
"528 668 OFFCURVE",
"453 668 QCURVE SMOOTH",
"372 668 OFFCURVE",
"212 658 OFFCURVE",
"132 648 QCURVE"
);
},
{
nodes = (
"455 433 OFFCURVE",
"410 433 OFFCURVE",
"389 432 QCURVE",
"389 440 OFFCURVE",
"390 454 OFFCURVE",
"391 462 QCURVE",
"422 463 OFFCURVE",
"473 464 OFFCURVE",
"504 464 QCURVE SMOOTH",
"542 464 LINE",
"542 461 OFFCURVE",
"543 456 OFFCURVE",
"543 454 QCURVE",
"543 449 OFFCURVE",
"543 438 OFFCURVE",
"544 432 QCURVE",
"526 433 OFFCURVE",
"492 433 OFFCURVE",
"475 433 QCURVE SMOOTH"
);
}
);
width = 933;
}
);
unicode = 0041;
},
{
glyphname = trademark;
layers = (
{
layerId = "1456D5E5-B8FF-4D35-B4CF-CE3708A5ECC4";
paths = (
{
nodes = (
"39 647 OFFCURVE",
"33 631 OFFCURVE",
"30 623 QCURVE",
"43 624 OFFCURVE",
"70 626 OFFCURVE",
"83 626 QCURVE",
"79 614 OFFCURVE",
"74 589 OFFCURVE",
"72 577 QCURVE",
"72 574 OFFCURVE",
"71 568 OFFCURVE",
"71 565 QCURVE SMOOTH",
"71 558 LINE",
"70 539 OFFCURVE",
"74 499 OFFCURVE",
"80 480 QCURVE",
"88 479 OFFCURVE",
"105 480 OFFCURVE",
"114 479 QCURVE",
"119 479 OFFCURVE",
"130 478 OFFCURVE",
"136 478 QCURVE SMOOTH",
"145 478 OFFCURVE",
"162 478 OFFCURVE",
"170 477 QCURVE",
"167 499 OFFCURVE",
"165 543 OFFCURVE",
"166 565 QCURVE",
"166 568 OFFCURVE",
"167 576 OFFCURVE",
"167 578 QCURVE",
"168 591 OFFCURVE",
"170 617 OFFCURVE",
"171 630 QCURVE",
"230 630 LINE",
"232 638 OFFCURVE",
"230 655 OFFCURVE",
"232 663 QCURVE",
"212 663 OFFCURVE",
"176 663 OFFCURVE",
"157 662 QCURVE SMOOTH",
"150 661 OFFCURVE",
"137 661 OFFCURVE",
"130 661 QCURVE",
"108 659 OFFCURVE",
"65 656 OFFCURVE",
"44 654 QCURVE"
);
},
{
nodes = (
"464 657 OFFCURVE",
"423 659 OFFCURVE",
"402 661 QCURVE",
"397 650 OFFCURVE",
"380 629 OFFCURVE",
"375 618 QCURVE",
"336 663 LINE",
"313 665 OFFCURVE",
"266 663 OFFCURVE",
"243 664 QCURVE",
"240 617 OFFCURVE",
"239 524 OFFCURVE",
"242 476 QCURVE",
"266 476 OFFCURVE",
"314 475 OFFCURVE",
"339 476 QCURVE",
"341 509 OFFCURVE",
"342 574 OFFCURVE",
"340 608 QCURVE",
"351 595 OFFCURVE",
"370 572 OFFCURVE",
"378 558 QCURVE",
"386 572 OFFCURVE",
"403 593 OFFCURVE",
"411 607 QCURVE",
"415 574 OFFCURVE",
"414 510 OFFCURVE",
"409 478 QCURVE",
"454 478 OFFCURVE",
"498 481 QCURVE",
"510 524 OFFCURVE",
"502 613 OFFCURVE",
"484 655 QCURVE"
);
},
{
nodes = (
"43 664 LINE",
"64 666 OFFCURVE",
"107 669 OFFCURVE",
"129 671 QCURVE",
"136 671 OFFCURVE",
"149 671 OFFCURVE",
"156 672 QCURVE SMOOTH",
"173 673 OFFCURVE",
"215 673 OFFCURVE",
"234 673 QCURVE",
"234 674 LINE",
"283 674 LINE SMOOTH",
"297 674 OFFCURVE",
"328 674 OFFCURVE",
"342 673 QCURVE",
"374 635 LINE",
"376 637 OFFCURVE",
"378 642 OFFCURVE",
"380 644 QCURVE SMOOTH",
"383 649 OFFCURVE",
"390 660 OFFCURVE",
"395 671 QCURVE",
"429 669 LINE SMOOTH",
"443 668 OFFCURVE",
"471 667 OFFCURVE",
"485 665 QCURVE",
"493 659 LINE",
"509 625 OFFCURVE",
"513 589 QCURVE",
"521 589 OFFCURVE",
"534 588 OFFCURVE",
"541 587 QCURVE",
"549 581 LINE",
"573 528 OFFCURVE",
"573 469 QCURVE SMOOTH",
"573 434 OFFCURVE",
"562 393 QCURVE",
"540 391 OFFCURVE",
"476 390 OFFCURVE",
"453 390 QCURVE",
"457 413 OFFCURVE",
"461 452 OFFCURVE",
"461 469 QCURVE",
"455 469 OFFCURVE",
"443 468 OFFCURVE",
"437 468 QCURVE",
"434 463 LINE",
"431 468 LINE",
"407 468 LINE",
"407 451 OFFCURVE",
"406 414 OFFCURVE",
"404 388 QCURVE",
"387 387 OFFCURVE",
"346 388 OFFCURVE",
"330 388 QCURVE SMOOTH",
"289 388 LINE",
"287 405 OFFCURVE",
"285 446 OFFCURVE",
"285 466 QCURVE",
"274 466 LINE",
"233 466 LINE",
"232 471 OFFCURVE",
"232 482 QCURVE",
"231 462 OFFCURVE",
"233 415 OFFCURVE",
"238 388 QCURVE",
"223 390 OFFCURVE",
"202 390 OFFCURVE",
"192 390 QCURVE SMOOTH",
"189 390 OFFCURVE",
"183 391 OFFCURVE",
"180 391 QCURVE SMOOTH",
"153 391 LINE SMOOTH",
"147 391 OFFCURVE",
"136 391 OFFCURVE",
"128 393 QCURVE",
"121 412 OFFCURVE",
"117 450 OFFCURVE",
"117 469 QCURVE",
"97 469 LINE SMOOTH",
"91 469 OFFCURVE",
"80 469 OFFCURVE",
"72 471 QCURVE",
"64 493 OFFCURVE",
"60 538 OFFCURVE",
"61 558 QCURVE",
"61 571 LINE",
"61 573 OFFCURVE",
"62 575 OFFCURVE",
"62 577 QCURVE",
"62 578 OFFCURVE",
"63 582 OFFCURVE",
"63 583 QCURVE",
"65 594 OFFCURVE",
"66 605 OFFCURVE",
"70 616 QCURVE",
"63 616 OFFCURVE",
"56 615 OFFCURVE",
"48 614 QCURVE",
"43 614 OFFCURVE",
"18 613 OFFCURVE",
"14 613 QCURVE",
"24 635 LINE SMOOTH",
"26 640 OFFCURVE",
"32 655 OFFCURVE",
"36 660 QCURVE"
);
},
{
nodes = (
"231 620 LINE",
"180 620 LINE",
"179 615 OFFCURVE",
"179 607 OFFCURVE",
"179 603 QCURVE",
"177 592 LINE",
"179 592 OFFCURVE",
"183 593 OFFCURVE",
"185 593 QCURVE",
"192 593 OFFCURVE",
"205 593 OFFCURVE",
"212 594 QCURVE",
"229 594 LINE"
);
}
);
width = 588;
}
);
unicode = 2122;
},
{
glyphname = uni0401;
layers = (
{
layerId = "1456D5E5-B8FF-4D35-B4CF-CE3708A5ECC4";
paths = (
{
nodes = (
"768 656 OFFCURVE",
"624 662 OFFCURVE",
"551 665 QCURVE",
"512 599 OFFCURVE",
"430 468 OFFCURVE",
"390 401 QCURVE SMOOTH",
"333 306 LINE",
"329 301 OFFCURVE",
"324 288 OFFCURVE",
"319 284 QCURVE",
"316 380 OFFCURVE",
"320 570 OFFCURVE",
"324 665 QCURVE",
"180 660 OFFCURVE",
"38 647 QCURVE",
"14 513 OFFCURVE",
"27 241 OFFCURVE",
"59 109 QCURVE",
"127 95 OFFCURVE",
"261 78 OFFCURVE",
"330 74 QCURVE",
"384 170 OFFCURVE",
"499 351 OFFCURVE",
"555 445 QCURVE",
"555 351 OFFCURVE",
"552 165 OFFCURVE",
"546 71 QCURVE",
"615 73 OFFCURVE",
"750 85 OFFCURVE",
"819 98 QCURVE",
"851 233 OFFCURVE",
"861 510 OFFCURVE",
"840 648 QCURVE"
);
},
{
nodes = (
"635 747 LINE",
"633 764 OFFCURVE",
"631 799 OFFCURVE",
"629 816 QCURVE SMOOTH",
"628 824 LINE",
"600 827 OFFCURVE",
"546 828 OFFCURVE",
"518 830 QCURVE",
"516 828 OFFCURVE",
"510 824 OFFCURVE",
"506 822 QCURVE",
"483 804 OFFCURVE",
"437 771 OFFCURVE",
"414 754 QCURVE",
"413 739 OFFCURVE",
"414 709 OFFCURVE",
"413 695 QCURVE",
"470 696 OFFCURVE",
"582 693 OFFCURVE",
"639 691 QCURVE"
);
},
{
nodes = (
"162 685 LINE",
"216 689 OFFCURVE",
"324 694 OFFCURVE",
"379 695 QCURVE",
"380 709 OFFCURVE",
"380 739 OFFCURVE",
"381 753 QCURVE",
"297 818 LINE",
"285 825 LINE",
"259 823 OFFCURVE",
"207 818 OFFCURVE",
"182 815 QCURVE",
"179 806 LINE",
"176 789 OFFCURVE",
"171 757 OFFCURVE",
"169 740 QCURVE SMOOTH"
);
},
{
nodes = (
"906 571 LINE",
"914 516 OFFCURVE",
"923 406 OFFCURVE",
"923 349 QCURVE SMOOTH",
"923 264 OFFCURVE",
"903 96 OFFCURVE",
"883 11 QCURVE",
"813 -2 OFFCURVE",
"667 -14 OFFCURVE",
"591 -17 QCURVE",
"593 4 OFFCURVE",
"594 43 OFFCURVE",
"595 63 QCURVE",
"535 61 LINE",
"538 109 OFFCURVE",
"541 195 OFFCURVE",
"543 237 QCURVE",
"526 210 LINE SMOOTH",
"492 156 OFFCURVE",
"424 43 OFFCURVE",
"392 -14 QCURVE",
"317 -10 OFFCURVE",
"176 7 OFFCURVE",
"107 22 QCURVE",
"98 56 OFFCURVE",
"92 91 QCURVE",
"51 100 LINE",
"31 184 OFFCURVE",
"9 351 OFFCURVE",
"9 435 QCURVE SMOOTH",
"9 490 OFFCURVE",
"18 600 OFFCURVE",
"29 656 QCURVE",
"73 660 OFFCURVE",
"168 667 OFFCURVE",
"216 669 QCURVE",
"216 675 OFFCURVE",
"217 678 QCURVE",
"150 674 LINE",
"159 741 LINE SMOOTH",
"161 758 OFFCURVE",
"165 787 OFFCURVE",
"168 804 QCURVE",
"175 824 LINE",
"200 827 OFFCURVE",
"261 833 OFFCURVE",
"287 835 QCURVE",
"303 826 LINE",
"392 758 LINE",
"390 743 OFFCURVE",
"390 729 OFFCURVE",
"390 724 QCURVE",
"403 714 LINE",
"403 724 LINE SMOOTH",
"403 734 OFFCURVE",
"403 752 OFFCURVE",
"404 760 QCURVE",
"448 791 LINE SMOOTH",
"460 800 OFFCURVE",
"488 820 OFFCURVE",
"500 830 QCURVE",
"501 831 OFFCURVE",
"504 833 QCURVE SMOOTH",
"506 835 OFFCURVE",
"510 836 OFFCURVE",
"512 838 QCURVE",
"519 840 LINE",
"528 839 OFFCURVE",
"547 838 OFFCURVE",
"555 838 QCURVE",
"573 837 OFFCURVE",
"618 835 OFFCURVE",
"637 833 QCURVE",
"639 817 LINE",
"641 793 LINE",
"641 784 OFFCURVE",
"642 767 OFFCURVE",
"643 759 QCURVE",
"656 758 OFFCURVE",
"682 757 OFFCURVE",
"693 755 QCURVE",
"695 739 LINE",
"697 715 LINE SMOOTH",
"698 703 OFFCURVE",
"699 681 OFFCURVE",
"701 670 QCURVE",
"701 669 LINE",
"736 667 OFFCURVE",
"806 662 OFFCURVE",
"841 658 QCURVE",
"850 649 LINE",
"852 632 OFFCURVE",
"856 600 OFFCURVE",
"858 584 QCURVE",
"897 580 LINE"
);
},
{
nodes = (
"441 685 LINE",
"448 680 LINE",
"446 665 OFFCURVE",
"446 651 OFFCURVE",
"446 646 QCURVE SMOOTH",
"446 638 OFFCURVE",
"445 614 OFFCURVE",
"445 607 QCURVE",
"419 606 OFFCURVE",
"360 605 OFFCURVE",
"331 603 QCURVE",
"331 601 OFFCURVE",
"330 597 OFFCURVE",
"330 595 QCURVE",
"390 597 LINE",
"388 552 OFFCURVE",
"385 458 OFFCURVE",
"384 410 QCURVE",
"458 533 LINE",
"504 607 LINE",
"459 607 LINE",
"459 646 LINE SMOOTH",
"459 656 OFFCURVE",
"459 674 OFFCURVE",
"460 682 QCURVE",
"464 685 LINE",
"453 685 LINE"
);
}
);
width = 933;
}
);
unicode = 0401;
},
{
glyphname = uni0411;
layers = (
{
layerId = "1456D5E5-B8FF-4D35-B4CF-CE3708A5ECC4";
paths = (
{
nodes = (
"320 208 OFFCURVE",
"319 275 OFFCURVE",
"319 307 QCURVE",
"555 307 LINE",
"554 274 OFFCURVE",
"554 208 OFFCURVE",
"552 175 QCURVE",
"494 175 OFFCURVE",
"380 174 OFFCURVE",
"322 176 QCURVE"
);
},
{
nodes = (
"624 659 OFFCURVE",
"254 658 OFFCURVE",
"70 629 QCURVE",
"24 500 OFFCURVE",
"15 227 OFFCURVE",
"57 96 QCURVE",
"231 71 OFFCURVE",
"581 65 OFFCURVE",
"756 79 QCURVE SMOOTH",
"764 80 OFFCURVE",
"776 86 OFFCURVE",
"782 89 QCURVE SMOOTH",
"802 98 OFFCURVE",
"832 132 OFFCURVE",
"838 153 QCURVE",
"856 247 OFFCURVE",
"856 346 QCURVE",
"855 355 OFFCURVE",
"850 373 OFFCURVE",
"845 381 QCURVE SMOOTH",
"834 398 OFFCURVE",
"800 418 OFFCURVE",
"780 418 QCURVE",
"550 424 OFFCURVE",
"319 421 QCURVE",
"320 454 OFFCURVE",
"323 518 OFFCURVE",
"325 550 QCURVE",
"580 557 OFFCURVE",
"833 535 QCURVE",
"828 560 OFFCURVE",
"815 608 OFFCURVE",
"808 632 QCURVE"
);
},
{
nodes = (
"874 557 LINE",
"881 533 OFFCURVE",
"897 471 OFFCURVE",
"902 446 QCURVE",
"699 464 OFFCURVE",
"508 464 QCURVE SMOOTH",
"476 464 OFFCURVE",
"423 463 OFFCURVE",
"391 462 QCURVE",
"390 454 OFFCURVE",
"389 439 OFFCURVE",
"389 432 QCURVE",
"473 432 LINE SMOOTH",
"551 432 OFFCURVE",
"703 430 OFFCURVE",
"780 428 QCURVE SMOOTH",
"802 427 OFFCURVE",
"841 404 OFFCURVE",
"853 387 QCURVE SMOOTH",
"858 379 OFFCURVE",
"865 356 OFFCURVE",
"866 347 QCURVE",
"866 343 LINE",
"892 332 OFFCURVE",
"909 309 QCURVE SMOOTH",
"914 301 OFFCURVE",
"921 278 OFFCURVE",
"922 269 QCURVE",
"922 220 OFFCURVE",
"913 121 OFFCURVE",
"903 70 QCURVE",
"897 48 OFFCURVE",
"863 12 OFFCURVE",
"840 1 QCURVE",
"834 -1 LINE",
"838 0 LINE",
"832 -2 OFFCURVE",
"820 -7 OFFCURVE",
"813 -9 QCURVE",
"673 -21 OFFCURVE",
"531 -21 QCURVE SMOOTH",
"425 -21 OFFCURVE",
"213 -7 OFFCURVE",
"105 9 QCURVE",
"99 27 OFFCURVE",
"90 63 OFFCURVE",
"85 82 QCURVE",
"76 83 OFFCURVE",
"58 85 OFFCURVE",
"49 87 QCURVE",
"10 211 OFFCURVE",
"10 340 QCURVE SMOOTH",
"10 490 OFFCURVE",
"63 638 QCURVE",
"160 654 OFFCURVE",
"352 668 OFFCURVE",
"449 668 QCURVE SMOOTH",
"540 668 OFFCURVE",
"719 656 OFFCURVE",
"809 642 QCURVE",
"818 635 LINE",
"835 568 LINE",
"865 564 LINE"
);
},
{
nodes = (
"543 185 LINE",
"543 193 OFFCURVE",
"544 210 OFFCURVE",
"544 219 QCURVE",
"385 219 LINE",
"385 185 LINE",
"412 184 OFFCURVE",
"466 185 OFFCURVE",
"494 185 QCURVE SMOOTH"
);
}
);
width = 933;
}
);
unicode = 0411;
},
{
glyphname = uni041F;
layers = (
{
layerId = "1456D5E5-B8FF-4D35-B4CF-CE3708A5ECC4";
paths = (
{
nodes = (
"34 523 OFFCURVE",
"14 302 OFFCURVE",
"34 192 QCURVE SMOOTH",
"39 168 OFFCURVE",
"49 120 OFFCURVE",
"56 96 QCURVE",
"124 85 OFFCURVE",
"261 72 OFFCURVE",
"330 70 QCURVE",
"322 191 OFFCURVE",
"318 429 OFFCURVE",
"326 550 QCURVE",
"372 552 OFFCURVE",
"464 552 OFFCURVE",
"511 551 QCURVE",
"516 430 OFFCURVE",
"515 190 OFFCURVE",
"508 68 QCURVE",
"578 69 OFFCURVE",
"714 79 OFFCURVE",
"783 88 QCURVE",
"819 222 OFFCURVE",
"812 498 OFFCURVE",
"774 632 QCURVE",
"597 659 OFFCURVE",
"244 658 OFFCURVE",
"69 629 QCURVE"
);
},
{
nodes = (
"67 639 LINE",
"157 654 OFFCURVE",
"338 668 OFFCURVE",
"430 668 QCURVE SMOOTH",
"518 668 OFFCURVE",
"693 655 OFFCURVE",
"782 641 QCURVE",
"787 623 OFFCURVE",
"795 587 OFFCURVE",
"799 569 QCURVE",
"838 563 LINE",
"859 487 OFFCURVE",
"881 335 OFFCURVE",
"881 260 QCURVE SMOOTH",
"881 130 OFFCURVE",
"847 1 QCURVE",
"775 -8 OFFCURVE",
"630 -19 OFFCURVE",
"553 -20 QCURVE",
"557 59 LINE",
"542 58 OFFCURVE",
"512 58 OFFCURVE",
"497 58 QCURVE",
"501 125 OFFCURVE",
"505 268 OFFCURVE",
"505 334 QCURVE SMOOTH",
"505 368 OFFCURVE",
"505 432 OFFCURVE",
"504 464 QCURVE",
"490 464 LINE SMOOTH",
"463 464 OFFCURVE",
"418 463 OFFCURVE",
"391 462 QCURVE",
"388 414 OFFCURVE",
"386 326 OFFCURVE",
"386 278 QCURVE SMOOTH",
"386 206 OFFCURVE",
"392 54 OFFCURVE",
"397 -18 QCURVE",
"319 -16 OFFCURVE",
"173 -2 OFFCURVE",
"104 9 QCURVE",
"93 46 OFFCURVE",
"86 81 QCURVE",
"48 87 LINE",
"33 144 OFFCURVE",
"24 190 QCURVE SMOOTH",
"17 226 OFFCURVE",
"11 300 OFFCURVE",
"11 338 QCURVE SMOOTH",
"11 413 OFFCURVE",
"36 560 OFFCURVE",
"60 632 QCURVE"
);
}
);
width = 892;
}
);
unicode = 041F;
},
{
glyphname = uni0427;
layers = (
{
layerId = "1456D5E5-B8FF-4D35-B4CF-CE3708A5ECC4";
paths = (
{
nodes = (
"707 645 OFFCURVE",
"690 646 OFFCURVE",
"682 648 QCURVE SMOOTH",
"674 650 OFFCURVE",
"657 650 OFFCURVE",
"649 651 QCURVE SMOOTH",
"623 653 OFFCURVE",
"571 655 OFFCURVE",
"545 656 QCURVE",
"547 629 OFFCURVE",
"550 577 OFFCURVE",
"551 550 QCURVE",
"552 544 OFFCURVE",
"552 531 OFFCURVE",
"552 524 QCURVE SMOOTH",
"552 517 OFFCURVE",
"552 504 OFFCURVE",
"553 496 QCURVE",
"553 478 OFFCURVE",
"555 442 OFFCURVE",
"555 422 QCURVE",
"535 423 OFFCURVE",
"496 421 OFFCURVE",
"476 422 QCURVE",
"359 422 LINE SMOOTH",
"348 422 OFFCURVE",
"330 421 OFFCURVE",
"320 421 QCURVE",
"321 454 OFFCURVE",
"324 518 OFFCURVE",
"326 550 QCURVE SMOOTH",
"334 655 LINE",
"284 652 OFFCURVE",
"185 645 OFFCURVE",
"134 638 QCURVE",
"119 635 OFFCURVE",
"87 631 OFFCURVE",
"71 629 QCURVE",
"66 614 OFFCURVE",
"58 583 OFFCURVE",
"53 568 QCURVE",
"51 559 OFFCURVE",
"47 542 OFFCURVE",
"45 534 QCURVE SMOOTH",
"38 509 OFFCURVE",
"29 459 OFFCURVE",
"26 433 QCURVE SMOOTH",
"25 420 OFFCURVE",
"22 395 OFFCURVE",
"21 381 QCURVE SMOOTH",
"20 366 OFFCURVE",
"32 340 OFFCURVE",
"52 320 OFFCURVE",
"78 308 OFFCURVE",
"92 308 QCURVE SMOOTH",
"149 308 OFFCURVE",
"263 307 OFFCURVE",
"320 307 QCURVE SMOOTH",
"358 307 LINE",
"476 307 LINE",
"556 307 LINE",
"556 287 LINE",
"555 273 OFFCURVE",
"555 246 OFFCURVE",
"555 232 QCURVE",
"553 175 LINE SMOOTH",
"552 152 OFFCURVE",
"551 109 OFFCURVE",
"549 88 QCURVE",
"549 77 LINE",
"549 68 LINE",
"619 70 LINE",
"654 72 OFFCURVE",
"722 77 OFFCURVE",
"757 79 QCURVE",
"774 81 OFFCURVE",
"806 85 OFFCURVE",
"822 89 QCURVE",
"829 113 OFFCURVE",
"841 161 OFFCURVE",
"846 187 QCURVE",
"853 255 LINE",
"853 264 LINE",
"854 265 LINE",
"854 274 LINE",
"855 284 LINE",
"856 290 LINE",
"855 304 OFFCURVE",
"858 332 OFFCURVE",
"857 346 QCURVE",
"857 355 OFFCURVE",
"856 373 OFFCURVE",
"856 381 QCURVE",
"855 395 OFFCURVE",
"854 421 OFFCURVE",
"852 434 QCURVE",
"852 441 OFFCURVE",
"849 454 OFFCURVE",
"849 461 QCURVE SMOOTH",
"849 469 LINE",
"847 477 OFFCURVE",
"844 493 OFFCURVE",
"842 502 QCURVE",
"841 516 LINE",
"839 530 OFFCURVE",
"831 555 OFFCURVE",
"829 568 QCURVE",
"825 584 OFFCURVE",
"816 616 OFFCURVE",
"811 632 QCURVE",
"794 635 OFFCURVE",
"764 639 OFFCURVE",
"747 641 QCURVE",
"739 641 OFFCURVE",
"723 644 OFFCURVE",
"715 644 QCURVE"
);
},
{
nodes = (
"715 654 LINE",
"721 654 OFFCURVE",
"730 653 OFFCURVE",
"734 652 QCURVE SMOOTH",
"739 651 OFFCURVE",
"748 651 QCURVE",
"765 649 OFFCURVE",
"799 644 OFFCURVE",
"818 641 QCURVE",
"826 617 OFFCURVE",
"836 582 OFFCURVE",
"839 571 QCURVE",
"839 569 LINE",
"874 563 LINE",
"882 539 OFFCURVE",
"892 504 OFFCURVE",
"895 493 QCURVE",
"896 485 OFFCURVE",
"898 475 OFFCURVE",
"900 469 QCURVE",
"907 440 LINE",
"908 426 LINE",
"911 410 LINE SMOOTH",
"912 404 OFFCURVE",
"913 394 OFFCURVE",
"915 391 QCURVE",
"915 383 LINE SMOOTH",
"915 375 OFFCURVE",
"916 371 QCURVE SMOOTH",
"918 363 OFFCURVE",
"918 358 QCURVE SMOOTH",
"918 353 OFFCURVE",
"920 326 OFFCURVE",
"921 316 QCURVE",
"921 313 OFFCURVE",
"922 306 OFFCURVE",
"922 303 QCURVE SMOOTH",
"922 286 LINE SMOOTH",
"922 281 OFFCURVE",
"923 273 OFFCURVE",
"923 268 QCURVE SMOOTH",
"923 261 OFFCURVE",
"922 246 OFFCURVE",
"922 239 QCURVE",
"920 225 OFFCURVE",
"922 213 QCURVE",
"921 206 LINE",
"920 195 LINE",
"919 185 LINE",
"919 176 LINE",
"912 106 LINE",
"908 85 OFFCURVE",
"894 31 OFFCURVE",
"886 3 QCURVE",
"867 -2 OFFCURVE",
"842 -5 OFFCURVE",
"830 -7 QCURVE",
"813 -9 LINE",
"796 -10 OFFCURVE",
"762 -12 OFFCURVE",
"745 -14 QCURVE SMOOTH",
"728 -16 OFFCURVE",
"692 -17 OFFCURVE",
"675 -18 QCURVE",
"595 -20 LINE",
"595 10 LINE",
"598 59 LINE",
"539 58 LINE",
"539 88 LINE",
"541 109 OFFCURVE",
"542 152 OFFCURVE",
"543 175 QCURVE",
"543 186 OFFCURVE",
"544 208 OFFCURVE",
"545 219 QCURVE",
"376 219 LINE SMOOTH",
"347 219 OFFCURVE",
"290 220 OFFCURVE",
"261 220 QCURVE SMOOTH",
"148 220 LINE SMOOTH",
"132 220 OFFCURVE",
"102 234 OFFCURVE",
"80 256 OFFCURVE",
"66 286 OFFCURVE",
"67 303 QCURVE",
"43 312 OFFCURVE",
"9 355 OFFCURVE",
"11 382 QCURVE",
"14 410 LINE SMOOTH",
"15 416 OFFCURVE",
"16 428 OFFCURVE",
"16 434 QCURVE",
"19 462 OFFCURVE",
"28 514 OFFCURVE",
"35 537 QCURVE SMOOTH",
"37 545 OFFCURVE",
"41 561 OFFCURVE",
"43 572 QCURVE",
"52 601 LINE SMOOTH",
"53 604 OFFCURVE",
"53 608 OFFCURVE",
"54 614 OFFCURVE",
"59 626 OFFCURVE",
"64 638 QCURVE",
"91 642 LINE SMOOTH",
"96 643 OFFCURVE",
"108 645 OFFCURVE",
"115 646 QCURVE SMOOTH",
"131 648 LINE SMOOTH",
"182 655 OFFCURVE",
"295 663 OFFCURVE",
"345 666 QCURVE",
"338 584 LINE",
"401 588 LINE",
"392 471 LINE",
"392 461 OFFCURVE",
"390 441 OFFCURVE",
"390 432 QCURVE",
"476 432 LINE",
"487 431 OFFCURVE",
"506 432 OFFCURVE",
"516 432 QCURVE SMOOTH",
"545 432 LINE",
"545 439 OFFCURVE",
"545 452 OFFCURVE",
"544 459 QCURVE",
"544 468 OFFCURVE",
"543 486 OFFCURVE",
"543 495 QCURVE",
"542 502 OFFCURVE",
"542 517 OFFCURVE",
"542 524 QCURVE SMOOTH",
"542 530 OFFCURVE",
"542 542 OFFCURVE",
"541 548 QCURVE SMOOTH",
"540 566 OFFCURVE",
"539 601 OFFCURVE",
"537 618 QCURVE",
"535 666 LINE",
"645 661 LINE",
"649 661 LINE SMOOTH",
"652 661 OFFCURVE",
"657 660 OFFCURVE",
"660 660 QCURVE SMOOTH",
"668 660 OFFCURVE",
"680 659 OFFCURVE",
"685 658 QCURVE",
"699 651 OFFCURVE",
"709 655 OFFCURVE",
"714 654 QCURVE"
);
}
);
width = 933;
}
);
unicode = 0427;
},
{
glyphname = uni0422;
layers = (
{
layerId = "1456D5E5-B8FF-4D35-B4CF-CE3708A5ECC4";
paths = (
{
nodes = (
"53 606 OFFCURVE",
"43 557 OFFCURVE",
"37 534 QCURVE",
"79 539 OFFCURVE",
"163 545 OFFCURVE",
"204 547 QCURVE",
"201 506 OFFCURVE",
"196 425 OFFCURVE",
"195 383 QCURVE",
"194 374 OFFCURVE",
"195 354 OFFCURVE",
"195 345 QCURVE SMOOTH",
"195 335 LINE",
"195 327 LINE",
"196 200 OFFCURVE",
"210 74 QCURVE",
"237 72 OFFCURVE",
"290 69 OFFCURVE",
"318 68 QCURVE",
"391 68 LINE",
"417 67 OFFCURVE",
"472 70 OFFCURVE",
"498 70 QCURVE",
"504 139 OFFCURVE",
"508 276 OFFCURVE",
"508 345 QCURVE SMOOTH",
"508 383 LINE",
"507 425 OFFCURVE",
"505 507 OFFCURVE",
"502 549 QCURVE",
"547 547 OFFCURVE",
"634 541 OFFCURVE",
"679 536 QCURVE",
"674 560 OFFCURVE",
"666 610 OFFCURVE",
"659 633 QCURVE",
"601 644 OFFCURVE",
"485 655 OFFCURVE",
"426 657 QCURVE",
"403 659 OFFCURVE",
"360 657 OFFCURVE",
"337 658 QCURVE",
"267 656 OFFCURVE",
"129 643 OFFCURVE",
"60 629 QCURVE"
);
},
{
nodes = (
"58 639 LINE",
"127 653 OFFCURVE",
"266 666 OFFCURVE",
"337 668 QCURVE",
"375 668 LINE SMOOTH",
"388 668 OFFCURVE",
"414 668 OFFCURVE",
"427 667 QCURVE SMOOTH",
"486 665 OFFCURVE",
"607 654 OFFCURVE",
"667 642 QCURVE",
"672 623 OFFCURVE",
"680 588 OFFCURVE",
"683 571 QCURVE",
"723 564 LINE",
"735 521 OFFCURVE",
"741 481 QCURVE SMOOTH",
"747 447 LINE",
"702 452 OFFCURVE",
"614 459 OFFCURVE",
"569 461 QCURVE",
"571 422 OFFCURVE",
"573 344 OFFCURVE",
"574 305 QCURVE",
"574 267 LINE SMOOTH",
"574 198 OFFCURVE",
"570 58 OFFCURVE",
"563 -18 QCURVE",
"552 -18 OFFCURVE",
"519 -18 OFFCURVE",
"508 -19 QCURVE SMOOTH",
"492 -20 OFFCURVE",
"462 -21 OFFCURVE",
"447 -20 QCURVE",
"374 -20 LINE",
"355 -19 OFFCURVE",
"319 -18 OFFCURVE",
"301 -16 QCURVE",
"292 -16 OFFCURVE",
"265 -14 OFFCURVE",
"257 -14 QCURVE",
"255 5 OFFCURVE",
"252 42 OFFCURVE",
"250 61 QCURVE",
"248 61 OFFCURVE",
"246 62 OFFCURVE",
"245 62 QCURVE",
"236 62 OFFCURVE",
"209 64 OFFCURVE",
"201 64 QCURVE",
"194 132 OFFCURVE",
"186 262 OFFCURVE",
"185 327 QCURVE",
"185 384 LINE SMOOTH",
"185 403 OFFCURVE",
"186 438 OFFCURVE",
"187 455 QCURVE",
"160 453 OFFCURVE",
"105 447 OFFCURVE",
"80 444 QCURVE",
"92 497 LINE SMOOTH",
"94 505 OFFCURVE",
"97 522 OFFCURVE",
"99 530 QCURVE",
"24 522 LINE",
"36 575 LINE SMOOTH",
"39 589 OFFCURVE",
"46 618 OFFCURVE",
"50 632 QCURVE"
);
}
);
width = 772;
}
);
unicode = 0422;
},
{
glyphname = uni042E;
layers = (
{
layerId = "1456D5E5-B8FF-4D35-B4CF-CE3708A5ECC4";
paths = (
{
nodes = (
"536 307 LINE",
"537 265 OFFCURVE",
"540 182 OFFCURVE",
"544 140 QCURVE SMOOTH",
"545 126 OFFCURVE",
"559 100 OFFCURVE",
"580 80 OFFCURVE",
"607 68 OFFCURVE",
"622 68 QCURVE",
"782 66 OFFCURVE",
"1098 73 OFFCURVE",
"1256 84 QCURVE",
"1286 89 OFFCURVE",
"1336 127 OFFCURVE",
"1349 156 QCURVE",
"1382 256 OFFCURVE",
"1373 469 OFFCURVE",
"1331 566 QCURVE SMOOTH",
"1323 586 OFFCURVE",
"1309 598 QCURVE",
"1295 613 OFFCURVE",
"1260 633 OFFCURVE",
"1240 634 QCURVE",
"1086 648 OFFCURVE",
"781 659 OFFCURVE",
"627 657 QCURVE",
"607 658 OFFCURVE",
"573 638 OFFCURVE",
"562 621 QCURVE SMOOTH",
"551 606 OFFCURVE",
"548 588 QCURVE",
"544 547 OFFCURVE",
"538 464 OFFCURVE",
"537 422 QCURVE",
"481 422 OFFCURVE",
"372 421 OFFCURVE",
"315 420 QCURVE",
"320 477 OFFCURVE",
"343 592 OFFCURVE",
"358 649 QCURVE",
"293 644 OFFCURVE",
"165 636 OFFCURVE",
"100 628 QCURVE",
"65 568 OFFCURVE",
"25 434 OFFCURVE",
"18 296 OFFCURVE",
"46 159 OFFCURVE",
"79 96 QCURVE",
"145 90 OFFCURVE",
"279 80 OFFCURVE",
"345 77 QCURVE",
"317 192 OFFCURVE",
"313 307 QCURVE"
);
},
{
nodes = (
"854 270 OFFCURVE",
"853 457 OFFCURVE",
"847 551 QCURVE",
"902 550 OFFCURVE",
"1011 548 OFFCURVE",
"1066 547 QCURVE",
"1083 455 OFFCURVE",
"1086 271 OFFCURVE",
"1074 179 QCURVE",
"1017 177 OFFCURVE",
"906 175 OFFCURVE",
"850 175 QCURVE"
);
},
{
nodes = (
"532 160 OFFCURVE",
"530 199 OFFCURVE",
"528 219 QCURVE",
"379 219 LINE",
"385 108 OFFCURVE",
"414 -12 QCURVE",
"348 -9 OFFCURVE",
"194 3 OFFCURVE",
"128 9 QCURVE",
"118 27 OFFCURVE",
"101 64 OFFCURVE",
"95 84 QCURVE",
"72 87 LINE",
"40 146 OFFCURVE",
"11 274 OFFCURVE",
"11 338 QCURVE SMOOTH",
"11 415 OFFCURVE",
"52 568 OFFCURVE",
"94 637 QCURVE",
"148 643 OFFCURVE",
"260 652 OFFCURVE",
"314 656 QCURVE SMOOTH",
"372 660 LINE",
"360 620 OFFCURVE",
"351 577 QCURVE",
"356 577 OFFCURVE",
"365 577 OFFCURVE",
"370 578 QCURVE",
"428 582 LINE",
"417 544 OFFCURVE",
"400 467 OFFCURVE",
"394 431 QCURVE",
"426 431 OFFCURVE",
"491 432 OFFCURVE",
"527 432 QCURVE",
"528 472 OFFCURVE",
"534 553 OFFCURVE",
"538 591 QCURVE",
"542 610 OFFCURVE",
"554 627 QCURVE",
"554 626 LINE",
"566 645 OFFCURVE",
"604 668 OFFCURVE",
"627 667 QCURVE",
"650 667 OFFCURVE",
"695 668 OFFCURVE",
"718 668 QCURVE SMOOTH",
"780 668 OFFCURVE",
"913 664 OFFCURVE",
"1047 658 OFFCURVE",
"1179 649 OFFCURVE",
"1241 644 QCURVE SMOOTH",
"1263 642 OFFCURVE",
"1302 620 OFFCURVE",
"1316 605 QCURVE",
"1322 600 OFFCURVE",
"1336 577 OFFCURVE",
"1340 570 QCURVE",
"1349 547 LINE",
"1361 538 OFFCURVE",
"1372 527 QCURVE SMOOTH",
"1378 522 OFFCURVE",
"1392 499 OFFCURVE",
"1396 492 QCURVE",
"1419 438 OFFCURVE",
"1444 317 OFFCURVE",
"1444 259 QCURVE SMOOTH",
"1444 159 OFFCURVE",
"1417 80 QCURVE",
"1402 46 OFFCURVE",
"1346 1 OFFCURVE",
"1313 -4 QCURVE",
"1182 -13 OFFCURVE",
"922 -21 OFFCURVE",
"791 -21 QCURVE SMOOTH",
"762 -21 OFFCURVE",
"707 -20 OFFCURVE",
"678 -20 QCURVE SMOOTH",
"661 -20 OFFCURVE",
"631 -7 OFFCURVE",
"607 16 OFFCURVE",
"592 45 OFFCURVE",
"590 61 QCURVE",
"590 62 OFFCURVE",
"589 63 OFFCURVE",
"589 65 QCURVE",
"567 75 OFFCURVE",
"536 115 OFFCURVE",
"534 139 QCURVE SMOOTH"
);
},
{
nodes = (
"1074 399 OFFCURVE",
"1068 459 QCURVE",
"1012 461 LINE",
"991 461 OFFCURVE",
"937 463 OFFCURVE",
"914 463 QCURVE",
"916 415 OFFCURVE",
"919 311 OFFCURVE",
"919 263 QCURVE SMOOTH",
"919 243 OFFCURVE",
"919 205 OFFCURVE",
"918 185 QCURVE",
"955 186 OFFCURVE",
"1027 187 OFFCURVE",
"1066 189 QCURVE",
"1071 227 OFFCURVE",
"1074 302 OFFCURVE",
"1074 339 QCURVE SMOOTH"
);
}
);
width = 1456;
}
);
unicode = 042E;
},
{
glyphname = uni042F;
layers = (
{
layerId = "1456D5E5-B8FF-4D35-B4CF-CE3708A5ECC4";
paths = (
{
nodes = (
"373 551 OFFCURVE",
"465 553 OFFCURVE",
"513 551 QCURVE",
"523 551 OFFCURVE",
"541 552 OFFCURVE",
"550 550 QCURVE",
"552 518 OFFCURVE",
"553 455 OFFCURVE",
"554 422 QCURVE",
"535 423 OFFCURVE",
"516 422 QCURVE",
"486 423 OFFCURVE",
"426 422 OFFCURVE",
"397 422 QCURVE SMOOTH",
"377 422 OFFCURVE",
"339 421 OFFCURVE",
"319 421 QCURVE",
"322 495 LINE",
"322 506 LINE",
"323 515 LINE",
"324 523 LINE",
"324 531 OFFCURVE",
"324 543 OFFCURVE",
"325 550 QCURVE"
);
},
{
nodes = (
"133 638 LINE",
"105 633 OFFCURVE",
"62 594 OFFCURVE",
"52 568 QCURVE",
"50 554 OFFCURVE",
"41 527 OFFCURVE",
"38 514 QCURVE",
"37 505 LINE",
"36 501 LINE SMOOTH",
"34 492 OFFCURVE",
"31 476 OFFCURVE",
"29 468 QCURVE",
"28 460 LINE",
"28 453 OFFCURVE",
"25 441 OFFCURVE",
"25 433 QCURVE",
"23 418 OFFCURVE",
"33 393 OFFCURVE",
"52 374 OFFCURVE",
"77 363 OFFCURVE",
"91 363 QCURVE",
"77 363 OFFCURVE",
"51 352 OFFCURVE",
"31 333 OFFCURVE",
"20 308 OFFCURVE",
"21 294 QCURVE",
"21 281 OFFCURVE",
"22 276 QCURVE",
"22 274 OFFCURVE",
"23 268 OFFCURVE",
"23 266 QCURVE",
"23 264 OFFCURVE",
"24 260 OFFCURVE",
"24 257 QCURVE",
"27 223 OFFCURVE",
"33 192 QCURVE SMOOTH",
"38 167 OFFCURVE",
"50 120 OFFCURVE",
"57 96 QCURVE",
"125 85 OFFCURVE",
"261 73 OFFCURVE",
"330 70 QCURVE",
"329 75 OFFCURVE",
"328 84 OFFCURVE",
"328 89 QCURVE",
"325 124 OFFCURVE",
"322 194 OFFCURVE",
"320 231 QCURVE",
"320 245 OFFCURVE",
"319 274 OFFCURVE",
"319 288 QCURVE SMOOTH",
"319 306 LINE",
"396 306 LINE SMOOTH",
"426 306 OFFCURVE",
"485 307 OFFCURVE",
"516 306 QCURVE",
"535 307 OFFCURVE",
"555 306 QCURVE",
"555 246 OFFCURVE",
"551 128 OFFCURVE",
"548 68 QCURVE",
"613 70 OFFCURVE",
"740 77 OFFCURVE",
"805 85 QCURVE",
"815 89 OFFCURVE",
"821 89 QCURVE",
"825 99 OFFCURVE",
"826 104 QCURVE SMOOTH",
"860 231 OFFCURVE",
"852 491 OFFCURVE",
"815 616 QCURVE SMOOTH",
"810 632 LINE",
"806 633 OFFCURVE",
"798 632 OFFCURVE",
"793 633 QCURVE SMOOTH",
"731 643 OFFCURVE",
"607 654 OFFCURVE",
"544 656 QCURVE",
"536 658 OFFCURVE",
"518 657 OFFCURVE",
"510 657 QCURVE",
"440 659 OFFCURVE",
"302 655 OFFCURVE",
"232 649 QCURVE SMOOTH",
"224 648 OFFCURVE",
"206 646 OFFCURVE",
"198 646 QCURVE"
);
},
{
nodes = (
"197 656 LINE",
"202 656 OFFCURVE",
"214 657 OFFCURVE",
"220 658 QCURVE",
"223 658 OFFCURVE",
"228 659 OFFCURVE",
"231 659 QCURVE",
"282 664 OFFCURVE",
"388 668 OFFCURVE",
"439 668 QCURVE SMOOTH",
"457 668 OFFCURVE",
"492 668 OFFCURVE",
"510 667 QCURVE",
"518 667 LINE SMOOTH",
"525 667 OFFCURVE",
"540 667 OFFCURVE",
"546 666 QCURVE",
"612 664 OFFCURVE",
"734 653 OFFCURVE",
"791 644 QCURVE",
"796 642 OFFCURVE",
"800 642 OFFCURVE",
"802 642 QCURVE",
"818 642 LINE",
"825 618 LINE",
"825 619 LINE",
"829 606 OFFCURVE",
"836 581 OFFCURVE",
"839 567 QCURVE",
"841 567 OFFCURVE",
"845 566 OFFCURVE",
"847 566 QCURVE",
"852 564 OFFCURVE",
"856 564 OFFCURVE",
"858 564 QCURVE",
"874 564 LINE",
"881 540 LINE",
"881 541 LINE",
"922 403 OFFCURVE",
"922 258 QCURVE SMOOTH",
"922 199 OFFCURVE",
"906 79 OFFCURVE",
"892 23 QCURVE SMOOTH",
"891 18 OFFCURVE",
"886 7 OFFCURVE",
"884 1 QCURVE",
"873 1 OFFCURVE",
"863 -3 QCURVE",
"802 -11 OFFCURVE",
"665 -18 OFFCURVE",
"593 -20 QCURVE",
"597 60 LINE",
"582 59 OFFCURVE",
"552 58 OFFCURVE",
"537 58 QCURVE",
"544 218 LINE",
"492 218 LINE",
"385 218 LINE",
"385 181 LINE SMOOTH",
"385 173 OFFCURVE",
"386 160 OFFCURVE",
"386 153 QCURVE",
"388 116 OFFCURVE",
"391 47 OFFCURVE",
"394 12 QCURVE",
"394 7 OFFCURVE",
"396 -10 OFFCURVE",
"398 -19 QCURVE",
"323 -16 OFFCURVE",
"175 -2 OFFCURVE",
"103 9 QCURVE",
"101 25 LINE",
"101 22 LINE",
"96 37 OFFCURVE",
"89 66 OFFCURVE",
"86 81 QCURVE",
"47 87 LINE",
"45 103 LINE",
"45 100 LINE",
"39 123 OFFCURVE",
"28 167 OFFCURVE",
"23 190 QCURVE SMOOTH",
"17 219 OFFCURVE",
"14 256 QCURVE",
"14 258 OFFCURVE",
"13 261 OFFCURVE",
"13 262 QCURVE",
"13 266 LINE",
"13 267 OFFCURVE",
"12 269 OFFCURVE",
"12 271 QCURVE",
"12 274 LINE",
"11 278 OFFCURVE",
"11 288 OFFCURVE",
"11 293 QCURVE",
"9 315 OFFCURVE",
"34 352 OFFCURVE",
"54 363 QCURVE",
"35 374 OFFCURVE",
"13 411 OFFCURVE",
"15 434 QCURVE",
"15 443 OFFCURVE",
"17 449 QCURVE SMOOTH",
"18 453 OFFCURVE",
"18 460 QCURVE",
"19 468 LINE",
"21 471 OFFCURVE",
"22 481 OFFCURVE",
"23 487 QCURVE SMOOTH",
"26 503 LINE",
"26 502 LINE",
"26 503 OFFCURVE",
"27 504 OFFCURVE",
"27 505 QCURVE",
"28 514 LINE",
"35 537 LINE",
"34 537 LINE",
"36 546 OFFCURVE",
"41 564 OFFCURVE",
"42 569 QCURVE",
"53 598 OFFCURVE",
"101 642 OFFCURVE",
"131 648 QCURVE"
);
},
{
nodes = (
"543 456 OFFCURVE",
"542 461 OFFCURVE",
"542 464 QCURVE",
"506 464 LINE SMOOTH",
"484 464 OFFCURVE",
"441 464 OFFCURVE",
"419 463 QCURVE",
"411 463 OFFCURVE",
"397 462 OFFCURVE",
"390 462 QCURVE",
"389 457 OFFCURVE",
"390 450 OFFCURVE",
"390 445 QCURVE",
"389 437 LINE",
"388 432 LINE",
"397 432 LINE",
"436 432 LINE SMOOTH",
"456 432 OFFCURVE",
"496 433 OFFCURVE",
"516 432 QCURVE",
"515 432 LINE",
"525 433 OFFCURVE",
"534 434 OFFCURVE",
"544 433 QCURVE",
"544 438 OFFCURVE",
"543 449 OFFCURVE",
"543 454 QCURVE"
);
}
);
width = 933;
}
);
unicode = 042F;
},
{
glyphname = uni042D;
layers = (
{
layerId = "1456D5E5-B8FF-4D35-B4CF-CE3708A5ECC4";
paths = (
{
nodes = (
"308 306 OFFCURVE",
"469 307 OFFCURVE",
"550 307 QCURVE",
"549 274 OFFCURVE",
"550 208 OFFCURVE",
"548 175 QCURVE",
"417 173 OFFCURVE",
"158 180 OFFCURVE",
"28 192 QCURVE",
"32 167 OFFCURVE",
"45 120 OFFCURVE",
"51 96 QCURVE",
"225 71 OFFCURVE",
"576 65 OFFCURVE",
"751 79 QCURVE",
"780 86 OFFCURVE",
"826 124 OFFCURVE",
"834 153 QCURVE",
"855 256 OFFCURVE",
"849 466 OFFCURVE",
"823 568 QCURVE",
"815 596 OFFCURVE",
"771 636 OFFCURVE",
"742 641 QCURVE",
"574 661 OFFCURVE",
"235 655 OFFCURVE",
"66 629 QCURVE",
"58 606 OFFCURVE",
"47 559 OFFCURVE",
"40 536 QCURVE",
"110 541 OFFCURVE",
"250 548 OFFCURVE",
"321 550 QCURVE SMOOTH",
"378 552 OFFCURVE",
"488 552 OFFCURVE",
"545 550 QCURVE",
"547 518 OFFCURVE",
"549 455 OFFCURVE",
"550 422 QCURVE",
"469 424 OFFCURVE",
"309 422 OFFCURVE",
"228 421 QCURVE",
"226 393 OFFCURVE",
"226 336 OFFCURVE",
"227 307 QCURVE"
);
},
{
nodes = (
"217 307 LINE",
"217 319 OFFCURVE",
"216 343 OFFCURVE",
"216 355 QCURVE SMOOTH",
"216 372 OFFCURVE",
"217 414 OFFCURVE",
"218 431 QCURVE",
"234 431 OFFCURVE",
"276 432 OFFCURVE",
"292 432 QCURVE",
"325 433 OFFCURVE",
"408 433 OFFCURVE",
"441 433 QCURVE SMOOTH",
"468 433 OFFCURVE",
"513 433 OFFCURVE",
"540 432 QCURVE",
"539 440 OFFCURVE",
"539 456 OFFCURVE",
"539 464 QCURVE",
"500 464 LINE SMOOTH",
"469 464 OFFCURVE",
"408 463 OFFCURVE",
"377 462 QCURVE SMOOTH",
"306 460 OFFCURVE",
"152 452 OFFCURVE",
"82 447 QCURVE",
"85 456 OFFCURVE",
"94 488 OFFCURVE",
"96 497 QCURVE SMOOTH",
"98 505 OFFCURVE",
"101 519 OFFCURVE",
"105 530 QCURVE",
"85 529 OFFCURVE",
"45 527 OFFCURVE",
"26 525 QCURVE",
"29 534 OFFCURVE",
"38 566 OFFCURVE",
"40 575 QCURVE SMOOTH",
"44 588 OFFCURVE",
"49 610 OFFCURVE",
"59 638 QCURVE",
"157 654 OFFCURVE",
"349 668 OFFCURVE",
"446 668 QCURVE SMOOTH",
"521 668 OFFCURVE",
"669 659 OFFCURVE",
"743 651 QCURVE",
"776 645 OFFCURVE",
"825 602 OFFCURVE",
"833 571 QCURVE SMOOTH",
"836 560 LINE",
"877 537 OFFCURVE",
"889 493 QCURVE SMOOTH",
"904 436 OFFCURVE",
"918 318 OFFCURVE",
"918 258 QCURVE SMOOTH",
"918 212 OFFCURVE",
"909 118 OFFCURVE",
"899 70 QCURVE",
"890 39 OFFCURVE",
"840 -1 OFFCURVE",
"809 -9 QCURVE",
"738 -14 OFFCURVE",
"595 -20 OFFCURVE",
"523 -20 QCURVE SMOOTH",
"417 -20 OFFCURVE",
"206 -7 OFFCURVE",
"99 9 QCURVE",
"90 44 LINE",
"90 43 LINE",
"80 81 LINE",
"43 87 LINE",
"34 122 LINE",
"34 121 LINE",
"30 136 OFFCURVE",
"21 174 OFFCURVE",
"16 203 QCURVE",
"129 192 OFFCURVE",
"348 184 OFFCURVE",
"457 184 QCURVE SMOOTH",
"480 184 OFFCURVE",
"516 185 OFFCURVE",
"539 185 QCURVE",
"539 219 LINE",
"283 219 LINE",
"273 229 LINE",
"273 241 OFFCURVE",
"272 265 OFFCURVE",
"272 277 QCURVE SMOOTH",
"272 297 LINE",
"227 297 LINE"
);
}
);
width = 935;
}
);
unicode = 042D;
},
